<svg xmlns="http://www.w3.org/2000/svg" xmlns:xlink="http://www.w3.org/1999/xlink" viewBox="0 0 1080 1080" xmlns:v="https://vecta.io/nano"><defs><radialGradient id="A" cx="540" cy="628.349" r="539.41" gradientUnits="userSpaceOnUse"><stop offset="0" stop-color="#dbd65c"/><stop offset=".125" stop-color="#c6b869"/><stop offset=".436" stop-color="#977287"/><stop offset=".696" stop-color="#743f9d"/><stop offset=".891" stop-color="#5e20ab"/><stop offset="1" stop-color="#5614b0"/></radialGradient><linearGradient id="B" x1="540" y1="936.984" x2="540" y2="529.323" gradientUnits="userSpaceOnUse"><stop offset="0" stop-color="#c7ff6e"/><stop offset="1" stop-color="#fffcbd"/></linearGradient><linearGradient id="C" x1="232.5" y1="525.815" x2="847.5" y2="525.815" xlink:href="#B"/><path id="D" d="M105.58 341.923a.787.787 0 0 1-.812-.784v-8.176a4.788 4.788 0 0 0-9.576 0v8.176a.798.798 0 0 1-1.596 0v-13.3a.798.798 0 0 1 1.596 0v.896a6.388 6.388 0 0 1 11.173 4.228v8.176a.781.781 0 0 1-.784.784z"/><path id="E" d="M116.367 342.4c-4.508 0-7.027-3.695-7.027-7.924 0-4.2 2.52-7.896 7.027-7.896s7.028 3.695 7.028 7.896c0 4.23-2.52 7.924-7.028 7.924zm0-14.224c-3.304 0-5.432 2.66-5.432 6.3s2.128 6.328 5.432 6.328c3.332 0 5.433-2.687 5.433-6.328s-2.1-6.3-5.433-6.3z"/><path id="F" d="M138.316 341.923a.787.787 0 0 1-.812-.784v-.896a6.218 6.218 0 0 1-4.788 2.155 6.454 6.454 0 0 1-6.384-6.384v-8.176a.798.798 0 0 1 1.596 0v8.176a4.788 4.788 0 1 0 9.576 0v-8.176a.798.798 0 0 1 1.596 0v13.3a.781.781 0 0 1-.783.784z"/><path id="G" d="M214.348 328.427a4.786 4.786 0 0 0-4.788 4.788v7.924a.798.798 0 0 1-1.596 0v-13.3a.798.798 0 0 1 1.596 0v1.148a6.395 6.395 0 0 1 4.788-2.156.798.798 0 1 1 0 1.596z"/><path id="H" d="M143.442 355.67a2.735 2.735 0 1 1 2.735-2.735 2.724 2.724 0 0 1-2.735 2.735zm0 23.253a1.596 1.596 0 0 1-1.672-1.596v-16.945a1.604 1.604 0 0 1 1.672-1.634 1.565 1.565 0 0 1 1.596 1.634v16.945a1.533 1.533 0 0 1-1.596 1.596z"/><path id="I" d="M153.834 379a3.877 3.877 0 0 1-3.8-3.876v-21.618a1.634 1.634 0 0 1 3.268-.038v21.656a.6.6 0 0 0 .532.646 1.615 1.615 0 1 1 0 3.23z"/><path id="J" d="M182.223 400.287h-11.62c.252 3.19 2.324 5.516 5.376 5.516a5.06 5.06 0 0 0 4.116-1.932.734.734 0 0 1 .672-.393.856.856 0 0 1 .868.757c0 .252 0 .308-.532.924a6.611 6.611 0 0 1-5.124 2.239c-4.508 0-7.027-3.695-7.027-7.924 0-4.2 2.52-7.896 7.027-7.896s7.028 3.724 7.028 7.896a.848.848 0 0 1-.784.813zm-6.244-7.112c-3.36 0-5.124 2.576-5.376 5.516h10.78c-.252-3.19-2.324-5.516-5.404-5.516z"/><path id="K" d="M198.743 406.923a1.596 1.596 0 1 1 1.597-1.596 1.578 1.578 0 0 1-1.597 1.596z"/><path id="L" d="M914.05 852.435a1.596 1.596 0 1 1 1.596-1.597 1.578 1.578 0 0 1-1.596 1.597zm0 17.556a.77.77 0 0 1-.812-.784v-13.3a.772.772 0 0 1 .813-.784.762.762 0 0 1 .783.784v13.3a.749.749 0 0 1-.783.784z"/><path id="M" d="M923.695 870h-.868c-2.212 0-3.304-1.092-3.304-3.276v-9.995h-1.428a.798.798 0 0 1 0-1.597h1.428v-4.284a.786.786 0 0 1 .812-.783.763.763 0 0 1 .784.783v4.284h2.576a.798.798 0 0 1 0 1.597h-2.576v9.995c0 1.372.393 1.68 1.708 1.68h.868a.798.798 0 0 1 0 1.596z"/><path id="N" d="M938.873 870a.787.787 0 0 1-.812-.784v-8.176a4.788 4.788 0 1 0-9.576 0v8.176a.798.798 0 0 1-1.596 0v-18.368a.798.798 0 0 1 1.596 0v5.965a6.222 6.222 0 0 1 4.788-2.156 6.436 6.436 0 0 1 6.385 6.384v8.176a.781.781 0 0 1-.784.784z"/><path id="O" d="M923.918 883.737a2.735 2.735 0 1 1 2.735-2.735 2.724 2.724 0 0 1-2.735 2.735zm0 23.253a1.596 1.596 0 0 1-1.672-1.596V888.45a1.604 1.604 0 0 1 1.672-1.634 1.565 1.565 0 0 1 1.596 1.634v16.945a1.533 1.533 0 0 1-1.596 1.596z"/><path id="P" d="M934.31 907.067a3.877 3.877 0 0 1-3.8-3.876v-21.618a1.634 1.634 0 0 1 3.268-.038v21.656a.6.6 0 0 0 .532.646 1.615 1.615 0 1 1 0 3.229z"/><path id="Q" d="M104.758 1045.464a1.36 1.36 0 0 1-1.4-1.101 7.763 7.763 0 0 1-4.804 1.668 7.666 7.666 0 0 1-7.604-7.605v-9.24a1.434 1.434 0 0 1 2.868-.033v9.272a4.753 4.753 0 1 0 9.507 0v-9.24a1.33 1.33 0 0 1 1.4-1.468 1.364 1.364 0 0 1 1.435 1.435v14.9a1.328 1.328 0 0 1-1.401 1.4z"/><path id="R" d="M1007.906 1044.138a5.125 5.125 0 0 1-4.461 2.181c-4.3 0-5.82-3.56-5.82-7.46 0-3.92 1.52-7.482 5.82-7.482a5.065 5.065 0 0 1 4.44 2.181.405.405 0 0 1 .12.32.6.6 0 0 1-.62.561.528.528 0 0 1-.439-.221 3.937 3.937 0 0 0-3.501-1.7c-3.32 0-4.682 2.6-4.682 6.342 0 3.72 1.36 6.32 4.682 6.32a3.988 3.988 0 0 0 3.541-1.701.465.465 0 0 1 .439-.26.612.612 0 0 1 .601.58.633.633 0 0 1-.12.34z"/><path id="S" d="M256.928 80.38c-9.66 0-15.06-7.92-15.06-16.98 0-9 5.4-16.92 15.06-16.92s15.06 7.92 15.06 16.92c0 9.06-5.4 16.98-15.06 16.98zm0-28.8c-6 0-9.9 4.68-9.9 11.82 0 7.2 3.9 11.88 9.9 11.88 6.06 0 9.9-4.68 9.9-11.88 0-7.14-3.84-11.82-9.9-11.82z"/><path id="T" d="M286.268 79.36h-1.02c-5.7 0-7.86-3-7.86-7.92v-18.84h-1.8a2.55 2.55 0 1 1-.06-5.1h1.8v-8.34a2.436 2.436 0 0 1 2.58-2.52 2.39 2.39 0 0 1 2.52 2.52v8.34h3.84a2.487 2.487 0 0 1 2.52 2.52 2.441 2.441 0 0 1-2.52 2.58h-3.84v19.38c0 1.68.6 2.28 2.28 2.28h1.5a2.474 2.474 0 0 1 2.579 2.52 2.441 2.441 0 0 1-2.52 2.58z"/><path id="U" d="M363.186 79.36a2.424 2.424 0 0 1-2.521-2.52v-16.68a8.549 8.549 0 1 0-17.099 0v16.62a2.55 2.55 0 0 1-2.641 2.64 2.472 2.472 0 0 1-2.52-2.58v-26.82a2.387 2.387 0 0 1 2.52-2.52 2.509 2.509 0 0 1 2.58 1.98 13.703 13.703 0 0 1 22.26 10.68v16.62a2.454 2.454 0 0 1-2.58 2.58z"/><path id="V" d="M483.244 66.042h-22.2c.84 5.64 4.44 9.24 9.72 9.24a9.005 9.005 0 0 0 7.14-3.12 2.483 2.483 0 0 1 1.859-.96 2.8 2.8 0 0 1 2.7 2.64c0 .72-.18 1.26-1.44 2.52a14.622 14.622 0 0 1-10.26 4.02c-9.66 0-15.06-7.98-15.06-16.98 0-8.94 5.4-16.92 15.06-16.92 9.78 0 15 7.98 15 16.92a2.558 2.558 0 0 1-2.52 2.64zm-12.48-14.46c-5.64 0-8.94 4.14-9.72 9.3h19.44c-.84-5.76-4.44-9.3-9.72-9.3z"/><path id="W" d="M548.943 66.042h-22.2c.84 5.64 4.44 9.24 9.72 9.24a9.004 9.004 0 0 0 7.14-3.12 2.484 2.484 0 0 1 1.86-.96 2.8 2.8 0 0 1 2.7 2.64c0 .72-.18 1.26-1.44 2.52a14.622 14.622 0 0 1-10.26 4.02c-9.66 0-15.06-7.98-15.06-16.98 0-8.94 5.4-16.92 15.06-16.92 9.78 0 15 7.98 15 16.92a2.558 2.558 0 0 1-2.521 2.64zm-12.48-14.46c-5.64 0-8.94 4.14-9.72 9.3h19.44c-.84-5.76-4.44-9.3-9.72-9.3z"/><path id="X" d="M569.223 51.583a8.644 8.644 0 0 0-8.52 8.58v16.62a2.501 2.501 0 0 1-2.641 2.58 2.456 2.456 0 0 1-2.52-2.52v-26.76a2.541 2.541 0 0 1 2.52-2.58 2.462 2.462 0 0 1 2.58 2.04 13.876 13.876 0 0 1 8.58-3.06 2.552 2.552 0 1 1 0 5.1z"/><path id="Y" d="M665.33 80.38c-3.3 0-8.82-1.02-11.64-4.5a2.655 2.655 0 0 1 2.16-4.26 2.466 2.466 0 0 1 1.86 1.02c1.86 2.04 4.92 2.64 7.62 2.64 5.4 0 7.14-1.86 7.14-4.56 0-7.68-18.3-2.94-18.3-15.3 0-6.54 6.12-8.94 11.82-8.94 3.24 0 10.86 1.62 10.86 4.98a2.694 2.694 0 0 1-2.52 2.7 3.615 3.615 0 0 1-1.98-.78c-1.62-1.38-3.96-1.8-6.36-1.8-4.98 0-6.72 1.86-6.72 3.84 0 7.14 18.36 2.52 18.36 15.3 0 7.08-5.94 9.66-12.3 9.66z"/><path id="Z" d="M710.876 140.682a6.122 6.122 0 0 1-6-6.12v-34.138a2.58 2.58 0 0 1 5.16-.06v34.198a.947.947 0 0 0 .84 1.02 2.55 2.55 0 1 1 0 5.1z"/><path id="a" d="M345.067 169.456a6.494 6.494 0 0 0-6.497 6.497v10.753a1.083 1.083 0 0 1-2.166 0v-18.048a1.083 1.083 0 0 1 2.166 0v1.558a8.676 8.676 0 0 1 6.497-2.925 1.083 1.083 0 1 1 0 2.165z"/><path id="b" d="M394.084 187.77a1.068 1.068 0 0 1-1.102-1.063V175.61a6.497 6.497 0 1 0-12.994 0v11.095a1.083 1.083 0 0 1-2.166 0v-18.048a1.083 1.083 0 0 1 2.166 0v1.216a8.667 8.667 0 0 1 15.16 5.737v11.095a1.059 1.059 0 0 1-1.064 1.063z"/><path id="c" d="M416.58 178.765h-15.768c.342 4.332 3.153 7.485 7.295 7.485a6.866 6.866 0 0 0 5.585-2.622.997.997 0 0 1 .912-.531 1.161 1.161 0 0 1 1.178 1.025c0 .342 0 .418-.722 1.254a8.969 8.969 0 0 1-6.953 3.039c-6.117 0-9.536-5.015-9.536-10.752 0-5.7 3.42-10.715 9.536-10.715s9.537 5.054 9.537 10.715a1.15 1.15 0 0 1-1.065 1.102zm-8.473-9.65c-4.56 0-6.953 3.495-7.295 7.485h14.628c-.342-4.332-3.153-7.485-7.333-7.485z"/><path id="d" d="M455.912 188.415c-6.117 0-9.536-5.015-9.536-10.752 0-5.7 3.42-10.715 9.536-10.715s9.537 5.016 9.537 10.715c0 5.737-3.42 10.752-9.537 10.752zm0-19.3c-4.483 0-7.37 3.61-7.37 8.55s2.888 8.587 7.37 8.587c4.52 0 7.37-3.647 7.37-8.587s-2.85-8.55-7.37-8.55z"/><path id="e" d="M506.335 187.77h-1.178c-3 0-4.483-1.48-4.483-4.445V169.76h-1.937a1.083 1.083 0 0 1 0-2.165h1.938v-5.813a1.068 1.068 0 0 1 1.103-1.063 1.037 1.037 0 0 1 1.063 1.063v5.813h3.495a1.083 1.083 0 0 1 0 2.165h-3.495v13.564c0 1.86.532 2.28 2.317 2.28h1.178a1.083 1.083 0 0 1 0 2.166z"/><path id="f" d="M540.83 187.77h-.038a3.933 3.933 0 0 1-3.762-2.964 8.619 8.619 0 0 1-7.371 3.609c-6.193 0-9.536-5.09-9.536-10.752 0-5.737 3.42-10.715 9.536-10.715a8.686 8.686 0 0 1 7.371 3.572v-1.862a1.071 1.071 0 0 1 1.102-1.063 1.037 1.037 0 0 1 1.064 1.063v15.312c0 2.432 2.735.912 2.735 2.736a1.045 1.045 0 0 1-1.102 1.064zm-11.17-18.655c-4.483 0-7.37 3.61-7.37 8.55s2.888 8.587 7.37 8.587c4.52 0 7.37-3.647 7.37-8.587s-2.85-8.55-7.37-8.55z"/><path id="g" d="M782.232 178.765h-15.768c.342 4.332 3.153 7.485 7.295 7.485a6.866 6.866 0 0 0 5.585-2.622.997.997 0 0 1 .912-.531 1.161 1.161 0 0 1 1.178 1.025c0 .342 0 .418-.722 1.254a8.969 8.969 0 0 1-6.953 3.039c-6.117 0-9.536-5.015-9.536-10.752 0-5.7 3.42-10.715 9.536-10.715s9.537 5.054 9.537 10.715a1.15 1.15 0 0 1-1.064 1.102zm-8.473-9.65c-4.56 0-6.953 3.495-7.295 7.485h14.628c-.342-4.332-3.153-7.485-7.333-7.485z"/><path id="h" d="M264.524 234.016c-8.055 0-8.13-9.65-8.13-15.197 0-5.434.836-13.185 8.093-13.185 7.105 0 8.17 7.295 8.17 13.185 0 5.51-.114 15.197-8.13 15.197zm5.965-15.197c0-5.434-.76-11.02-5.965-11.02-5.7 0-5.965 6.99-5.965 11.02v2.432c0 4.407.836 10.6 5.927 10.6 5.205 0 6.003-6.193 6.003-10.6z"/><path id="i" d="M278.167 236.752a.995.995 0 0 1-.57.151 1.062 1.062 0 0 1-1.025-1.102c0-1.063 1.634-1.216 1.9-2.432a2.187 2.187 0 0 1 .152-4.369c1.86 0 2.28 1.9 2.28 3.077a5.425 5.425 0 0 1-2.735 4.674z"/><path id="j" d="M577.754 233.37h-1.178c-3 0-4.483-1.48-4.483-4.445V215.36h-1.937a1.083 1.083 0 0 1 0-2.165h1.938v-5.813a1.068 1.068 0 0 1 1.103-1.063 1.037 1.037 0 0 1 1.063 1.063v5.813h3.495a1.083 1.083 0 0 1 0 2.165h-3.495v13.564c0 1.86.532 2.28 2.317 2.28h1.178a1.083 1.083 0 0 1 0 2.166z"/><path id="k" d="M674.653 215.057a6.494 6.494 0 0 0-6.497 6.497v10.753a1.083 1.083 0 0 1-2.166 0V214.26a1.083 1.083 0 0 1 2.166 0v1.558a8.676 8.676 0 0 1 6.497-2.925 1.083 1.083 0 1 1 0 2.165z"/></defs><rect width="1080" height="1080" rx="40" fill="url(#A)"/><path d="M432.822 746.662v180.322a10 10 0 0 1-10 10H242.5a10 10 0 0 1-10-10V746.662a10 10 0 0 1 10-10h180.322a10 10 0 0 1 10 10zm197.34-10H449.84a10 10 0 0 0-10 10v180.322a10 10 0 0 0 10 10H630.16a10 10 0 0 0 10-10V746.662a10 10 0 0 0-10-10zm0-207.34H449.84a10 10 0 0 0-10 10v180.322a10 10 0 0 0 10 10H630.16a10 10 0 0 0 10-10V539.323a10 10 0 0 0-10-10zm207.34 207.34H657.178a10 10 0 0 0-10 10v180.322a10 10 0 0 0 10 10H837.5a10 10 0 0 0 10-10V746.662a10 10 0 0 0-10-10zm0-207.34H657.178a10 10 0 0 0-10 10v180.322a10 10 0 0 0 10 10H837.5a10 10 0 0 0 10-10V539.323a10 10 0 0 0-10-10z" fill="url(#B)"/><path d="M432.822 539.323v180.322a10 10 0 0 1-10 10H242.5a10 10 0 0 1-10-10V539.323a10 10 0 0 1 10-10h180.322a10 10 0 0 1 10 10zm-10-217.34H242.5a10 10 0 0 0-10 10v180.322a10 10 0 0 0 10 10h180.322a10 10 0 0 0 10-10V331.984a10 10 0 0 0-10-10zm207.34 0H449.84a10 10 0 0 0-10 10v180.322a10 10 0 0 0 10 10H630.16a10 10 0 0 0 10-10V331.984a10 10 0 0 0-10-10zm207.34 0H657.178a10 10 0 0 0-10 10v180.322a10 10 0 0 0 10 10H837.5a10 10 0 0 0 10-10V331.984a10 10 0 0 0-10-10z" fill="url(#C)"/><g fill="#66c89e"><path d="M596.377 618.946l-18.916-18v-25.503a3.938 3.938 0 0 0-3.939-3.939h-5.2a3.938 3.938 0 0 0-3.939 3.939V588.5l-19.752-18.788-1.605-1.507a3.934 3.934 0 0 0-5.396 0l-1.615 1.507-52.375 49.864a3.933 3.933 0 0 0-.158 5.554l3.2 3.417a3.953 3.953 0 0 0 5.593.148l3.505-3.338v56.678a3.938 3.938 0 0 0 3.939 3.939h10.674v-47.658h21.22v47.658h49.293a3.938 3.938 0 0 0 3.939-3.939v-56.717l2.885 2.747a3.942 3.942 0 0 0 5.583-.148l3.2-3.417a3.942 3.942 0 0 0-.148-5.554zm-24.183 45.836a1.963 1.963 0 0 1-1.969 1.969h-24.5a1.963 1.963 0 0 1-1.969-1.969v-24.5a1.963 1.963 0 0 1 1.969-1.969h24.5a1.963 1.963 0 0 1 1.969 1.969zm24.183 161.503l-18.916-18v-25.503a3.938 3.938 0 0 0-3.939-3.939h-5.2a3.938 3.938 0 0 0-3.939 3.939v13.047l-19.752-18.787-1.605-1.507a3.934 3.934 0 0 0-5.396 0l-1.615 1.507-52.375 49.864a3.933 3.933 0 0 0-.158 5.554l3.2 3.417a3.953 3.953 0 0 0 5.593.148l3.505-3.338v56.678a3.938 3.938 0 0 0 3.939 3.939h10.674v-47.658h21.22v47.658h49.293a3.938 3.938 0 0 0 3.939-3.939v-56.707l2.885 2.747a3.933 3.933 0 0 0 5.583-.158l3.2-3.417a3.942 3.942 0 0 0-.148-5.553zm-24.183 45.846a1.969 1.969 0 0 1-1.969 1.969h-24.5a1.969 1.969 0 0 1-1.969-1.969v-24.508a1.969 1.969 0 0 1 1.969-1.969h24.5a1.969 1.969 0 0 1 1.969 1.969zM389.03 826.285l-18.906-18v-25.503a3.938 3.938 0 0 0-3.939-3.939h-5.2a3.938 3.938 0 0 0-3.939 3.939v13.057l-19.752-18.797-1.615-1.507a3.934 3.934 0 0 0-5.396 0l-1.605 1.507-52.384 49.864a3.942 3.942 0 0 0-.148 5.554l3.2 3.417a3.942 3.942 0 0 0 5.583.148l3.515-3.348v56.687a3.938 3.938 0 0 0 3.939 3.939h10.674v-47.658h21.22v47.658h49.293a3.938 3.938 0 0 0 3.939-3.939v-56.707l2.885 2.747a3.933 3.933 0 0 0 5.583-.158l3.2-3.417a3.933 3.933 0 0 0-.158-5.553zm-24.174 45.846a1.969 1.969 0 0 1-1.969 1.969h-24.5a1.969 1.969 0 0 1-1.969-1.969v-24.508a1.969 1.969 0 0 1 1.969-1.969h24.5a1.969 1.969 0 0 1 1.969 1.969zm438.85-45.846l-18.906-17.98v-25.513a3.938 3.938 0 0 0-3.939-3.939h-5.2a3.938 3.938 0 0 0-3.939 3.939v13.057l-19.762-18.797-1.605-1.507a3.934 3.934 0 0 0-5.396 0l-1.605 1.507-52.384 49.864a3.942 3.942 0 0 0-.148 5.554l3.2 3.417a3.942 3.942 0 0 0 5.583.148l3.505-3.338v56.678a3.944 3.944 0 0 0 3.939 3.939h10.684v-47.658h21.22v47.658h49.293a3.938 3.938 0 0 0 3.939-3.939v-56.697l2.875 2.737a3.945 3.945 0 0 0 5.593-.158l3.2-3.417a3.933 3.933 0 0 0-.158-5.553zm-24.174 45.846a1.975 1.975 0 0 1-1.969 1.969h-24.508a1.975 1.975 0 0 1-1.969-1.969v-24.508a1.975 1.975 0 0 1 1.969-1.969h24.508a1.975 1.975 0 0 1 1.969 1.969z" opacity=".6"/><path d="M803.707 618.946l-18.906-17.98v-25.513a3.938 3.938 0 0 0-3.939-3.939h-5.21a3.938 3.938 0 0 0-3.939 3.939V588.5l-19.762-18.797-1.605-1.507a3.934 3.934 0 0 0-5.396 0l-1.605 1.507-52.384 49.864a3.942 3.942 0 0 0-.148 5.554l3.2 3.417a3.942 3.942 0 0 0 5.583.148l3.505-3.338v56.678a3.944 3.944 0 0 0 3.939 3.939h10.684v-47.658h21.22v47.658h49.293a3.938 3.938 0 0 0 3.939-3.939v-56.697l2.875 2.737a3.945 3.945 0 0 0 5.593-.158l3.2-3.417a3.933 3.933 0 0 0-.158-5.553zm-24.174 45.846a1.975 1.975 0 0 1-1.969 1.969h-24.508a1.975 1.975 0 0 1-1.969-1.969v-24.508a1.975 1.975 0 0 1 1.969-1.969h24.508a1.975 1.975 0 0 1 1.969 1.969z" opacity=".6"/></g><g fill="#fff"><path d="M912.412 803.58l-7.903-7.516v-10.665a1.646 1.646 0 0 0-1.646-1.646h-2.177a1.646 1.646 0 0 0-1.646 1.646v5.458l-8.26-7.858-.67-.63a1.645 1.645 0 0 0-2.256 0l-.67.63-21.898 20.844a1.648 1.648 0 0 0-.062 2.322l1.342 1.428a1.648 1.648 0 0 0 2.334.062l1.465-1.395v23.693a1.649 1.649 0 0 0 1.646 1.646h4.466v-19.922h8.87v19.922h20.606a1.646 1.646 0 0 0 1.646-1.646v-23.7l1.202 1.144a1.649 1.649 0 0 0 2.338-.066l1.342-1.428a1.644 1.644 0 0 0-.066-2.322zm-10.105 19.165a.826.826 0 0 1-.823.823H891.24a.826.826 0 0 1-.823-.823V812.5a.826.826 0 0 1 .823-.823h10.245a.826.826 0 0 1 .823.823z" opacity=".5"/><path d="M89.882 341.923H77.45a.848.848 0 0 1-.812-.784V322.77a.826.826 0 0 1 .813-.783h12.432a.784.784 0 1 1 0 1.567H78.234v6.89h8.54a.771.771 0 0 1 .813.783.787.787 0 0 1-.784.813h-8.568v8.288h11.648a.793.793 0 0 1 .812.812.77.77 0 0 1-.812.784z"/><use xlink:href="#D"/><use xlink:href="#E"/><use xlink:href="#F"/><path d="M149.326 348.307c-2.38 0-5.74-.895-5.74-1.903a.888.888 0 0 1 .812-.896 10.105 10.105 0 0 1 1.484.672 10.489 10.489 0 0 0 3.443.532c3.584 0 5.433-1.764 5.433-5.208v-1.96a6.688 6.688 0 0 1-5.433 2.38c-4.424 0-7.027-3.136-7.027-7.448 0-4.2 2.52-7.896 7.027-7.896a6.403 6.403 0 0 1 5.433 2.632v-1.344a.798.798 0 0 1 1.596 0v13.636c0 4.452-2.66 6.804-7.028 6.804zm0-20.132c-3.304 0-5.432 2.66-5.432 6.3 0 3.612 1.988 5.853 5.432 5.853s5.433-2.24 5.433-5.853c0-3.64-2.1-6.3-5.433-6.3zm22.907 13.748a.787.787 0 0 1-.812-.784v-8.176a4.788 4.788 0 0 0-9.576 0v8.176a.798.798 0 0 1-1.596 0v-18.37a.798.798 0 0 1 1.596 0v5.965a6.222 6.222 0 0 1 4.788-2.156 6.436 6.436 0 0 1 6.385 6.384v8.176a.781.781 0 0 1-.784.784zm16.49-18.368h-.868a1.238 1.238 0 0 0-1.231 1.204v2.296h2.1a.763.763 0 0 1 .784.784.788.788 0 0 1-.784.813h-2.1v12.487a.765.765 0 0 1-.784.784.748.748 0 0 1-.784-.784v-12.49h-1.932a.798.798 0 0 1 0-1.597h1.932v-2.296a2.778 2.778 0 0 1 2.772-2.771h.896a.795.795 0 0 1 .813.812.751.751 0 0 1-.812.756z"/><use xlink:href="#E" x="81.358"/><use xlink:href="#G"/><path d="M91.413 379.568a7.869 7.869 0 0 1-6.991-3.761 1.547 1.547 0 0 1-.38-.988 1.676 1.676 0 0 1 1.71-1.558 1.554 1.554 0 0 1 1.33.722 4.778 4.778 0 0 0 4.331 2.355c3.647 0 5.28-3.268 5.434-10.486a7.955 7.955 0 0 1-5.434 2.166 8.421 8.421 0 0 1 0-16.832c8.017 0 8.663 8.207 8.663 14.172 0 7.105-1.558 14.2-8.663 14.2zm0-25.114a5.155 5.155 0 0 0 0 10.297 5.18 5.18 0 0 0 4.978-5.243c-.456-2.926-2.014-5.054-4.978-5.054zm43.8 24.47a1.556 1.556 0 0 1-1.596-1.596v-11.97a4.009 4.009 0 1 0-8.017-.037v11.968a1.555 1.555 0 0 1-1.634 1.634 1.535 1.535 0 0 1-1.596-1.596v-11.97a4.028 4.028 0 0 0-8.056-.037v11.968a1.584 1.584 0 0 1-1.671 1.634 1.557 1.557 0 0 1-1.597-1.596v-16.983a1.667 1.667 0 0 1 3.04-.912 7.319 7.319 0 0 1 4.218-1.33 7.194 7.194 0 0 1 5.661 2.698 7.116 7.116 0 0 1 5.623-2.698 7.257 7.257 0 0 1 7.295 7.22v11.968a1.584 1.584 0 0 1-1.672 1.634z"/><use xlink:href="#H"/><use xlink:href="#I"/><use xlink:href="#I" x="8.516"/><use xlink:href="#H" x="25.508"/><path d="M184.167 379.568c-6.117 0-9.536-5.015-9.536-10.752 0-5.7 3.42-10.715 9.536-10.715s9.537 5.016 9.537 10.715c0 5.737-3.42 10.752-9.537 10.752zm0-18.237c-3.8 0-6.27 2.964-6.27 7.485 0 4.56 2.47 7.522 6.27 7.522 3.838 0 6.27-2.963 6.27-7.522 0-4.522-2.432-7.485-6.27-7.485zm29.443 17.592a1.535 1.535 0 0 1-1.596-1.596v-10.562a5.415 5.415 0 1 0-10.829 0v10.524a1.615 1.615 0 0 1-1.671 1.672 1.566 1.566 0 0 1-1.597-1.634v-16.983a1.512 1.512 0 0 1 1.597-1.596 1.587 1.587 0 0 1 1.633 1.254 8.677 8.677 0 0 1 14.097 6.763v10.524a1.554 1.554 0 0 1-1.634 1.634zm-85.258 28a.787.787 0 0 1-.812-.784v-8.176a4.788 4.788 0 0 0-9.576 0v8.176a.798.798 0 0 1-1.596 0v-18.37a.798.798 0 0 1 1.596 0v5.965a6.222 6.222 0 0 1 4.788-2.156 6.436 6.436 0 0 1 6.385 6.384v8.176a.781.781 0 0 1-.784.784z"/><use xlink:href="#E" x="22.063" y="65"/><path d="M165.9 406.923a.764.764 0 0 1-.784-.784v-9.408a3.57 3.57 0 0 0-7.141-.027v9.436a.764.764 0 0 1-.783.784.787.787 0 0 1-.812-.784v-9.408a3.556 3.556 0 0 0-7.112-.027v9.436a.798.798 0 0 1-1.596 0v-13.3a.798.798 0 0 1 1.596 0v.168a5.093 5.093 0 0 1 3.557-1.428 5.193 5.193 0 0 1 4.368 2.38 5.168 5.168 0 0 1 9.52 2.744v9.436a.787.787 0 0 1-.812.784z"/><use xlink:href="#J"/><path d="M189.502 407.455c-1.68 0-4.508-.588-5.487-2.212a.675.675 0 0 1-.112-.42.764.764 0 0 1 1.428-.448c1.008 1.23 2.8 1.483 4.172 1.483 2.717 0 4.088-.896 4.088-2.716 0-4.228-9.184-1.987-9.184-7.588 0-2.828 2.828-3.92 5.376-3.92a7.587 7.587 0 0 1 4.816 1.624.784.784 0 0 1 .252.532.908.908 0 0 1-.868.84.742.742 0 0 1-.532-.224 5.599 5.599 0 0 0-3.668-1.177c-2.464 0-3.78.952-3.78 2.324 0 3.92 9.185 1.85 9.185 7.588 0 3.192-2.8 4.313-5.685 4.313z"/><use xlink:href="#K"/><use xlink:href="#K" x="6.445"/><use xlink:href="#K" x="12.89"/><use xlink:href="#K" x="668.171" y="463.077"/><use xlink:href="#K" x="674.617" y="463.077"/><use xlink:href="#K" x="681.062" y="463.077"/><path d="M910.66 856.158l-4.563 13.16c-.196.532-.448.672-.812.672-.476 0-.616-.168-.784-.672l-3.668-10.92-3.668 10.92c-.195.532-.447.672-.812.672a.817.817 0 0 1-.784-.672l-4.536-13.16a1.215 1.215 0 0 1-.056-.308.796.796 0 0 1 .812-.729.728.728 0 0 1 .729.532l3.836 11.088 3.668-10.948c.168-.53.336-.672.812-.672.336 0 .616.112.784.672l3.725 10.948 3.78-11.088a.728.728 0 0 1 .729-.532.757.757 0 0 1 .812 1.036z"/><use xlink:href="#L"/><use xlink:href="#M"/><use xlink:href="#N"/><path d="M948.645 875.926a.653.653 0 0 1-.309.057.83.83 0 0 1-.812-.812.82.82 0 0 1 .532-.756 3.349 3.349 0 0 0 2.155-3.248v-15.26a.772.772 0 0 1 .813-.784.763.763 0 0 1 .784.784v15.26a4.973 4.973 0 0 1-3.164 4.76zm2.38-23.49a1.596 1.596 0 0 1 0-3.192 1.596 1.596 0 0 1 0 3.192z"/><use xlink:href="#F" x="829.047" y="528.077"/><path d="M976.54 870.523c-1.68 0-4.508-.588-5.487-2.212a.675.675 0 0 1-.112-.42.764.764 0 0 1 1.428-.448c1.008 1.23 2.8 1.483 4.172 1.483 2.717 0 4.088-.895 4.088-2.716 0-4.228-9.184-1.987-9.184-7.588 0-2.828 2.828-3.92 5.376-3.92a7.587 7.587 0 0 1 4.816 1.624.784.784 0 0 1 .252.532.908.908 0 0 1-.868.84.742.742 0 0 1-.532-.224 5.599 5.599 0 0 0-3.668-1.177c-2.464 0-3.78.952-3.78 2.324 0 3.92 9.185 1.85 9.185 7.588 0 3.192-2.8 4.313-5.685 4.313z"/><use xlink:href="#M" x="66.7"/><path d="M872.954 907.37a8.398 8.398 0 0 1-6.839-3.609 1.678 1.678 0 0 1-.267-.912 1.607 1.607 0 0 1 1.634-1.558c.723 0 .988.266 1.56 1.026a5.049 5.049 0 0 0 3.913 1.823 5.861 5.861 0 0 0 0-11.664 4.539 4.539 0 0 0-4.027 2.128 1.609 1.609 0 0 1-1.482.873c-.987 0-1.634-.646-1.634-1.9v-12.044a1.639 1.639 0 0 1 1.634-1.596h11.55a1.564 1.564 0 0 1 1.672 1.634 1.533 1.533 0 0 1-1.596 1.596h-10.03v7.104a7.019 7.019 0 0 1 3.913-1.025 9.079 9.079 0 0 1 0 18.123zM915.7 907a1.556 1.556 0 0 1-1.596-1.596v-11.97a4.009 4.009 0 1 0-8.017-.037v11.968a1.555 1.555 0 0 1-1.634 1.634 1.535 1.535 0 0 1-1.596-1.596v-11.97a4.028 4.028 0 0 0-8.056-.037v11.968a1.584 1.584 0 0 1-1.671 1.634 1.556 1.556 0 0 1-1.597-1.596V888.4a1.667 1.667 0 0 1 3.04-.912 7.319 7.319 0 0 1 4.218-1.33 7.194 7.194 0 0 1 5.661 2.698 7.116 7.116 0 0 1 5.623-2.698 7.257 7.257 0 0 1 7.295 7.22v11.968a1.584 1.584 0 0 1-1.672 1.634z"/><use xlink:href="#O"/><use xlink:href="#P"/><use xlink:href="#P" x="8.517"/><use xlink:href="#O" x="25.509"/><path d="M964.644 907.636c-6.117 0-9.536-5.015-9.536-10.752 0-5.7 3.42-10.715 9.536-10.715s9.537 5.016 9.537 10.715c0 5.737-3.42 10.752-9.537 10.752zm0-18.237c-3.8 0-6.27 2.964-6.27 7.485 0 4.56 2.47 7.522 6.27 7.522 3.838 0 6.27-2.963 6.27-7.522 0-4.52-2.432-7.485-6.27-7.485zm29.44 17.6a1.535 1.535 0 0 1-1.596-1.596v-10.562a5.415 5.415 0 1 0-10.829 0v10.524a1.615 1.615 0 0 1-1.671 1.672 1.566 1.566 0 0 1-1.597-1.634V888.4a1.512 1.512 0 0 1 1.597-1.596 1.587 1.587 0 0 1 1.633 1.254 8.677 8.677 0 0 1 14.097 6.763v10.524a1.554 1.554 0 0 1-1.634 1.634z"/><use xlink:href="#L" x="-47.92" y="65"/><path d="M882.752 935a.787.787 0 0 1-.812-.784v-8.176a4.788 4.788 0 1 0-9.576 0v8.176a.798.798 0 0 1-1.596 0v-13.3a.798.798 0 0 1 1.596 0v.896a6.388 6.388 0 0 1 11.173 4.228v8.176a.781.781 0 0 1-.784.784z"/><use xlink:href="#M" x="-24.451" y="65"/><use xlink:href="#N" x="-24.451" y="65"/><use xlink:href="#J" x="749.232" y="528.068"/><path d="M953.826 933.338a6.505 6.505 0 0 1-5.013 2.128c-4.508 0-7.027-3.695-7.027-7.924 0-4.2 2.52-7.895 7.027-7.895a6.505 6.505 0 0 1 5.013 2.128.742.742 0 0 1 .224.532.877.877 0 0 1-.812.84.826.826 0 0 1-.588-.28 4.935 4.935 0 0 0-3.836-1.624c-3.304 0-5.432 2.66-5.432 6.3s2.128 6.328 5.432 6.328a5.032 5.032 0 0 0 3.836-1.624.795.795 0 0 1 1.4.532.799.799 0 0 1-.224.56z"/><use xlink:href="#E" x="846.643" y="593.066"/><use xlink:href="#F" x="846.642" y="593.077"/><use xlink:href="#D" x="896.027" y="593.077"/><use xlink:href="#M" x="87.011" y="65"/><use xlink:href="#G" x="805.938" y="593.067"/><path d="M1035.977 921.242l-7.588 17.948a2.898 2.898 0 0 1-2.996 1.68h-1.232a.798.798 0 0 1 0-1.596h1.232c.616 0 1.26-.028 1.512-.672l1.596-3.81-5.796-13.552a.894.894 0 0 1-.056-.364.783.783 0 0 1 .812-.756.719.719 0 0 1 .7.477l5.208 12.15 5.152-12.15a.73.73 0 0 1 .728-.477.76.76 0 0 1 .784.756.894.894 0 0 1-.056.364z"/></g><g opacity=".3" fill="#fff"><path d="M42.372 1045.998a7.892 7.892 0 0 1-5.503-2.002 1.364 1.364 0 0 1-1.468 1.401 1.346 1.346 0 0 1-1.401-1.401v-20.88a1.435 1.435 0 0 1 2.869-.033v6.238a7.4 7.4 0 0 1 5.503-2.169c5.37 0 8.373 4.403 8.373 9.406 0 5.037-3.002 9.44-8.373 9.44zm0-16c-3.335 0-5.503 2.602-5.503 6.57 0 4.003 2.168 6.604 5.503 6.604s5.504-2.602 5.504-6.604c0-3.97-2.168-6.57-5.504-6.57zm25.555 8.037h-12.34c.467 3.136 2.468 5.137 5.403 5.137a5.003 5.003 0 0 0 3.969-1.734 1.383 1.383 0 0 1 1.034-.533 1.556 1.556 0 0 1 1.501 1.468c0 .4-.1.7-.8 1.4a8.129 8.129 0 0 1-5.704 2.235c-5.37 0-8.372-4.437-8.372-9.44 0-4.97 3.002-9.406 8.372-9.406 5.437 0 8.34 4.437 8.34 9.406a1.422 1.422 0 0 1-1.401 1.468zM61 1029.987c-3.136 0-4.97 2.3-5.403 5.17h10.807c-.467-3.202-2.468-5.17-5.403-5.17zm27.053 15.443a3.247 3.247 0 0 1-2.969-1.901 7.642 7.642 0 0 1-5.87 2.469c-5.437 0-8.372-4.47-8.372-9.44s3.002-9.406 8.372-9.406a7.369 7.369 0 0 1 5.504 2.202v-.134a1.376 1.376 0 0 1 1.4-1.501 1.341 1.341 0 0 1 1.468 1.401v12.875a.54.54 0 0 0 .467.601 1.418 1.418 0 1 1 0 2.835zm-8.84-15.443c-3.336 0-5.504 2.602-5.504 6.57 0 4.003 2.168 6.604 5.504 6.604 3.37 0 5.504-2.602 5.504-6.604 0-3.97-2.135-6.57-5.504-6.57z"/><use xlink:href="#Q"/><path d="M115.202 1045.43h-.567c-3.17 0-4.37-1.668-4.37-4.403v-10.474h-1a1.418 1.418 0 1 1-.033-2.835h1v-4.637a1.355 1.355 0 0 1 1.435-1.4 1.328 1.328 0 0 1 1.401 1.4v4.637h2.135a1.383 1.383 0 0 1 1.4 1.401 1.356 1.356 0 0 1-1.4 1.434h-2.135v10.774c0 .934.333 1.268 1.268 1.268h.833a1.376 1.376 0 0 1 1.435 1.4 1.357 1.357 0 0 1-1.4 1.435zm4.604-20.414a2.401 2.401 0 1 1 2.402-2.401 2.392 2.392 0 0 1-2.402 2.401zm0 20.414a1.4 1.4 0 0 1-1.467-1.401v-14.876a1.408 1.408 0 0 1 1.467-1.435 1.374 1.374 0 0 1 1.401 1.435v14.876a1.346 1.346 0 0 1-1.401 1.401zm10.376-14.877h-1.5v13.442a1.364 1.364 0 0 1-1.468 1.401 1.346 1.346 0 0 1-1.401-1.401v-13.442h-1.367a1.418 1.418 0 0 1 0-2.835h1.367v-2.27a3.801 3.801 0 0 1 3.836-3.769 1.418 1.418 0 1 1 0 2.835.934.934 0 0 0-.967.9v2.302h1.5a1.418 1.418 0 1 1 0 2.835z"/><use xlink:href="#Q" x="42.068"/><path d="M154.77 1045.497a3.403 3.403 0 0 1-3.336-3.402v-18.98a1.435 1.435 0 0 1 2.869-.033v19.013a.527.527 0 0 0 .467.567 1.418 1.418 0 1 1 0 2.835zm15.368-.067v-1.264c1.886-.237 2.046-.437 2.046-3.157v-6.7c0-2.8-1.248-4.017-3.064-4.017a5.597 5.597 0 0 0-3.47 1.493v9.476c0 2.527.187 2.658 2.06 2.896v1.264h-8.968v-1.264c2.254-.33 2.5-.4 2.5-3v-8.2c0-2.446-.303-2.565-2.185-2.922v-1.184a34.102 34.102 0 0 0 6.653-1.533l-.052 2.95 2.6-1.745a5.659 5.659 0 0 1 3.159-1.086c3.194 0 5.2 2.338 5.2 6.3v7.5c0 2.54.237 2.657 2.277 2.92v1.264zm23.9-3.702c-2.458 3.427-5.488 4.178-7.014 4.178-5.142 0-8.124-3.936-8.124-8.594a10.333 10.333 0 0 1 2.832-7.062 8.602 8.602 0 0 1 6.082-2.814 6.386 6.386 0 0 1 6.37 6.347c-.014.715-.08 1.277-.612 1.4-.767.184-6.17.5-10.318.647.062 4.587 2.717 6.74 5.556 6.74a6.776 6.776 0 0 0 4.543-1.866zm-7.07-12.7c-1.667 0-3.167 1.807-3.516 4.963l5.486-.118c.6-.026.848-.146.848-.792.04-2.022-1.037-4.053-2.818-4.053zm34.284.144c-1.943.343-2.248.624-3.105 2.765-1.33 3.462-3.102 8.53-4.934 13.94h-1.512l-4.65-11.46-4.55 11.46h-1.472l-4.685-14.192c-.687-1.985-.94-2.274-2.855-2.512v-1.25h9.397v1.25c-2.325.345-2.535.672-2.058 2.133l2.52 8.214c1.507-3.68 2.988-7.62 4.327-11.424h1.456c1.4 3.76 2.986 7.702 4.573 11.568.742-2.107 2.062-5.964 2.557-8.108.412-1.674-.008-2.078-2.753-2.383v-1.25h7.742zm9.4 3.748c-.92-2.606-2.155-3.984-4.2-3.984a2.166 2.166 0 0 0-2.225 2.266c0 1.497 1.046 2.264 3.16 3.216 3.278 1.496 5.3 2.787 5.3 5.736 0 3.85-3.6 5.764-6.945 5.764a12.073 12.073 0 0 1-4.92-1.161l-.662-4.892 1.252-.224c.8 2.5 2.33 4.75 4.976 4.75a2.231 2.231 0 0 0 2.438-2.281c0-1.423-.76-2.333-3.092-3.467-2.67-1.295-5.107-2.64-5.107-5.775 0-3.046 2.533-5.42 6.565-5.42a18.751 18.751 0 0 1 4.112.567l.62 4.577z"/></g><g fill="#fff"><path d="M929.025 1046.36c-1.2 0-3.22-.42-3.92-1.58a.482.482 0 0 1-.08-.3.546.546 0 0 1 1.021-.32 3.812 3.812 0 0 0 2.98 1.061c1.94 0 2.92-.64 2.92-1.94 0-3.02-6.562-1.42-6.562-5.422 0-2.02 2.02-2.8 3.84-2.8a5.415 5.415 0 0 1 3.44 1.16.558.558 0 0 1 .18.38.648.648 0 0 1-.62.6.531.531 0 0 1-.38-.16 4.001 4.001 0 0 0-2.62-.84c-1.76 0-2.7.68-2.7 1.66 0 2.8 6.562 1.32 6.562 5.422 0 2.28-2 3.08-4.06 3.08zm10.72-.042c-3.22 0-5.02-2.64-5.02-5.66 0-3 1.8-5.64 5.02-5.64s5.02 2.64 5.02 5.64c0 3.02-1.8 5.66-5.02 5.66zm0-10.162c-2.36 0-3.88 1.9-3.88 4.5s1.52 4.52 3.88 4.52c2.38 0 3.88-1.92 3.88-4.52s-1.5-4.5-3.88-4.5zm15.78 9.824a.562.562 0 0 1-.58-.561v-.64a4.442 4.442 0 0 1-3.421 1.54 4.61 4.61 0 0 1-4.561-4.561v-5.842a.57.57 0 0 1 1.14 0v5.842a3.421 3.421 0 0 0 6.842 0v-5.842a.57.57 0 0 1 1.141 0v9.502a.558.558 0 0 1-.561.561zm7.96-9.643a3.418 3.418 0 0 0-3.421 3.42v5.66a.57.57 0 0 1-1.141 0v-9.502a.57.57 0 0 1 1.141 0v.82a4.565 4.565 0 0 1 3.421-1.54.571.571 0 1 1 0 1.141zm10.18 8.46a4.645 4.645 0 0 1-3.58 1.521c-3.22 0-5.02-2.64-5.02-5.66 0-3 1.8-5.64 5.02-5.64a4.647 4.647 0 0 1 3.58 1.52.531.531 0 0 1 .16.381.627.627 0 0 1-.58.6.587.587 0 0 1-.42-.2 3.526 3.526 0 0 0-2.74-1.16c-2.36 0-3.88 1.9-3.88 4.5s1.52 4.52 3.88 4.52a3.596 3.596 0 0 0 2.74-1.16.587.587 0 0 1 .42-.2.594.594 0 0 1 .58.58.571.571 0 0 1-.16.399zm11.58-3.56h-8.302c.18 2.28 1.66 3.94 3.84 3.94a3.615 3.615 0 0 0 2.94-1.381.525.525 0 0 1 .479-.28.611.611 0 0 1 .62.541c0 .18 0 .22-.38.66a4.72 4.72 0 0 1-3.66 1.601c-3.22 0-5.02-2.64-5.02-5.66 0-3 1.8-5.64 5.02-5.64s5.02 2.66 5.02 5.64a.606.606 0 0 1-.56.58zm-4.46-5.08c-2.4 0-3.66 1.84-3.84 3.94h7.7c-.18-2.28-1.66-3.94-3.86-3.94zm8.437 3.26a1.14 1.14 0 1 1 0-2.28 1.14 1.14 0 0 1 0 2.28zm0 6.562a1.14 1.14 0 1 1 0-2.28 1.14 1.14 0 0 1 0 2.28z"/><use xlink:href="#R"/><path d="M1019.625 1045.998a.616.616 0 0 1-.48-.319l-7.82-11.543v11.282a.571.571 0 0 1-1.141 0v-13.122a.569.569 0 0 1 1.08-.28l7.822 11.542v-11.262a.57.57 0 0 1 1.14 0v13.122a.597.597 0 0 1-.6.58zm9.82-.018h-5.802a.606.606 0 0 1-.58-.561v-13.122a.495.495 0 0 1 .521-.561h5.42a3.616 3.616 0 0 1 3.601 3.561 3.471 3.471 0 0 1-1.42 2.861 4.1 4.1 0 0 1-1.74 7.821zm-.44-13.123h-4.8v4.92h4.8a2.461 2.461 0 1 0 0-4.921zm.44 6.062h-5.24v5.92h5.24a2.961 2.961 0 1 0 0-5.921z"/><use xlink:href="#R" x="37.978"/><path d="M195.07 80.38c-4.38 0-10.5-1.8-13.92-4.98a2.402 2.402 0 0 1-.84-1.86 2.599 2.599 0 0 1 2.58-2.58c.9 0 1.2.3 2.28 1.14a16.241 16.241 0 0 0 9.899 3.18c7.14 0 10.26-2.58 10.26-7.02 0-12.48-23.94-5.4-23.94-21.72 0-7.32 6.18-10.98 14.1-10.98 4.14 0 10.08 1.62 13.02 5.1a2.367 2.367 0 0 1 .66 1.62 2.795 2.795 0 0 1-2.58 2.7c-.9 0-1.38-.42-2.4-1.32a13.179 13.179 0 0 0-8.699-2.94c-6.48 0-8.94 2.58-8.94 5.82 0 11.22 23.938 4.56 23.938 21.72 0 8.94-7.5 12.12-15.42 12.12zm43.38-4.56a13.937 13.937 0 0 1-10.74 4.56c-9.66 0-15.06-7.92-15.06-16.98 0-9 5.4-16.92 15.06-16.92a13.937 13.937 0 0 1 10.74 4.56 2.618 2.618 0 0 1 .72 1.74 2.794 2.794 0 0 1-2.7 2.58 2.838 2.838 0 0 1-1.859-.84 8.816 8.816 0 0 0-6.9-2.94c-6 0-9.9 4.68-9.9 11.82 0 7.2 3.9 11.88 9.9 11.88a8.924 8.924 0 0 0 6.9-2.939 2.395 2.395 0 0 1 1.859-.9 2.59 2.59 0 0 1 1.98 4.38z"/><use xlink:href="#S"/><use xlink:href="#T"/><path d="M297.427 79.482a6.122 6.122 0 0 1-6-6.12v-34.14a2.58 2.58 0 0 1 5.16-.06V73.36a.947.947 0 0 0 .84 1.02 2.55 2.55 0 1 1 0 5.1zm35.22-.122a5.839 5.839 0 0 1-5.34-3.42 13.748 13.748 0 0 1-10.56 4.44c-9.78 0-15.06-8.04-15.06-16.98s5.4-16.92 15.06-16.92a13.259 13.259 0 0 1 9.899 3.96v-.24a2.476 2.476 0 0 1 2.52-2.7 2.412 2.412 0 0 1 2.641 2.52v23.16a.971.971 0 0 0 .84 1.08 2.55 2.55 0 1 1 0 5.1zm-15.9-27.78c-6 0-9.9 4.68-9.9 11.82 0 7.2 3.9 11.88 9.9 11.88 6.06 0 9.9-4.68 9.9-11.88 0-7.14-3.84-11.82-9.9-11.82z"/><use xlink:href="#U"/><path d="M397.505 79.3a2.436 2.436 0 0 1-2.58-2.52 14.518 14.518 0 0 1-9.899 3.6c-9.66 0-15.06-7.92-15.06-16.98 0-9 5.4-16.92 15.06-16.92a13.224 13.224 0 0 1 9.899 3.9V39.22a2.58 2.58 0 0 1 5.16-.06v37.62a2.437 2.437 0 0 1-2.58 2.52zm-12.48-27.72c-6 0-9.9 4.68-9.9 11.82 0 7.2 3.9 11.88 9.9 11.88 6.06 0 9.9-4.68 9.9-11.88 0-7.14-3.84-11.82-9.9-11.82zm49.92 28.8c-13.2 0-17.46-11.1-17.46-22.38 0-11.58 4.56-22.44 17.46-22.44 5.46 0 10.02 1.92 13.32 6.54a2.554 2.554 0 0 1 .54 1.5 2.873 2.873 0 0 1-2.88 2.58c-1.08 0-1.2-.48-2.16-1.56-1.92-2.34-4.5-3.9-8.82-3.9-9.24 0-12.3 7.86-12.3 17.28 0 8.22 2.22 17.28 12.3 17.28 7.32 0 11.7-5.22 12.12-13.86h-5.4a2.501 2.501 0 0 1-2.64-2.58 2.471 2.471 0 0 1 2.52-2.58h8.22a2.52 2.52 0 0 1 2.64 2.64c-.24 11.22-4.74 21.48-17.46 21.48z"/><use xlink:href="#V"/><use xlink:href="#U" x="151.437"/><use xlink:href="#W"/><use xlink:href="#X"/><path d="M601.13 79.36a5.839 5.839 0 0 1-5.34-3.42 13.746 13.746 0 0 1-10.56 4.44c-9.78 0-15.06-8.04-15.06-16.98s5.4-16.92 15.06-16.92a13.261 13.261 0 0 1 9.9 3.96v-.24a2.475 2.475 0 0 1 2.52-2.7 2.412 2.412 0 0 1 2.64 2.52v23.16a.971.971 0 0 0 .84 1.08 2.55 2.55 0 1 1 0 5.1zm-15.9-27.78c-6 0-9.9 4.68-9.9 11.82 0 7.2 3.9 11.88 9.9 11.88 6.06 0 9.9-4.68 9.9-11.88 0-7.14-3.84-11.82-9.9-11.82z"/><use xlink:href="#T" x="330.762"/><use xlink:href="#V" x="165.466"/><use xlink:href="#Y"/><path d="M721.308 79.36h-24.96a2.601 2.601 0 0 1-2.64-2.52V39.223a2.612 2.612 0 0 1 2.64-2.58h24.96a2.425 2.425 0 0 1 2.52 2.52 2.504 2.504 0 0 1-2.52 2.58h-22.44v12.12h15.72a2.561 2.561 0 0 1 2.58 2.58 2.523 2.523 0 0 1-2.58 2.58h-15.72v15.24h22.44a2.471 2.471 0 0 1 2.52 2.58 2.425 2.425 0 0 1-2.52 2.52z"/><use xlink:href="#U" x="389.202"/><use xlink:href="#S" x="517.3"/><path d="M818.327 79.42a2.446 2.446 0 0 1-2.52-1.98 13.967 13.967 0 0 1-8.64 3 13.79 13.79 0 0 1-13.68-13.68V50.14a2.58 2.58 0 0 1 5.16-.06v16.68a8.549 8.549 0 1 0 17.099 0V50.14a2.393 2.393 0 0 1 2.521-2.64 2.454 2.454 0 0 1 2.58 2.58V76.9a2.39 2.39 0 0 1-2.521 2.52zm21.6 13.62c-3.66 0-12.72-1.32-12.72-4.92a2.794 2.794 0 0 1 2.58-2.7c1.38 0 .18.18 3.36 1.38a18.754 18.754 0 0 0 6.78 1.14c6.66 0 9.9-3.18 9.9-9.48v-2.7a14.038 14.038 0 0 1-9.899 3.6c-9.48 0-15.06-6.72-15.06-15.96 0-9 5.4-16.92 15.06-16.92 4.2 0 7.44 1.26 9.9 3.84v-.24a2.553 2.553 0 0 1 2.58-2.58 2.519 2.519 0 0 1 2.58 2.58v28.38c0 9.54-5.7 14.58-15.06 14.58zm0-41.46c-6 0-9.9 4.68-9.9 11.82 0 6.84 3.6 10.86 9.9 10.86s9.9-4.02 9.9-10.86c0-7.14-3.84-11.82-9.9-11.82zm45.96 27.78a2.423 2.423 0 0 1-2.52-2.52V60.16a8.55 8.55 0 1 0-17.1 0v16.62a2.55 2.55 0 0 1-2.64 2.64 2.472 2.472 0 0 1-2.52-2.58V39.223a2.58 2.58 0 0 1 5.159-.06v10.38a12.098 12.098 0 0 1 8.52-3.06 13.79 13.79 0 0 1 13.68 13.68v16.62a2.454 2.454 0 0 1-2.58 2.58zm-736.3 21.663l-9.9 37.438a2.277 2.277 0 0 1-2.46 2.1 2.542 2.542 0 0 1-2.579-2.1l-8.1-28.74-8.04 28.74a2.483 2.483 0 0 1-2.52 2.1 2.405 2.405 0 0 1-2.521-2.1l-9.9-37.438a3.557 3.557 0 0 1-.12-.84 2.504 2.504 0 0 1 2.7-2.34 2.45 2.45 0 0 1 2.399 1.86l7.56 28.62 7.92-28.38a2.598 2.598 0 0 1 5.1 0l7.92 28.38 7.56-28.62a2.671 2.671 0 0 1 2.46-1.98 2.547 2.547 0 0 1 2.64 2.46 3.559 3.559 0 0 1-.119.84zm6.3 2.82a4.32 4.32 0 1 1 4.32-4.319 4.302 4.302 0 0 1-4.32 4.319zm0 36.72a2.52 2.52 0 0 1-2.64-2.52v-26.76a2.533 2.533 0 0 1 2.64-2.58 2.472 2.472 0 0 1 2.521 2.58v26.76a2.421 2.421 0 0 1-2.521 2.52zm33.658-.001a2.423 2.423 0 0 1-2.52-2.52v-16.68a8.55 8.55 0 1 0-17.1 0v16.62a2.55 2.55 0 0 1-2.64 2.64 2.472 2.472 0 0 1-2.52-2.58v-26.82a2.387 2.387 0 0 1 2.52-2.52 2.509 2.509 0 0 1 2.58 1.98 13.702 13.702 0 0 1 22.259 10.68v16.62a2.454 2.454 0 0 1-2.58 2.58zm34.32-.06a2.436 2.436 0 0 1-2.58-2.52 14.518 14.518 0 0 1-9.899 3.6c-9.66 0-15.06-7.92-15.06-16.98 0-9 5.4-16.92 15.06-16.92a13.224 13.224 0 0 1 9.899 3.9v-11.16a2.58 2.58 0 0 1 5.16-.06v37.618a2.437 2.437 0 0 1-2.58 2.52zm-12.48-27.72c-6 0-9.9 4.68-9.9 11.82 0 7.2 3.9 11.88 9.9 11.88 6.06 0 9.9-4.68 9.9-11.88 0-7.14-3.84-11.82-9.9-11.82zm61.078 27.78h-24.96a2.602 2.602 0 0 1-2.64-2.52v-37.618a2.612 2.612 0 0 1 2.64-2.58h24.96a2.425 2.425 0 0 1 2.521 2.52 2.505 2.505 0 0 1-2.521 2.58h-22.438v12.12h15.72a2.561 2.561 0 0 1 2.58 2.58 2.523 2.523 0 0 1-2.58 2.58h-15.72v15.24h22.438a2.471 2.471 0 0 1 2.521 2.58 2.425 2.425 0 0 1-2.521 2.52z"/><use xlink:href="#U" x="-60.482" y="61.202"/><use xlink:href="#W" x="-211.92" y="61.2"/><use xlink:href="#X" x="-211.92" y="61.2"/><path d="M374.703 154.24c-3.66 0-12.72-1.32-12.72-4.92a2.794 2.794 0 0 1 2.579-2.7c1.38 0 .18.18 3.36 1.38a18.743 18.743 0 0 0 6.779 1.14c6.66 0 9.9-3.18 9.9-9.48v-2.7a14.04 14.04 0 0 1-9.9 3.6c-9.48 0-15.06-6.72-15.06-15.96 0-9 5.4-16.92 15.06-16.92 4.2 0 7.44 1.26 9.9 3.84v-.24a2.553 2.553 0 0 1 2.579-2.58 2.519 2.519 0 0 1 2.58 2.58v28.38c0 9.54-5.7 14.58-15.06 14.58zm0-41.458c-6 0-9.9 4.68-9.9 11.82 0 6.84 3.6 10.86 9.9 10.86s9.9-4.02 9.9-10.86c0-7.14-3.84-11.82-9.9-11.82zm47.76-.48l-16.2 36.838a6.875 6.875 0 0 1-6.6 4.02h-1.92a2.42 2.42 0 0 1-2.52-2.64 2.387 2.387 0 0 1 2.52-2.52h1.86c.78 0 1.62-.12 1.98-.96l3.96-8.88-11.7-25.86a2.163 2.163 0 0 1-.3-1.14 2.705 2.705 0 0 1 2.76-2.52 2.311 2.311 0 0 1 2.16 1.56l9.78 21.72 9.54-21.72a2.376 2.376 0 0 1 2.221-1.5 2.659 2.659 0 0 1 2.76 2.46 2.043 2.043 0 0 1-.3 1.14zm25.92 28.26h-1.02c-5.7 0-7.86-3-7.86-7.92v-18.84h-1.8a2.55 2.55 0 0 1-.061-5.1h1.8v-8.34a2.437 2.437 0 0 1 2.58-2.52 2.39 2.39 0 0 1 2.521 2.52v8.34h3.84a2.487 2.487 0 0 1 2.52 2.52 2.441 2.441 0 0 1-2.52 2.58h-3.84v19.38c0 1.68.6 2.28 2.28 2.28h1.5a2.475 2.475 0 0 1 2.58 2.52 2.441 2.441 0 0 1-2.52 2.58z"/><use xlink:href="#S" x="210.652" y="61.202"/><path d="M517.68 122.082h-12.84v15.9a2.58 2.58 0 0 1-5.16.06v-37.618a2.491 2.491 0 0 1 2.52-2.58h15.54c5.28 0 12.06 4.14 12.06 12.06a12.099 12.099 0 0 1-12.12 12.179zm0-19.14h-12.84v14.04h12.78a7.02 7.02 0 0 0 .06-14.04z"/><use xlink:href="#S" x="287.632" y="61.202"/><path d="M604.257 112.123l-9.3 26.34a2.726 2.726 0 0 1-2.64 2.1c-1.26 0-1.98-.54-2.52-2.1l-7.02-19.8-7.08 19.8a2.598 2.598 0 0 1-5.1 0l-9.24-26.34a2.64 2.64 0 0 1-.12-.96 2.585 2.585 0 0 1 2.641-2.46 2.378 2.378 0 0 1 2.34 1.68l6.96 20.04 7.08-19.62c.48-1.38 1.08-2.1 2.52-2.1 1.32 0 2.04.66 2.52 2.1l7.02 19.62 7.02-20.04a2.359 2.359 0 0 1 2.28-1.68 2.666 2.666 0 0 1 2.76 2.52 2.484 2.484 0 0 1-.12.9zm29.22 15.12h-22.2c.84 5.64 4.44 9.24 9.72 9.24a9.004 9.004 0 0 0 7.14-3.12 2.484 2.484 0 0 1 1.86-.96 2.8 2.8 0 0 1 2.7 2.64c0 .72-.18 1.26-1.44 2.52a14.622 14.622 0 0 1-10.26 4.02c-9.66 0-15.06-7.98-15.06-16.98 0-8.94 5.4-16.92 15.06-16.92 9.78 0 15 7.98 15 16.92a2.558 2.558 0 0 1-2.52 2.64zm-12.48-14.46c-5.64 0-8.94 4.14-9.72 9.3h19.44c-.84-5.76-4.44-9.3-9.72-9.3z"/><use xlink:href="#X" x="84.534" y="61.2"/><path d="M699.955 140.562a2.456 2.456 0 0 1-2.279-1.56l-3.18-7.8h-19.98l-3.24 7.8a2.439 2.439 0 0 1-2.22 1.56 2.651 2.651 0 0 1-2.7-2.52 1.976 1.976 0 0 1 .24-1.02l15.42-37.498a2.622 2.622 0 0 1 2.46-1.86 2.724 2.724 0 0 1 2.46 1.86l15.48 37.498a2.802 2.802 0 0 1 .18 1.02 2.561 2.561 0 0 1-2.64 2.52zm-15.48-33.6l-7.86 19.08h15.72z"/><use xlink:href="#Z"/><use xlink:href="#Z" x="11.28"/><path d="M747.474 140.562h-6.9a2.55 2.55 0 0 1 0-5.1h.9v-32.52h-.9a2.55 2.55 0 0 1 0-5.1h6.9a2.551 2.551 0 1 1 0 5.1h-.9v32.52h.9a2.551 2.551 0 1 1 0 5.1zm16.8 0h-1.02c-5.7 0-7.86-3-7.86-7.92v-18.84h-1.8a2.55 2.55 0 0 1-.061-5.1h1.8v-8.34a2.437 2.437 0 0 1 2.58-2.52 2.39 2.39 0 0 1 2.52 2.52v8.34h3.84a2.487 2.487 0 0 1 2.52 2.52 2.441 2.441 0 0 1-2.52 2.58h-3.84v19.38c0 1.68.6 2.28 2.28 2.28h1.5a2.475 2.475 0 0 1 2.58 2.52 2.441 2.441 0 0 1-2.52 2.58zm15.54 1.02c-3.3 0-8.82-1.02-11.64-4.5a2.655 2.655 0 0 1 2.16-4.26 2.463 2.463 0 0 1 1.859 1.02c1.86 2.04 4.92 2.64 7.62 2.64 5.4 0 7.14-1.86 7.14-4.56 0-7.68-18.3-2.94-18.3-15.3 0-6.54 6.12-8.94 11.82-8.94 3.24 0 10.86 1.62 10.86 4.98a2.694 2.694 0 0 1-2.521 2.7 3.609 3.609 0 0 1-1.979-.78c-1.62-1.38-3.96-1.8-6.36-1.8-4.98 0-6.72 1.86-6.72 3.84 0 7.14 18.36 2.52 18.36 15.3 0 7.08-5.94 9.66-12.3 9.66zm55.977-1.02a2.52 2.52 0 0 1-2.64-2.52v-17.82h-19.8v17.82a2.58 2.58 0 0 1-5.159 0v-37.678a2.58 2.58 0 0 1 5.159 0v14.76h19.8v-14.7a2.58 2.58 0 1 1 5.159 0v37.558a2.541 2.541 0 0 1-2.52 2.58z"/><use xlink:href="#S" x="601.184" y="61.202"/><path d="M915.77 140.562a2.457 2.457 0 0 1-2.521-2.52v-18.9a6.33 6.33 0 1 0-12.659-.06v18.9a2.454 2.454 0 0 1-2.58 2.58 2.423 2.423 0 0 1-2.52-2.52v-18.9a6.36 6.36 0 0 0-12.72-.06v18.9a2.501 2.501 0 0 1-2.64 2.58 2.456 2.456 0 0 1-2.52-2.52v-26.82a2.632 2.632 0 0 1 4.8-1.44 11.557 11.557 0 0 1 6.659-2.1 11.358 11.358 0 0 1 8.939 4.26 11.241 11.241 0 0 1 8.88-4.26 11.459 11.459 0 0 1 11.52 11.4v18.9a2.501 2.501 0 0 1-2.64 2.58z"/><use xlink:href="#V" x="466.906" y="61.2"/><use xlink:href="#Y" x="301.44" y="61.202"/><path d="M313.2 162.846h-7.37v23.86a1.047 1.047 0 0 1-1.102 1.063 1.035 1.035 0 0 1-1.064-1.063v-23.86h-7.37a1.065 1.065 0 1 1 0-2.128h16.907a1.064 1.064 0 0 1 0 2.128zm17.5 24.924a1.067 1.067 0 0 1-1.102-1.063V185.5a8.44 8.44 0 0 1-6.497 2.925 8.758 8.758 0 0 1-8.663-8.662v-11.095a1.083 1.083 0 0 1 2.166 0v11.095a6.497 6.497 0 1 0 12.994 0v-11.095a1.083 1.083 0 0 1 2.166 0v18.048a1.059 1.059 0 0 1-1.064 1.063z"/><use xlink:href="#a"/><path d="M357.72 188.415a8.619 8.619 0 0 1-7.371-3.609v1.9a1.083 1.083 0 0 1-2.166 0V161.78a1.083 1.083 0 0 1 2.166 0v8.74a8.686 8.686 0 0 1 7.371-3.572c6.117 0 9.536 5.016 9.536 10.715 0 5.737-3.42 10.752-9.536 10.752zm0-19.3c-4.52 0-7.37 3.6-7.37 8.55s2.85 8.587 7.37 8.587 7.37-3.647 7.37-8.587-2.85-8.55-7.37-8.55zm14.403-5.168a2.166 2.166 0 1 1 2.165-2.166 2.141 2.141 0 0 1-2.165 2.166zm0 23.822a1.045 1.045 0 0 1-1.103-1.063v-18.048a1.047 1.047 0 0 1 1.103-1.063 1.034 1.034 0 0 1 1.063 1.063v18.048a1.016 1.016 0 0 1-1.063 1.063z"/><use xlink:href="#b"/><use xlink:href="#c"/><path d="M427.753 188.49c-2.28 0-6.117-.798-7.447-3a.922.922 0 0 1-.151-.57 1.036 1.036 0 0 1 1.938-.607c1.367 1.67 3.8 2.014 5.66 2.014 3.686 0 5.547-1.216 5.547-3.686 0-5.737-12.462-2.698-12.462-10.297 0-3.837 3.837-5.32 7.295-5.32 1.976 0 5.016.685 6.535 2.204a1.064 1.064 0 0 1 .342.722 1.232 1.232 0 0 1-1.178 1.14 1.006 1.006 0 0 1-.722-.304 7.599 7.599 0 0 0-4.978-1.596c-3.344 0-5.13 1.292-5.13 3.153 0 5.32 12.462 2.508 12.462 10.297 0 4.33-3.8 5.85-7.713 5.85z"/><use xlink:href="#d"/><use xlink:href="#b" x="91.388"/><use xlink:href="#e"/><use xlink:href="#a" x="173.695"/><use xlink:href="#f"/><path d="M560.096 185.528a8.825 8.825 0 0 1-6.801 2.887c-6.117 0-9.536-5.015-9.536-10.752 0-5.7 3.42-10.715 9.536-10.715a8.826 8.826 0 0 1 6.801 2.888 1.006 1.006 0 0 1 .305.722 1.191 1.191 0 0 1-1.103 1.141 1.123 1.123 0 0 1-.798-.38 6.696 6.696 0 0 0-5.205-2.204c-4.483 0-7.37 3.6-7.37 8.55s2.888 8.587 7.37 8.587a6.826 6.826 0 0 0 5.205-2.204 1.079 1.079 0 0 1 1.9.722 1.089 1.089 0 0 1-.305.761zm18.316-16.072l-6.534 6.535 6.46 10.106a1.083 1.083 0 0 1 .228.608 1.155 1.155 0 0 1-1.14 1.025 1.077 1.077 0 0 1-.912-.494l-6.23-9.688-3.913 3.95v5.206a1.083 1.083 0 0 1-2.166 0V161.78a1.083 1.083 0 0 1 2.166 0v16.642l10.486-10.486a1.068 1.068 0 0 1 .798-.342 1.096 1.096 0 0 1 1.103 1.063 1.064 1.064 0 0 1-.343.798z"/><use xlink:href="#e" x="90.849"/><use xlink:href="#d" x="153.688"/><path d="M640.122 196.433c-3.23 0-7.79-1.216-7.79-2.584a1.206 1.206 0 0 1 1.103-1.216 13.689 13.689 0 0 1 2.014.912 14.236 14.236 0 0 0 4.673.722c4.863 0 7.37-2.394 7.37-7.067v-2.66a9.072 9.072 0 0 1-7.371 3.229c-6.003 0-9.536-4.256-9.536-10.106 0-5.7 3.42-10.715 9.536-10.715a8.686 8.686 0 0 1 7.371 3.572v-1.824a1.083 1.083 0 0 1 2.166 0V187.2c0 6.04-3.6 9.233-9.537 9.233zm0-27.318c-4.483 0-7.37 3.61-7.37 8.55 0 4.9 2.698 7.94 7.37 7.94s7.37-3.04 7.37-7.94c0-4.94-2.85-8.55-7.37-8.55z"/><use xlink:href="#c" x="254.853"/><use xlink:href="#b" x="298.438"/><path d="M715.02 178.765H699.25c.342 4.332 3.153 7.485 7.295 7.485a6.866 6.866 0 0 0 5.585-2.622.997.997 0 0 1 .912-.531 1.161 1.161 0 0 1 1.178 1.025c0 .342 0 .418-.722 1.254a8.969 8.969 0 0 1-6.953 3.039c-6.117 0-9.536-5.015-9.536-10.752 0-5.7 3.42-10.715 9.536-10.715s9.537 5.054 9.537 10.715a1.15 1.15 0 0 1-1.064 1.102zm-8.473-9.65c-4.56 0-6.953 3.495-7.295 7.485h14.628c-.342-4.332-3.153-7.485-7.333-7.485z"/><use xlink:href="#a" x="383.443"/><use xlink:href="#f" x="209.748"/><use xlink:href="#e" x="254.998"/><use xlink:href="#g"/><path d="M252.173 233.37h-12.425a1.095 1.095 0 0 1-1.102-1.063 1.076 1.076 0 0 1 .229-.608l11.322-15.995a5.361 5.361 0 0 0 .874-2.85 5.011 5.011 0 0 0-4.978-5.054c-3.61 0-5.054 3.95-6.08 3.95a1.164 1.164 0 0 1-1.178-1.063c0-.874 2.888-5.054 7.257-5.054a7.151 7.151 0 0 1 7.143 7.105 7.279 7.279 0 0 1-1.33 4.18l-10.068 14.285h10.335a1.083 1.083 0 0 1 0 2.166z"/><use xlink:href="#h"/><use xlink:href="#i"/><use xlink:href="#h" x="28.5"/><use xlink:href="#h" x="48.106"/><use xlink:href="#h" x="67.716"/><use xlink:href="#i" x="67.715"/><use xlink:href="#h" x="96.216"/><use xlink:href="#h" x="115.822"/><use xlink:href="#h" x="135.431"/><path d="M445.36 233.37a1.037 1.037 0 0 1-1.063-1.063V219.54a4.844 4.844 0 0 0-9.688-.038v12.805a1.037 1.037 0 0 1-1.063 1.063 1.068 1.068 0 0 1-1.103-1.063V219.54a4.825 4.825 0 0 0-9.65-.038v12.805a1.083 1.083 0 0 1-2.166 0V214.26a1.083 1.083 0 0 1 2.166 0v.23a6.906 6.906 0 0 1 4.825-1.938 7.048 7.048 0 0 1 5.928 3.229 7.013 7.013 0 0 1 12.918 3.724v12.805a1.068 1.068 0 0 1-1.103 1.063z"/><use xlink:href="#g" x="-314.337" y="45.6"/><path d="M481.386 242.033c-3.23 0-7.79-1.216-7.79-2.584a1.206 1.206 0 0 1 1.103-1.216 13.689 13.689 0 0 1 2.014.912 14.236 14.236 0 0 0 4.673.722c4.863 0 7.37-2.394 7.37-7.067v-2.66a9.072 9.072 0 0 1-7.371 3.229c-6.003 0-9.536-4.255-9.536-10.106 0-5.7 3.42-10.715 9.536-10.715a8.686 8.686 0 0 1 7.371 3.572v-1.824a1.083 1.083 0 0 1 2.166 0V232.8c0 6.042-3.6 9.233-9.537 9.233zm0-27.318c-4.483 0-7.37 3.61-7.37 8.55 0 4.9 2.698 7.94 7.37 7.94s7.37-3.04 7.37-7.94c0-4.94-2.85-8.55-7.37-8.55z"/><use xlink:href="#f" x="-25.435" y="45.6"/><path d="M544.198 214.6l-6.193 17.857c-.266.722-.607.912-1.102.912-.646 0-.836-.228-1.064-.912l-4.977-14.817-4.978 14.817c-.266.722-.608.912-1.102.912a1.111 1.111 0 0 1-1.064-.912l-6.155-17.857a1.645 1.645 0 0 1-.075-.418 1.079 1.079 0 0 1 1.102-.987.986.986 0 0 1 .988.722l5.205 15.046 4.977-14.855c.23-.723.456-.912 1.103-.912.456 0 .836.15 1.063.912l5.054 14.855 5.13-15.046a.986.986 0 0 1 .988-.722 1.028 1.028 0 0 1 1.102 1.405z"/><use xlink:href="#f" x="26.168" y="45.6"/><use xlink:href="#j"/><use xlink:href="#j" x="10.716"/><path d="M617.044 233.37a1.068 1.068 0 0 1-1.102-1.063v-11.095a6.497 6.497 0 1 0-12.994 0v11.095a1.083 1.083 0 0 1-2.166 0v-24.925a1.083 1.083 0 0 1 2.166 0v8.093a8.44 8.44 0 0 1 6.497-2.926 8.734 8.734 0 0 1 8.663 8.663v11.095a1.059 1.059 0 0 1-1.064 1.063z"/><use xlink:href="#d" x="175.156" y="45.601"/><path d="M660.288 233.37a1.068 1.068 0 0 1-1.102-1.063v-1.216a8.44 8.44 0 0 1-6.497 2.925 8.758 8.758 0 0 1-8.663-8.662V214.26a1.083 1.083 0 0 1 2.166 0v11.095a6.497 6.497 0 0 0 12.994 0V214.26a1.083 1.083 0 0 1 2.166 0v18.048a1.059 1.059 0 0 1-1.064 1.063z"/><use xlink:href="#k"/><path d="M684.116 234.092c-2.28 0-6.117-.798-7.447-3a.922.922 0 0 1-.151-.57 1.036 1.036 0 0 1 1.938-.607c1.367 1.67 3.8 2.014 5.66 2.014 3.686 0 5.547-1.216 5.547-3.686 0-5.737-12.462-2.698-12.462-10.297 0-3.837 3.837-5.32 7.295-5.32 1.976 0 5.015.684 6.535 2.204a1.064 1.064 0 0 1 .342.722 1.232 1.232 0 0 1-1.178 1.14 1.006 1.006 0 0 1-.722-.304 7.598 7.598 0 0 0-4.978-1.596c-3.344 0-5.13 1.292-5.13 3.153 0 5.32 12.462 2.508 12.462 10.297 0 4.33-3.8 5.85-7.713 5.85zm29.03-.076a8.619 8.619 0 0 1-7.371-3.609v9.84a1.083 1.083 0 1 1-2.166 0V214.26a1.083 1.083 0 0 1 2.166 0v1.862a8.686 8.686 0 0 1 7.371-3.572c6.117 0 9.536 5.016 9.536 10.715 0 5.737-3.42 10.752-9.536 10.752zm0-19.3c-4.52 0-7.37 3.6-7.37 8.55s2.85 8.587 7.37 8.587 7.37-3.647 7.37-8.587-2.85-8.55-7.37-8.55z"/><use xlink:href="#g" x="-38.649" y="45.6"/><use xlink:href="#k" x="82.421"/><path d="M785.115 214.715l-10.297 24.354c-.76 1.786-2.317 2.28-4.065 2.28h-1.67a1.083 1.083 0 0 1 0-2.165h1.67c.836 0 1.7-.038 2.052-.912l2.166-5.167-7.864-18.4a1.204 1.204 0 0 1-.076-.494 1.062 1.062 0 0 1 1.102-1.025.976.976 0 0 1 .95.645l7.066 16.49 6.99-16.49a.99.99 0 0 1 .988-.645 1.03 1.03 0 0 1 1.063 1.025 1.204 1.204 0 0 1-.076.494z"/><use xlink:href="#g" x="21.994" y="45.6"/><use xlink:href="#f" x="288.058" y="45.6"/><use xlink:href="#k" x="166.7"/></g></svg>