<svg xmlns="http://www.w3.org/2000/svg" xmlns:xlink="http://www.w3.org/1999/xlink" viewBox="0 0 1080 1080" xmlns:v="https://vecta.io/nano"><style><![CDATA[.S{opacity:.6}.T{fill:#fff}.U{stroke-miterlimit:10}]]></style><radialGradient id="A" cx="540" cy="540" r="540" gradientUnits="userSpaceOnUse"><stop offset="0" stop-color="#0f0c29"/><stop offset=".227" stop-color="#1f1b45"/><stop offset=".5" stop-color="#302b63"/><stop offset=".532" stop-color="#2f2a60"/><stop offset=".823" stop-color="#272647"/><stop offset="1" stop-color="#24243e"/></radialGradient><path d="M1040 1080H40c-22.09 0-40-17.91-40-40V40C0 17.91 17.91 0 40 0h1000c22.09 0 40 17.91 40 40v1000c0 22.09-17.91 40-40 40z" fill="url(#A)"/><path d="M543.397 854.512h77.1l-38.544-66.76zm-83.914 0h77.1l-38.545-66.76zm83.914 3.94l38.545 66.76 38.544-66.76zm-83.914 0l38.544 66.76 38.545-66.76zm41.957-76.612h77.1l-38.544-66.76zm83.914 3.94l38.544 66.76 38.545-66.76zm-83.914 0l38.545 66.76 38.544-66.76zm0 141.403h77.1l-38.544-66.76zm0 3.94l38.545 66.762 38.544-66.762zM417.526 785.78l38.545 66.76 38.544-66.76z" opacity=".2" class="T"/><linearGradient id="B" gradientUnits="userSpaceOnUse" x1="560.963" y1="349.751" x2="560.963" y2="781.84"><stop offset="0" stop-color="#aaffa9"/><stop offset=".113" stop-color="#93ffac"/><stop offset=".414" stop-color="#5cffb3"/><stop offset=".672" stop-color="#33ffb9"/><stop offset=".876" stop-color="#1affbc"/><stop offset="1" stop-color="#11ffbd"/></linearGradient><path d="M833.683 351.72l38.545 66.762h-77.1l38.545-66.762zm-38.545 70.702l38.545 66.76 38.545-66.76h-77.1zm-83.913 0l38.545 66.76 38.545-66.76h-77.1zm-83.915 0l38.545 66.76 38.545-66.76h-77.1zm-83.913 0l38.545 66.76 38.545-66.76h-77.1zm-83.914 0l38.545 66.76 38.545-66.76h-77.1zm-83.914 0l38.545 66.76 38.545-66.76h-77.1zm-83.914 0l38.545 66.76 38.545-66.76h-77.1zm419.57 141.402h77.1l-38.545-66.76-38.545 66.76zm-83.915 0h77.1l-38.545-66.76-38.545 66.76zm-83.913 0h77.1l-38.545-66.76-38.545 66.76zm-83.914 0h77.1l-38.545-66.76-38.545 66.76zm-83.914 0h77.1l-38.545-66.76-38.545 66.76zm-83.914 0h77.1l-38.545-66.76-38.545 66.76zm419.57 3.94l38.545 66.762 38.545-66.762h-77.1zm-83.915 0l38.545 66.762 38.545-66.762h-77.1zm-83.913 0l38.545 66.762 38.545-66.762h-77.1zm-83.914 0l38.545 66.762 38.545-66.762h-77.1zm-83.914 0l38.545 66.762 38.545-66.762h-77.1zM627.3 709.17h77.1l-38.545-66.76-38.545 66.76zm-83.913 0h77.1l-38.545-66.76-38.545 66.76zm-83.914 0h77.1l-38.545-66.76-38.545 66.76zm-83.914 0h77.1l-38.545-66.76-38.545 66.76zm251.74 3.94l38.545 66.76 38.545-66.76h-77.1zm-83.913 0l38.545 66.76 38.545-66.76h-77.1zm-83.914 0l38.545 66.76 38.545-66.76h-77.1zm-83.914 0l38.545 66.76 38.545-66.76h-77.1zm-83.914-145.344l38.545 66.762 38.545-66.762h-77.1zM207.74 422.423l38.545 66.76 38.545-66.76h-77.1zm629.354-72.672l38.545 66.762 38.545-66.762h-77.1zM753.18 491.154h77.1l-38.545-66.76-38.545 66.76zm-83.913 0h77.09l-38.545-66.76-38.544 66.76zm-83.914 0h77.1l-38.545-66.76-38.545 66.76zm-83.914 0h77.1l-38.545-66.76-38.545 66.76zm-83.914 0h77.1l-38.545-66.76-38.545 66.76zm-83.914 0h77.1l-38.545-66.76-38.545 66.76zm-83.914 0h77.1l-38.545-66.76-38.545 66.76zm503.483 3.94l38.545 66.76 38.545-66.76h-77.1zm-83.913 0l38.545 66.76 38.545-66.76h-77.1zm-83.914 0l38.545 66.76 38.545-66.76h-77.1zm-83.914 0l38.545 66.76 38.545-66.76h-77.1zm-83.914 0l38.545 66.76 38.545-66.76h-77.1zm-83.914 0l38.545 66.76 38.545-66.76h-77.1zm335.655 141.403h77.1l-38.545-66.762-38.545 66.762zm-83.913 0h77.1L623.9 569.735l-38.545 66.762zm-83.915 0h77.1l-38.545-66.762-38.545 66.762zm-83.913 0h77.1l-38.545-66.762-38.545 66.762zm-83.914 0h77.1l-38.545-66.762-38.545 66.762zm335.656 3.94l38.545 66.76 38.545-66.76h-77.1zm-83.914 0L623.9 707.2l38.545-66.76h-77.1zm-83.914 0l38.545 66.76 38.545-66.76h-77.1zm-83.914 0l38.545 66.76 38.545-66.76h-77.1zM585.354 781.84h77.1L623.9 715.08l-38.545 66.76zm-167.828 0h77.1l-38.545-66.76-38.545 66.76zm-83.914-141.402l38.545 66.76 38.545-66.76h-77.1zm-83.914-145.344l38.545 66.76 38.545-66.76h-77.1z" fill="url(#B)"/><linearGradient id="C" gradientUnits="userSpaceOnUse" x1="539.984" y1="277.079" x2="539.984" y2="418.483"><stop offset="0" stop-color="#ff8008"/><stop offset=".427" stop-color="#ffa621"/><stop offset=".783" stop-color="#ffbf31"/><stop offset="1" stop-color="#ffc837"/></linearGradient><path d="M200.917 277.08l-38.545 66.76-38.545-66.76h77.1zm6.824 0l38.545 66.76 38.545-66.76h-77.1zm83.914 0l38.545 66.76 38.545-66.76h-77.1zm83.914 0l38.545 66.76 38.545-66.76h-77.1zm83.914 0l38.545 66.76 38.545-66.76h-77.1zm83.914 0l38.545 66.76 38.545-66.76h-77.1zm83.913 0l38.545 66.76 38.545-66.76h-77.1zm83.915 0l38.545 66.76 38.545-66.76h-77.1zm83.913 0l38.545 66.76 38.545-66.76h-77.1zm83.914 0l38.545 66.76 38.545-66.76h-77.1zm-41.956 68.73h77.1l-38.545-66.76-38.545 66.76zm-83.915 0h77.1l-38.545-66.76-38.545 66.76zm-83.913 0h77.09l-38.545-66.76-38.544 66.76zm-83.914 0h77.1L623.9 279.05l-38.545 66.76zm-83.914 0h77.1l-38.545-66.76-38.545 66.76zm-83.914 0h77.1l-38.545-66.76-38.545 66.76zm-83.914 0h77.1l-38.545-66.76-38.545 66.76zm-83.914 0h77.1l-38.545-66.76-38.545 66.76zm-83.914 0h77.1l-38.545-66.76-38.545 66.76zm545.44 72.673h77.1L749.77 351.72l-38.545 66.762zm-83.915 0h77.1l-38.545-66.762-38.545 66.762zm-83.913 0h77.1l-38.545-66.762-38.545 66.762zm-83.914 0h77.1l-38.545-66.762-38.545 66.762zm-83.914 0h77.1l-38.545-66.762-38.545 66.762zm-83.914 0h77.1L330.2 351.72l-38.545 66.762zm-83.914 0h77.1l-38.545-66.762-38.545 66.762zm545.44-68.732l38.545 66.762 38.545-66.762h-77.1zm-83.914 0l38.545 66.762 38.545-66.762h-77.1zm-83.913 0l38.545 66.762 38.545-66.762h-77.1zm-83.915 0l38.545 66.762 38.545-66.762h-77.1zm-83.913 0l38.545 66.762 38.545-66.762h-77.1zm-83.914 0l38.545 66.762 38.545-66.762h-77.1zm-83.914 0l38.545 66.762 38.545-66.762h-77.1zm-83.914 0l38.545 66.762 38.545-66.762h-77.1z" fill="url(#C)"/><g opacity=".5" fill="none" stroke="#fff" stroke-width="2" class="U"><path d="M123.827 594.016v-1"/><path d="M123.827 587.073V281.05" stroke-dasharray="1.9807,5.9422"/><path d="M123.827 278.08v-1"/></g><g opacity=".5" fill="none" stroke="#fff" stroke-width="2" class="U"><path d="M865.886 858.452v-1"/><path d="M865.886 851.506v-425.1" stroke-dasharray="1.9819,5.9456"/><path d="M865.886 423.423v-1"/></g><g class="T"><path d="M43.726 636.067h-.707c-3.95 0-5.45-2.08-5.45-5.5v-13.062h-1.247c-1 0-1.8-.8-1.8-1.747 0-.998.8-1.788 1.747-1.788h1.248v-5.782c0-1.164.873-1.747 1.788-1.747s1.747.583 1.747 1.747v5.782h2.662c1.165 0 1.747.956 1.747 1.747 0 .998-.665 1.788-1.747 1.788h-2.662v13.436c0 1.165.416 1.58 1.58 1.58h1.04c1.08 0 1.788.8 1.788 1.746 0 1-.665 1.8-1.747 1.8zM57.454 616.8c-3.202 0-5.906 2.704-5.906 5.948v11.52c0 1.165-.873 1.8-1.83 1.8-.874 0-1.747-.624-1.747-1.747V615.77c0-1.164.957-1.788 1.747-1.788.832 0 1.622.457 1.788 1.414a9.63 9.63 0 0 1 5.948-2.12c1.207 0 1.83.832 1.83 1.788 0 .916-.624 1.748-1.83 1.748zm22.54 19.257c-2.288 0-3.328-1.622-3.702-2.37-1.664 1.83-4.076 3.078-7.32 3.078-6.78 0-10.44-5.573-10.44-11.77s3.744-11.73 10.44-11.73c2.912 0 5.24 1.04 6.863 2.745v-.167c0-.457.167-1.87 1.747-1.87.874 0 1.83.457 1.83 1.747v16.056c0 .54.375.75.583.75 1.164 0 1.788.83 1.788 1.788a1.71 1.71 0 0 1-1.788 1.746zM68.97 616.8c-4.16 0-6.863 3.244-6.863 8.194 0 5 2.704 8.236 6.863 8.236 4.2 0 6.863-3.245 6.863-8.236.001-4.95-2.66-8.194-6.863-8.194zm33.57 19.215c-.915 0-1.8-.582-1.8-1.747 0 0-2.454 2.496-6.863 2.496-6.696 0-10.44-5.5-10.44-11.77 0-6.24 3.744-11.73 10.44-11.73 2.912 0 5.24.998 6.863 2.703v-7.736c0-1.206.874-1.8 1.8-1.8s1.788.583 1.788 1.747v26.08c0 1.164-.873 1.746-1.788 1.746zm-8.653-19.216c-4.16 0-6.863 3.244-6.863 8.194 0 5 2.704 8.236 6.863 8.236 4.2 0 6.863-3.245 6.863-8.236.001-4.95-2.66-8.194-6.863-8.194z"/><use xlink:href="#E"/><path d="M124.507 636.067h-.707c-3.95 0-5.45-2.08-5.45-5.5v-13.062h-1.247c-1 0-1.79-.8-1.79-1.747 0-.998.8-1.788 1.747-1.788h1.248v-5.782c0-1.164.873-1.747 1.788-1.747s1.747.583 1.747 1.747v5.782h2.662c1.165 0 1.747.956 1.747 1.747 0 .998-.665 1.788-1.747 1.788h-2.662v13.436c0 1.165.416 1.58 1.58 1.58h1.04c1.08 0 1.788.8 1.788 1.746.001 1-.664 1.79-1.747 1.79z"/><use xlink:href="#E" x="19.76"/><path d="M146.72 636.774c-6.696 0-10.44-5.5-10.44-11.77 0-6.24 3.744-11.73 10.44-11.73s10.44 5.5 10.44 11.73c.001 6.28-3.742 11.77-10.44 11.77zm0-19.965c-4.16 0-6.863 3.244-6.863 8.194 0 5 2.704 8.236 6.863 8.236 4.2 0 6.863-3.245 6.863-8.236.001-4.95-2.66-8.194-6.863-8.194zm31.327 19.258c-.915 0-1.747-.624-1.747-1.747v-11.563c0-3.244-2.703-5.948-5.948-5.948-3.202 0-5.906 2.704-5.906 5.948v11.52c0 1.165-.873 1.83-1.83 1.83a1.71 1.71 0 0 1-1.747-1.789v-18.593c0-1.207.874-1.747 1.747-1.747.832 0 1.58.457 1.8 1.372a9.47 9.47 0 0 1 5.947-2.08c5.158 0 9.484 4.284 9.484 9.483v11.52c0 1.166-.832 1.8-1.8 1.8zm26.583 0c-2.288 0-3.328-1.622-3.702-2.37-1.664 1.83-4.076 3.078-7.32 3.078-6.78 0-10.44-5.573-10.44-11.77s3.744-11.73 10.44-11.73c2.912 0 5.24 1.04 6.863 2.745v-.167c0-.457.167-1.87 1.747-1.87.874 0 1.83.457 1.83 1.747v16.056c0 .54.375.75.583.75 1.164 0 1.788.83 1.788 1.788a1.71 1.71 0 0 1-1.788 1.746zm-11.024-19.258c-4.16 0-6.863 3.244-6.863 8.194 0 5 2.704 8.236 6.863 8.236 4.2 0 6.863-3.245 6.863-8.236 0-4.95-2.662-8.194-6.863-8.194zm19.347 19.34c-2.246 0-4.16-1.913-4.16-4.242V608.24c0-1.206.874-1.8 1.8-1.8s1.8.583 1.8 1.747v23.7c0 .5.374.707.582.707 1.164 0 1.788.832 1.788 1.788 0 .915-.624 1.747-1.788 1.747zm-165.11 41.52h-.707c-3.95 0-5.448-2.08-5.448-5.5v-13.062h-1.25c-1 0-1.8-.8-1.8-1.747 0-.998.8-1.788 1.747-1.788h1.248V649.8c0-1.164.873-1.747 1.788-1.747s1.747.583 1.747 1.747v5.782h2.662c1.165 0 1.747.956 1.747 1.747 0 .998-.665 1.788-1.747 1.788H45.18v13.436c0 1.165.416 1.58 1.58 1.58h1.04c1.08 0 1.788.8 1.788 1.746 0 1-.665 1.8-1.747 1.8zm13.728-19.26c-3.202 0-5.906 2.704-5.906 5.948v11.52c0 1.165-.873 1.8-1.83 1.8-.873 0-1.747-.624-1.747-1.747v-18.55c0-1.164.957-1.788 1.747-1.788.832 0 1.622.457 1.8 1.414a9.62 9.62 0 0 1 5.947-2.121c1.207 0 1.83.83 1.83 1.788 0 .916-.624 1.748-1.83 1.748zm20.168 10.026h-15.4c.583 3.9 3.078 6.406 6.738 6.406 1.872 0 3.744-.666 4.95-2.163.374-.416.8-.666 1.3-.666.916 0 1.872.832 1.872 1.83 0 .5-.125.874-.998 1.747-1.872 1.83-4.45 2.787-7.113 2.787-6.696 0-10.44-5.532-10.44-11.77 0-6.197 3.744-11.73 10.44-11.73 6.78 0 10.4 5.532 10.4 11.73.001.915-.665 1.83-1.746 1.83zm-8.652-10.025c-3.9 0-6.197 2.87-6.738 6.447h13.478c-.584-3.993-3.08-6.447-6.74-6.447zm34.154 19.26c-2.288 0-3.328-1.622-3.702-2.37-1.664 1.83-4.076 3.078-7.32 3.078-6.78 0-10.44-5.573-10.44-11.77s3.744-11.73 10.44-11.73c2.912 0 5.24 1.04 6.863 2.745v-.167c0-.457.167-1.87 1.747-1.87.874 0 1.83.457 1.83 1.747v16.056c0 .54.375.75.583.75 1.164 0 1.788.83 1.788 1.788a1.71 1.71 0 0 1-1.788 1.746zM96.218 658.4c-4.16 0-6.863 3.244-6.863 8.194 0 5 2.704 8.236 6.863 8.236 4.2 0 6.863-3.245 6.863-8.236.001-4.95-2.66-8.194-6.863-8.194z"/><use xlink:href="#F"/><path d="M149.382 677.67c-.874 0-1.747-.624-1.747-1.747V662.82c0-2.412-1.997-4.4-4.368-4.4-2.454 0-4.4 1.997-4.4 4.367v13.103c0 1.165-.83 1.8-1.788 1.8-.915 0-1.747-.624-1.747-1.747V662.82a4.44 4.44 0 0 0-4.409-4.409c-2.412 0-4.4 1.997-4.4 4.367v13.103c0 1.165-.873 1.8-1.83 1.8-.874 0-1.747-.624-1.747-1.747V657.33c0-1.207.915-1.8 1.83-1.8.582 0 1.165.25 1.498.8a8.01 8.01 0 0 1 4.616-1.455c2.496 0 4.742 1.123 6.198 2.953a7.79 7.79 0 0 1 6.156-2.953c4.4 0 7.986 3.535 7.986 7.902V675.9c.001 1.165-.873 1.8-1.83 1.8zm24.255-9.234h-15.4c.583 3.9 3.078 6.406 6.738 6.406 1.872 0 3.744-.666 4.95-2.163.374-.416.8-.666 1.3-.666.916 0 1.872.832 1.872 1.83 0 .5-.125.874-.998 1.747-1.872 1.83-4.45 2.787-7.113 2.787-6.696 0-10.44-5.532-10.44-11.77 0-6.197 3.744-11.73 10.44-11.73 6.78 0 10.4 5.532 10.4 11.73.001.915-.665 1.83-1.746 1.83zm-8.652-10.025c-3.9 0-6.197 2.87-6.738 6.447h13.478c-.584-3.993-3.08-6.447-6.74-6.447zm30.825 19.26c-.915 0-1.747-.624-1.747-1.747V664.36c0-3.244-2.703-5.948-5.948-5.948-3.202 0-5.906 2.704-5.906 5.948v11.52c0 1.165-.873 1.83-1.83 1.83a1.71 1.71 0 0 1-1.747-1.789v-18.59c0-1.207.873-1.747 1.747-1.747.832 0 1.58.457 1.788 1.372a9.48 9.48 0 0 1 5.948-2.079c5.158 0 9.484 4.284 9.484 9.483v11.52c0 1.166-.832 1.8-1.8 1.8z"/><use xlink:href="#F" x="90.235"/></g><path d="M100.33 733.92c2.3-.08 4.137-.908 5.5-2.482s2.06-3.552 2.06-5.934c-.04-2.946-.848-5.247-2.422-6.902-1.615-1.614-3.714-2.422-6.297-2.422h-.727c-.404.04-.586-.16-.545-.605v-2.906c-.04-.443.14-.625.545-.545h.363c2.462-.04 4.44-.827 5.934-2.36 1.493-1.493 2.26-3.552 2.3-6.176-.242-4.278-2.342-6.54-6.297-6.78a6.21 6.21 0 0 0-4.299 1.635c-1.2 1.1-1.958 2.685-2.24 4.783 0 .565-.202.808-.605.727h-3.27c-.484.08-.666-.12-.545-.605.282-3.107 1.433-5.67 3.45-7.7 2.06-2.06 4.58-3.107 7.568-3.148 3.107.04 5.67 1.1 7.7 3.148s3.067 4.703 3.148 7.932c-.08 2.745-.768 4.925-2.06 6.54-1.252 1.615-2.664 2.785-4.238 3.512-.323.202-.303.424.06.666 1.614.687 3.168 1.877 4.662 3.572 1.533 1.736 2.34 4.28 2.422 7.63-.08 3.472-1.252 6.438-3.512 8.9-2.3 2.422-5.207 3.693-8.72 3.814-3.2-.04-5.894-1.1-8.113-3.148-2.26-2.1-3.492-5.025-3.693-8.78-.08-.242.1-.403.545-.484h3.27c.443-.08.666.162.666.727.363 4.72 2.825 7.182 7.387 7.383v-.06.06zm36.18-11.565c-.04.444.14.646.545.605h3.693c.443-.08.625.102.545.545v2.967c.08.444-.102.646-.545.605h-3.693c-.404-.08-.586.102-.545.545v8.72c.08.525-.102.746-.545.666h-3.088c-.404.08-.586-.14-.545-.666v-8.72c.08-.443-.102-.625-.545-.545H117.74c-.404.04-.586-.16-.545-.605v-3.814l.242-1.03 12.896-27.67c.12-.322.403-.484.848-.484h4.783c.443-.04.625.162.545.605v28.275zm-15.197 0c-.242.444-.12.646.363.605h10.1c.443.04.625-.16.545-.605V699.7c-.08-.484-.242-.524-.484-.12l-10.535 22.766zm30.473-28.067c.776.824 1.177 1.883 1.2 3.177v2.188c-.023 1.295-.424 2.354-1.2 3.177s-1.812 1.248-3.106 1.27c-1.27-.023-2.294-.447-3.07-1.27-.8-.823-1.213-1.882-1.235-3.177v-2.188c.022-1.294.435-2.353 1.235-3.177.776-.823 1.8-1.247 3.07-1.27 1.293.024 2.33.448 3.106 1.27zm-4.765 24.7h-1.554c-.282.023-.353-.094-.212-.353l14.543-24.745c.094-.282.247-.4.46-.353h1.554c.26-.023.33.083.212.317l-14.58 24.745c-.094.284-.235.413-.423.4zm-.67-19.45c.094 1.647.87 2.482 2.33 2.506 1.483-.023 2.26-.858 2.33-2.506v-1.977c-.07-1.647-.847-2.483-2.33-2.507-1.46.023-2.235.86-2.33 2.507v1.977zm9.143 18.708c-.8-.823-1.213-1.87-1.236-3.142v-2.153c.023-1.27.436-2.317 1.236-3.142.776-.8 1.8-1.212 3.07-1.235 1.294.023 2.33.436 3.106 1.235.776.824 1.177 1.87 1.2 3.142v2.153c-.023 1.27-.424 2.318-1.2 3.142s-1.812 1.247-3.106 1.27c-1.27-.024-2.294-.448-3.07-1.27zm5.4-3.247v-1.94c-.07-1.6-.848-2.412-2.33-2.436-1.46.023-2.235.835-2.33 2.436v1.94c.094 1.623.87 2.447 2.33 2.47 1.483-.024 2.26-.848 2.33-2.47v-.035.035z" fill="#ffc837"/><g class="T"><path d="M706.327 891.413c-.924 0-1.765-.63-1.765-1.764v-11.68c0-3.276-2.73-6.007-6.007-6.007-3.234 0-5.965 2.73-5.965 6.007v11.637c0 1.176-.882 1.848-1.85 1.848-.882 0-1.764-.63-1.764-1.806V870.87c0-1.22.882-1.765 1.764-1.765.84 0 1.597.462 1.807 1.386a9.57 9.57 0 0 1 6.007-2.1c5.2 0 9.578 4.326 9.578 9.577v11.637c0 1.176-.84 1.806-1.806 1.806zm24.023-9.325h-15.543c.588 3.948 3.108 6.47 6.806 6.47 1.9 0 3.78-.672 5-2.185.378-.42.798-.672 1.302-.672.924 0 1.9.84 1.9 1.85 0 .504-.126.882-1 1.764-1.9 1.85-4.494 2.815-7.183 2.815-6.764 0-10.544-5.588-10.544-11.9 0-6.26 3.78-11.846 10.544-11.846 6.847 0 10.502 5.587 10.502 11.846 0 .924-.673 1.85-1.765 1.85zm-8.737-10.124c-3.95 0-6.26 2.898-6.806 6.5h13.6c-.587-4.033-3.108-6.5-6.804-6.5zm41.29-.462l-6.5 18.44c-.336.924-.925 1.47-1.85 1.47-.882 0-1.387-.378-1.765-1.47l-4.915-13.862-4.956 13.862c-.337 1.008-.925 1.47-1.807 1.47-.84 0-1.43-.462-1.765-1.47l-6.47-18.44c-.084-.252-.084-.42-.084-.672 0-1.05.966-1.723 1.85-1.723.672 0 1.344.336 1.638 1.176l4.873 14.03 4.957-13.736c.336-.967.756-1.47 1.764-1.47.925 0 1.43.462 1.765 1.47l4.915 13.736 4.915-14.03c.294-.84.966-1.176 1.596-1.176.967 0 1.933.714 1.933 1.765 0 .2 0 .378-.084.63zm17.846 19.91h-.714c-4 0-5.503-2.1-5.503-5.545v-13.2h-1.26c-1 0-1.807-.798-1.807-1.764 0-1 .798-1.807 1.765-1.807h1.26v-5.84c0-1.177.882-1.765 1.807-1.765s1.764.588 1.764 1.765v5.84h2.688c1.177 0 1.765.966 1.765 1.765 0 1.008-.672 1.806-1.765 1.806h-2.688v13.568c0 1.177.42 1.597 1.597 1.597h1.05c1.093 0 1.807.798 1.807 1.765-.002 1.007-.673 1.805-1.766 1.805zm13.44-19.45c-3.234 0-5.965 2.73-5.965 6.007v11.637c0 1.176-.883 1.806-1.85 1.806-.883 0-1.765-.63-1.765-1.764v-18.735c0-1.177.967-1.807 1.765-1.807.84 0 1.638.462 1.806 1.428a9.72 9.72 0 0 1 6.008-2.142c1.218 0 1.848.84 1.848 1.806 0 .924-.63 1.764-1.848 1.764zm19.942 10.124h-15.543c.588 3.948 3.108 6.47 6.806 6.47 1.9 0 3.78-.672 5-2.185.378-.42.798-.672 1.302-.672.924 0 1.9.84 1.9 1.85 0 .504-.126.882-1 1.764-1.9 1.85-4.494 2.815-7.183 2.815-6.764 0-10.544-5.588-10.544-11.9 0-6.26 3.78-11.846 10.544-11.846 6.847 0 10.502 5.587 10.502 11.846-.001.924-.674 1.85-1.765 1.85zm-8.738-10.124c-3.95 0-6.26 2.898-6.806 6.5h13.6c-.587-4.033-3.107-6.5-6.804-6.5zm34.065 19.45c-2.3 0-3.36-1.638-3.74-2.395-1.68 1.85-4.116 3.1-7.393 3.1-6.848 0-10.544-5.63-10.544-11.9s3.78-11.846 10.544-11.846c2.94 0 5.293 1.05 6.93 2.772v-.168c0-.463.168-1.9 1.765-1.9.882 0 1.85.462 1.85 1.765v16.215c0 .546.378.756.588.756 1.176 0 1.807.84 1.807 1.807a1.73 1.73 0 0 1-1.808 1.765zm-11.132-19.45c-4.2 0-6.932 3.276-6.932 8.275 0 5.04 2.73 8.317 6.932 8.317 4.242 0 6.93-3.276 6.93-8.317 0-5-2.7-8.275-6.93-8.275zm22.26 19.45h-.714c-4 0-5.503-2.1-5.503-5.545v-13.2h-1.26c-1 0-1.807-.798-1.807-1.764 0-1 .798-1.807 1.765-1.807h1.26v-5.84c0-1.177.882-1.765 1.807-1.765s1.764.588 1.764 1.765v5.84h2.688c1.177 0 1.765.966 1.765 1.765 0 1.008-.672 1.806-1.765 1.806h-2.688v13.568c0 1.177.42 1.597 1.597 1.597h1.05c1.093 0 1.807.798 1.807 1.765-.002 1.007-.674 1.805-1.766 1.805zm30.58 0c-.883 0-1.765-.63-1.765-1.764v-13.232c0-2.437-2.017-4.453-4.4-4.453-2.48 0-4.452 2.017-4.452 4.4v13.232c0 1.176-.84 1.806-1.807 1.806-.924 0-1.765-.63-1.765-1.764v-13.232c0-2.437-2.016-4.453-4.452-4.453s-4.453 2.017-4.453 4.4v13.232c0 1.176-.882 1.806-1.85 1.806-.882 0-1.764-.63-1.764-1.764V870.87c0-1.22.924-1.807 1.848-1.807.6 0 1.177.252 1.513.798 1.302-.924 2.94-1.47 4.663-1.47 2.52 0 4.788 1.134 6.26 2.982a7.86 7.86 0 0 1 6.217-2.982c4.453 0 8.065 3.57 8.065 7.98v13.232c0 1.177-.88 1.807-1.847 1.807zm24.063-9.325h-15.542c.588 3.948 3.108 6.47 6.805 6.47 1.9 0 3.78-.672 5-2.185.378-.42.798-.672 1.303-.672.924 0 1.9.84 1.9 1.85 0 .504-.126.882-1.008 1.764-1.9 1.85-4.495 2.815-7.184 2.815-6.763 0-10.544-5.588-10.544-11.9 0-6.26 3.78-11.846 10.544-11.846 6.848 0 10.502 5.587 10.502 11.846 0 .924-.672 1.85-1.765 1.85zm-8.737-10.124c-3.948 0-6.26 2.898-6.805 6.5h13.6c-.587-4.033-3.108-6.5-6.805-6.5zm30.703 19.45c-.924 0-1.765-.63-1.765-1.764v-11.68c0-3.276-2.73-6.007-6.007-6.007-3.234 0-5.965 2.73-5.965 6.007v11.637c0 1.176-.882 1.848-1.85 1.848-.882 0-1.764-.63-1.764-1.806V870.87c0-1.22.882-1.765 1.764-1.765.84 0 1.597.462 1.807 1.386a9.57 9.57 0 0 1 6.007-2.1c5.2 0 9.578 4.326 9.578 9.577v11.637c.001 1.176-.84 1.806-1.806 1.806zm12.808 0h-.714c-4 0-5.504-2.1-5.504-5.545v-13.2h-1.26c-1.008 0-1.807-.798-1.807-1.764 0-1 .8-1.807 1.765-1.807h1.26v-5.84c0-1.177.883-1.765 1.807-1.765s1.765.588 1.765 1.765v5.84H940c1.176 0 1.764.966 1.764 1.765 0 1.008-.672 1.806-1.764 1.806h-2.688v13.568c0 1.177.42 1.597 1.596 1.597h1.05c1.092 0 1.806.798 1.806 1.765-.002 1.007-.674 1.805-1.765 1.805z"/><path d="M956.15 896.165c-.576 0-.864-.145-2.016-1.404-3.527-3.743-4.716-9.25-4.752-14.254 0-4.932 1.584-11.627 5.76-14.938.324-.252.684-.36.972-.36.864 0 1.584.72 1.584 1.548 0 .684-.216.72-1.224 1.728-2.88 2.915-3.996 7.667-3.996 12.022 0 4.392 1.332 10.114 4.716 12.958.36.324.54.756.54 1.116 0 .827-.72 1.583-1.584 1.583zm15.802-4.752h-9.683c-.828 0-1.584-.756-1.584-1.512v-22.57c0-.863.648-1.548 1.513-1.548h8.927c3.67 0 6.73 3.024 6.73 6.66a6.48 6.48 0 0 1-2.052 4.788c2.304 1.296 3.78 3.743 3.78 6.55.001 4.176-3.455 7.63-7.63 7.63zm-.827-22.57h-7.344v7.27h7.344c2.304 0 3.635-1.943 3.635-3.636a3.65 3.65 0 0 0-3.635-3.635zm.827 10.33h-8.17v9.18h8.17c2.448 0 4.536-2.123 4.536-4.57 0-2.52-2.088-4.608-4.536-4.608zm20.664 1.154h-7.703v9.538c0 .937-.72 1.548-1.512 1.548-.863 0-1.584-.575-1.584-1.512v-22.57c0-.647.433-1.548 1.513-1.548h9.322c3.168 0 7.235 2.484 7.235 7.235 0 4.068-3.24 7.308-7.27 7.308zm0-11.483h-7.703v8.424h7.667c2.34 0 4.212-1.872 4.212-4.212s-1.872-4.212-4.176-4.212zm27.467 22.57c-1.98 0-2.88-1.403-3.203-2.052-1.44 1.584-3.528 2.664-6.336 2.664-5.867 0-9.034-4.823-9.034-10.187s3.24-10.15 9.034-10.15c2.52 0 4.536.9 5.94 2.376v-.144c0-.396.145-1.62 1.512-1.62.756 0 1.584.396 1.584 1.512v13.895c0 .468.324.647.504.647 1.008 0 1.548.72 1.548 1.548a1.48 1.48 0 0 1-1.548 1.512zm-9.54-16.666c-3.6 0-5.938 2.808-5.938 7.092 0 4.32 2.34 7.127 5.938 7.127 3.636 0 5.94-2.808 5.94-7.127 0-4.284-2.304-7.092-5.94-7.092zm25.524 16.666h-10.942c-.864 0-1.584-.684-1.584-1.512v-22.57c0-1.044.828-1.548 1.512-1.548.792 0 1.584.504 1.584 1.512v21.058h9.43c.828 0 1.512.685 1.512 1.512-.001.863-.685 1.547-1.513 1.547zm5.726 3.42c-1.044 1.15-1.332 1.332-1.908 1.332-.828 0-1.62-.828-1.62-1.62 0-.396.18-.756.54-1.08 3.384-2.844 4.716-8.566 4.716-12.958 0-4.355-1.116-9.107-4.03-12.022-.9-.9-1.188-1.044-1.188-1.728 0-.828.72-1.548 1.584-1.548.324 0 .648.107.972.36 4.14 3.275 5.76 10.043 5.76 14.938-.002 5.04-1.298 10.44-4.825 14.327z" opacity=".5"/><path d="M697.25 916.43c-2.088 0-3.647-.864-4.656-2.28v1.2c0 .432-.36.672-.672.672-.336 0-.696-.24-.696-.672v-15.745c0-.433.36-.672.696-.672.312 0 .672.24.672.672v5.52c1.01-1.393 2.568-2.257 4.656-2.257 3.865 0 6.025 3.17 6.025 6.77 0 3.624-2.16 6.792-6.025 6.792zm0-12.194c-2.855 0-4.656 2.28-4.656 5.4s1.8 5.425 4.656 5.425 4.657-2.304 4.657-5.425-1.8-5.4-4.657-5.4z" class="S"/><use xlink:href="#G" class="S"/><use xlink:href="#H" class="S"/><use xlink:href="#I" class="S"/><path d="M757.777 921.063c-.336 0-.696-.265-.696-.696v-6.217c-1.008 1.416-2.568 2.28-4.656 2.28-3.864 0-6.024-3.168-6.024-6.793 0-3.6 2.16-6.77 6.024-6.77 2.088 0 3.648.864 4.656 2.257v-1.177c0-.432.36-.672.696-.672.312 0 .672.24.672.672v16.418a.69.69 0 0 1-.672.697zm-5.353-16.826c-2.832 0-4.656 2.28-4.656 5.4s1.824 5.425 4.656 5.425c2.856 0 4.656-2.304 4.656-5.425s-1.8-5.4-4.656-5.4zm18.53 11.785c-.336 0-.696-.24-.696-.672v-.768c-1.008 1.176-2.472 1.848-4.104 1.848-2.976 0-5.472-2.496-5.472-5.473v-7c0-.432.36-.672.695-.672a.67.67 0 0 1 .673.672v7c0 2.28 1.824 4.104 4.104 4.104s4.104-1.824 4.104-4.104v-7c0-.432.36-.672.696-.672.312 0 .672.24.672.672v11.4c0 .433-.36.673-.672.673z" class="S"/><use xlink:href="#J" class="S"/><path d="M780.264 916.167c-1.296 0-2.376-1.2-2.376-2.545v-14.017c0-.433.36-.672.696-.672.312 0 .672.24.672.672v14.017c0 1.536 1.704.648 1.704 1.73.001.408-.287.816-.696.816z" class="S"/><use xlink:href="#K" class="S"/><use xlink:href="#L" class="S"/><use xlink:href="#G" x="94.005" class="S"/><path d="M813.527 918.16c-.096.07-.24.096-.36.096-.384 0-.647-.336-.647-.696 0-.672 1.032-.768 1.2-1.536-.72-.048-1.297-.647-1.297-1.368 0-.815.673-1.392 1.393-1.392 1.176 0 1.44 1.2 1.44 1.944 0 1.176-.624 2.304-1.73 2.952zm15.12-1.73c-2.088 0-3.648-.864-4.656-2.28v6.217a.69.69 0 0 1-.672.696c-.336 0-.696-.265-.696-.696V903.95c0-.432.36-.672.696-.672.312 0 .672.24.672.672v1.177c1.008-1.393 2.568-2.257 4.656-2.257 3.864 0 6.024 3.17 6.024 6.77.001 3.624-2.16 6.792-6.024 6.792zm0-12.194c-2.856 0-4.656 2.28-4.656 5.4s1.8 5.425 4.656 5.425 4.656-2.304 4.656-5.425-1.8-5.4-4.656-5.4zm13.393.218c-2.256 0-4.104 1.824-4.104 4.104v6.793c0 .432-.36.672-.672.672-.336 0-.696-.24-.696-.672v-11.4c0-.432.36-.672.696-.672.312 0 .672.24.672.672v.984c1.08-1.176 2.496-1.848 4.104-1.848a.69.69 0 0 1 .696.672c0 .336-.264.696-.696.696zm11.755 5.88h-9.96c.216 2.736 1.992 4.73 4.608 4.73 1.296 0 2.832-.576 3.528-1.656.168-.264.36-.336.576-.336.36 0 .744.288.744.648 0 .216 0 .264-.456.792-1.104 1.296-2.712 1.92-4.393 1.92-3.864 0-6.024-3.168-6.024-6.793 0-3.6 2.16-6.77 6.024-6.77s6.024 3.192 6.024 6.77c.001.36-.334.696-.67.696zm-5.353-6.097c-2.88 0-4.393 2.2-4.608 4.73h9.24c-.216-2.737-1.992-4.73-4.633-4.73zm12.312 11.785H860c-1.896 0-2.832-.936-2.832-2.808v-8.57h-1.225c-.432 0-.672-.36-.672-.696 0-.312.24-.672.672-.672h1.225v-3.672c0-.433.36-.672.695-.672s.672.24.672.672v3.672h2.2c.432 0 .672.36.672.672 0 .337-.24.696-.672.696h-2.2v8.57c0 1.176.337 1.44 1.465 1.44h.744c.432 0 .672.36.672.696a.67.67 0 0 1-.672.673zm7.368.408c-3.864 0-6.024-3.168-6.024-6.793 0-3.6 2.16-6.77 6.024-6.77s6.024 3.17 6.024 6.77c0 3.625-2.16 6.793-6.024 6.793zm0-12.194c-2.833 0-4.656 2.28-4.656 5.4s1.823 5.425 4.656 5.425c2.855 0 4.656-2.304 4.656-5.425s-1.8-5.4-4.656-5.4zm23.544 11.786c-.336 0-.672-.24-.672-.672v-8.064a3.09 3.09 0 0 0-3.048-3.049c-1.656 0-3.072 1.393-3.072 3.024v8.1c0 .432-.336.672-.673.672s-.695-.24-.695-.672v-8.064c0-1.656-1.393-3.05-3.024-3.05-1.68 0-3.072 1.393-3.072 3.024v8.1c0 .432-.36.672-.672.672-.336 0-.696-.24-.696-.672v-11.4c0-.432.36-.672.696-.672.312 0 .672.24.672.672v.145c.792-.77 1.872-1.225 3.048-1.225 1.536 0 2.904.77 3.744 2.04.792-1.225 2.16-2.04 3.72-2.04 2.496 0 4.44 1.97 4.44 4.393v8.1c-.001.43-.36.67-.697.67z" class="S"/><use xlink:href="#I" x="162.088" class="S"/><path d="M919.313 916.022c-.336 0-.695-.24-.695-.672v-7.01c0-2.28-1.824-4.104-4.104-4.104-2.257 0-4.104 1.824-4.104 4.104v7.01c0 .432-.36.672-.672.672-.336 0-.696-.24-.696-.672v-11.4c0-.432.36-.672.696-.672.312 0 .672.24.672.672v.77c1.08-1.176 2.496-1.85 4.104-1.85a5.52 5.52 0 0 1 5.472 5.473v7.01a.67.67 0 0 1-.673.671z" class="S"/><use xlink:href="#J" x="148.145" class="S"/><use xlink:href="#H" x="207.472" class="S"/><path d="M957.57 910.6l-2.4 2.424 2.232 2.232c.168.168.216.336.216.504 0 .384-.312.696-.672.696a.67.67 0 0 1-.504-.217l-2.232-2.256-.815.816c-.984.983-2.257 1.632-3.77 1.632-2.8 0-5.137-2.28-5.137-5.112 0-1.944 1.032-3.576 2.568-4.465l-.456-.456c-.984-.983-1.513-2.04-1.513-3.384a4.54 4.54 0 0 1 4.513-4.513c2.8 0 4.633 2.664 4.633 3.192 0 .384-.36.672-.72.672-.695 0-1.584-2.496-3.912-2.496a3.16 3.16 0 0 0-3.145 3.145c0 1.008.337 1.632 1.08 2.376l6.673 6.673 2.4-2.425c.168-.144.336-.216.504-.216a.73.73 0 0 1 .672.696c.001.17-.047.314-.215.482zm-9.505-2.737a3.75 3.75 0 0 0-2.208 3.432 3.79 3.79 0 0 0 3.744 3.77 3.64 3.64 0 0 0 2.641-1.056l1.008-1.032-5.185-5.113zM967 916.167c-1.296 0-2.376-1.2-2.376-2.545v-14.017c0-.433.36-.672.696-.672.312 0 .672.24.672.672v14.017c0 1.536 1.704.648 1.704 1.73 0 .408-.288.816-.696.816z" class="S"/><use xlink:href="#K" x="186.736" class="S"/><use xlink:href="#L" x="186.735" class="S"/><path d="M996.736 910.334h-9.96c.216 2.736 1.992 4.73 4.608 4.73 1.296 0 2.832-.576 3.528-1.656.168-.264.36-.336.576-.336.36 0 .744.288.744.648 0 .216 0 .264-.456.792-1.104 1.296-2.712 1.92-4.393 1.92-3.864 0-6.024-3.168-6.024-6.793 0-3.6 2.16-6.77 6.024-6.77s6.024 3.192 6.024 6.77c.002.36-.334.696-.67.696zm-5.353-6.097c-2.88 0-4.393 2.2-4.608 4.73h9.24c-.216-2.737-1.992-4.73-4.633-4.73zm16.945 11.785h-9.433a.65.65 0 0 1-.673-.647.86.86 0 0 1 .145-.48l8.52-10.25h-7.992c-.433 0-.673-.36-.673-.696 0-.312.24-.672.673-.672h9.433c.384 0 .695.288.695.648 0 .168-.023.312-.168.48l-8.496 10.25h7.97c.456 0 .695.36.695.696-.001.313-.24.672-.696.672zm7.535.408c-3.864 0-6.024-3.168-6.024-6.793 0-3.6 2.16-6.77 6.024-6.77s6.024 3.17 6.024 6.77c0 3.625-2.16 6.793-6.024 6.793zm0-12.194c-2.832 0-4.656 2.28-4.656 5.4s1.824 5.425 4.656 5.425c2.856 0 4.656-2.304 4.656-5.425s-1.8-5.4-4.656-5.4zm10.297 11.93c-1.297 0-2.377-1.2-2.377-2.545v-14.017c0-.433.36-.672.696-.672.312 0 .672.24.672.672v14.017c0 1.536 1.704.648 1.704 1.73 0 .408-.288.816-.695.816z" class="S"/><use xlink:href="#J" x="254.006" class="S"/><use xlink:href="#H" x="313.334" class="S"/></g><path d="M849.142 955.98c0-.403-.182-.464-.545-.182-1.292 1.695-3.774 2.685-7.447 2.967-3.593-.08-6.418-1.332-8.477-3.754s-3.108-5.55-3.148-9.385c.04-3.713 1.1-6.86 3.2-9.445 2.14-2.583 5.065-3.936 8.78-4.057 3.754.08 6.7 1.413 8.84 3.996 2.1 2.543 3.168 5.772 3.2 9.688v18.95c-.04 3.593-1.1 6.6-3.2 9.02-2.1 2.382-5.086 3.633-8.96 3.754-3.068-.04-5.672-.93-7.8-2.664-2.1-1.695-3.35-4.036-3.754-7.023-.08-.363.1-.545.545-.545h3.45c.403 0 .625.242.666.727.322 1.453 1 2.705 2.06 3.754 1.1 1 2.725 1.534 4.904 1.574 2.462-.04 4.36-.848 5.7-2.422 1.332-1.614 1.998-3.673 1.998-6.176v-8.78zm0-10.474c0-2.664-.646-4.863-1.938-6.6-1.332-1.735-3.23-2.623-5.7-2.664-2.422.04-4.28.93-5.57 2.664-1.292 1.776-1.958 4.017-1.998 6.72.04 2.745.686 4.945 1.938 6.6s3.088 2.503 5.5 2.543c5.125-.323 7.708-3.4 7.75-9.264v-.06.06zm29.824-9.93c2.22 2.3 3.37 5.3 3.45 9.02v20.465c-.08 3.714-1.23 6.74-3.45 9.082-2.22 2.3-5.146 3.5-8.78 3.572-3.593-.08-6.52-1.27-8.78-3.572-2.22-2.34-3.35-5.368-3.4-9.082v-20.465c.04-3.713 1.17-6.72 3.4-9.02 2.26-2.34 5.187-3.53 8.78-3.572 3.632.04 6.558 1.23 8.78 3.572zm-16.4 9.022v20.465c.04 2.503.727 4.52 2.06 6.055 1.372 1.534 3.23 2.32 5.57 2.36 2.34-.04 4.197-.827 5.57-2.36s2.078-3.552 2.12-6.055v-20.465c-.04-2.502-.747-4.5-2.12-5.994-1.373-1.533-3.23-2.32-5.57-2.36-2.342.04-4.198.828-5.57 2.36-1.332 1.494-2.02 3.492-2.06 5.994v-.06.06zm32.53-11.412c.776.824 1.177 1.883 1.2 3.177v2.188c-.023 1.295-.424 2.354-1.2 3.177s-1.812 1.248-3.106 1.27c-1.27-.023-2.294-.447-3.07-1.27-.8-.823-1.213-1.882-1.235-3.177v-2.188c.022-1.294.435-2.353 1.235-3.177.776-.823 1.8-1.247 3.07-1.27 1.293.024 2.33.447 3.106 1.27zm-4.765 24.7h-1.554c-.282.023-.353-.094-.212-.353l14.543-24.745c.094-.282.247-.4.46-.353h1.554c.26-.023.33.083.212.317l-14.58 24.745c-.094.283-.235.412-.423.4zm-.67-19.45c.094 1.647.87 2.482 2.33 2.506 1.483-.023 2.26-.858 2.33-2.506v-1.977c-.07-1.647-.847-2.483-2.33-2.507-1.46.023-2.235.86-2.33 2.507v1.977zm9.143 18.708c-.8-.823-1.213-1.87-1.236-3.142v-2.153c.023-1.27.436-2.317 1.236-3.142.776-.8 1.8-1.212 3.07-1.235 1.294.023 2.33.436 3.106 1.235.776.824 1.177 1.87 1.2 3.142V954c-.023 1.27-.424 2.318-1.2 3.142s-1.812 1.247-3.106 1.27c-1.27-.024-2.294-.447-3.07-1.27zm5.4-3.247v-1.94c-.07-1.6-.848-2.412-2.33-2.436-1.46.023-2.235.835-2.33 2.436v1.94c.094 1.623.87 2.447 2.33 2.47 1.482-.023 2.26-.848 2.33-2.47v-.035.035z" fill="#11ffbd"/><path d="M42.328 1046.045c-3.568 0-5.47-1.97-5.503-2.002 0 .935-.7 1.4-1.468 1.4-.7 0-1.4-.467-1.4-1.4v-20.88a1.35 1.35 0 0 1 1.401-1.434c.767 0 1.468.467 1.468 1.4v6.238c1.334-1.368 3.168-2.17 5.503-2.17 5.37 0 8.373 4.403 8.373 9.406 0 5.04-3.002 9.442-8.373 9.442zm0-16c-3.335 0-5.503 2.602-5.503 6.57 0 4.003 2.168 6.604 5.503 6.604s5.504-2.602 5.504-6.604c0-3.968-2.168-6.57-5.504-6.57zm25.555 8.037h-12.34c.467 3.136 2.468 5.137 5.403 5.137 1.5 0 3.002-.533 3.97-1.734.3-.333.634-.533 1.034-.533.734 0 1.5.667 1.5 1.468 0 .4-.1.7-.8 1.4-1.5 1.468-3.57 2.235-5.704 2.235-5.37 0-8.372-4.437-8.372-9.44 0-4.97 3.002-9.406 8.372-9.406 5.437 0 8.34 4.437 8.34 9.406 0 .734-.534 1.467-1.4 1.467zm-6.938-8.038c-3.136 0-4.97 2.3-5.403 5.17H66.35c-.467-3.202-2.468-5.17-5.404-5.17zM88 1045.478c-1.834 0-2.668-1.3-2.97-1.9-1.334 1.468-3.27 2.47-5.87 2.47-5.438 0-8.372-4.47-8.372-9.44s3.002-9.406 8.372-9.406c2.335 0 4.203.834 5.504 2.202v-.134c0-.367.133-1.5 1.4-1.5.7 0 1.468.367 1.468 1.4v12.875c0 .434.3.6.467.6.935 0 1.435.667 1.435 1.434a1.37 1.37 0 0 1-1.435 1.4zm-8.84-15.444c-3.336 0-5.504 2.602-5.504 6.57 0 4.003 2.168 6.604 5.504 6.604 3.37 0 5.504-2.602 5.504-6.604 0-3.968-2.135-6.57-5.504-6.57zm25.554 15.476c-.633 0-1.267-.367-1.4-1.1-1.334 1.034-2.97 1.668-4.804 1.668-4.136 0-7.604-3.436-7.604-7.605v-9.24a1.37 1.37 0 0 1 1.4-1.435c.768 0 1.468.5 1.468 1.4v9.272c0 2.602 2.168 4.77 4.736 4.77 2.603 0 4.77-2.17 4.77-4.77v-9.24c0-1.034.667-1.468 1.4-1.468.768 0 1.435.5 1.435 1.435v14.9c-.001.934-.668 1.4-1.402 1.4zm10.444-.032h-.567c-3.17 0-4.37-1.668-4.37-4.403V1030.6h-1c-.8 0-1.435-.634-1.435-1.4 0-.8.634-1.435 1.4-1.435h1v-4.637c0-.934.7-1.4 1.435-1.4s1.4.467 1.4 1.4v4.637h2.135c.934 0 1.4.768 1.4 1.4 0 .8-.533 1.434-1.4 1.434h-2.135v10.774c0 .934.333 1.268 1.268 1.268h.833c.868 0 1.435.634 1.435 1.4-.001.8-.534 1.435-1.4 1.435zm4.604-20.415a2.401 2.401 0 1 1 0-4.802 2.401 2.401 0 1 1 0 4.802zm0 20.415c-.733 0-1.467-.5-1.467-1.4V1029.2c0-.935.733-1.435 1.467-1.435a1.37 1.37 0 0 1 1.401 1.435v14.876c0 .935-.7 1.402-1.4 1.402zm10.376-14.878h-1.5v13.442c0 .935-.7 1.4-1.468 1.4-.7 0-1.4-.467-1.4-1.4V1030.6h-1.37c-.9 0-1.4-.667-1.4-1.4 0-.768.5-1.435 1.4-1.435h1.367v-2.27c0-2.135 1.77-3.77 3.836-3.77.968 0 1.468.667 1.468 1.434 0 .7-.5 1.4-1.468 1.4-.566 0-.967.434-.967.9v2.302h1.5c.967 0 1.468.667 1.468 1.435 0 .734-.5 1.4-1.467 1.4zm16.644 14.9c-.633 0-1.267-.367-1.4-1.1-1.334 1.034-2.97 1.668-4.804 1.668-4.136 0-7.604-3.436-7.604-7.605v-9.24a1.37 1.37 0 0 1 1.4-1.435c.768 0 1.468.5 1.468 1.4v9.272c0 2.602 2.168 4.77 4.736 4.77 2.603 0 4.77-2.17 4.77-4.77v-9.24c0-1.034.667-1.468 1.4-1.468.768 0 1.435.5 1.435 1.435v14.9c0 .934-.667 1.4-1.402 1.4zm7.943.034c-1.802 0-3.336-1.534-3.336-3.402v-18.98c0-.967.7-1.434 1.435-1.434s1.435.467 1.435 1.4v19.013c0 .4.3.567.467.567.934 0 1.435.667 1.435 1.435-.002.733-.503 1.4-1.436 1.4zm15.37-.066v-1.264c1.886-.237 2.046-.438 2.046-3.157v-6.7c0-2.8-1.248-4.017-3.064-4.017-1.237 0-2.345.6-3.47 1.493v9.476c0 2.527.187 2.658 2.06 2.896v1.264h-8.968v-1.264c2.254-.33 2.5-.4 2.5-3v-8.2c0-2.446-.303-2.565-2.185-2.922v-1.184c2.173-.292 4.63-.807 6.653-1.533l-.052 2.95 2.6-1.745c1.16-.713 2-1.086 3.16-1.086 3.194 0 5.2 2.338 5.2 6.3v7.5c0 2.54.237 2.657 2.277 2.92v1.264h-8.74zm23.9-3.703c-2.458 3.427-5.488 4.178-7.014 4.178-5.142 0-8.124-3.936-8.124-8.594 0-2.745 1.183-5.396 2.832-7.062 1.74-1.8 3.945-2.814 6.082-2.814 3.73 0 6.396 3.126 6.37 6.347-.014.715-.08 1.277-.612 1.4-.767.184-6.17.5-10.318.647.062 4.587 2.717 6.74 5.556 6.74 1.572 0 3.104-.597 4.543-1.866l.685 1.014zm-7.07-12.7c-1.667 0-3.167 1.807-3.516 4.963l5.486-.118c.6-.026.848-.146.848-.792.04-2.022-1.037-4.053-2.818-4.053zm34.284.145c-1.943.343-2.248.624-3.105 2.765-1.33 3.462-3.102 8.53-4.934 13.94h-1.512l-4.65-11.46-4.55 11.46h-1.472l-4.685-14.192c-.687-1.985-.94-2.274-2.855-2.512v-1.25h9.397v1.25c-2.325.345-2.535.672-2.058 2.133l2.52 8.214c1.507-3.68 2.988-7.62 4.327-11.424h1.456c1.4 3.76 2.986 7.702 4.573 11.568.742-2.107 2.062-5.964 2.557-8.108.412-1.674-.008-2.078-2.753-2.383v-1.25h7.742v1.25zm9.4 3.746c-.92-2.606-2.155-3.984-4.2-3.984-1.206 0-2.225.86-2.225 2.266 0 1.497 1.046 2.264 3.16 3.216 3.278 1.496 5.3 2.787 5.3 5.736 0 3.85-3.6 5.764-6.945 5.764-2.06 0-4.088-.737-4.92-1.16l-.662-4.892 1.252-.224c.8 2.5 2.33 4.75 4.976 4.75 1.505 0 2.438-.952 2.438-2.28 0-1.423-.76-2.333-3.092-3.467-2.67-1.295-5.107-2.64-5.107-5.775 0-3.046 2.533-5.42 6.565-5.42 1.818 0 3.242.396 4.112.567l.62 4.577-1.25.328z" opacity=".3" class="T"/><g class="S T"><path d="M837.863 1046.357c-1.2 0-3.22-.42-3.92-1.58-.08-.12-.08-.22-.08-.3 0-.32.28-.6.58-.6.12 0 .32.1.44.28.72.88 2 1.06 2.98 1.06 1.94 0 2.92-.64 2.92-1.94 0-3.02-6.562-1.42-6.562-5.422 0-2.02 2.02-2.8 3.84-2.8 1.04 0 2.64.36 3.44 1.16a.56.56 0 0 1 .18.38.65.65 0 0 1-.62.6.53.53 0 0 1-.38-.16c-.62-.6-1.74-.84-2.62-.84-1.76 0-2.7.68-2.7 1.66 0 2.8 6.562 1.32 6.562 5.422.001 2.28-2 3.08-4.06 3.08z"/><use xlink:href="#M"/><path d="M864.364 1045.978c-.28 0-.58-.2-.58-.56v-.64c-.84.98-2.06 1.54-3.42 1.54-2.48 0-4.56-2.08-4.56-4.56v-5.842c0-.36.3-.56.58-.56.26 0 .56.2.56.56v5.842c0 1.9 1.52 3.42 3.42 3.42s3.42-1.52 3.42-3.42v-5.842c0-.36.3-.56.58-.56.26 0 .56.2.56.56v9.502a.56.56 0 0 1-.561.562z"/><use xlink:href="#N"/><path d="M882.503 1044.797c-.88.98-2.1 1.52-3.58 1.52-3.22 0-5.02-2.64-5.02-5.66 0-3 1.8-5.64 5.02-5.64 1.48 0 2.7.54 3.58 1.52a.53.53 0 0 1 .16.381.63.63 0 0 1-.58.6c-.14 0-.28-.06-.42-.2-.66-.74-1.58-1.16-2.74-1.16-2.36 0-3.88 1.9-3.88 4.5s1.52 4.52 3.88 4.52c1.16 0 2.08-.44 2.74-1.16.14-.14.28-.2.42-.2.3 0 .58.26.58.58a.57.57 0 0 1-.16.398zm11.58-3.56h-8.302c.18 2.28 1.66 3.94 3.84 3.94 1.08 0 2.36-.48 2.94-1.38.14-.22.3-.28.48-.28.3 0 .62.24.62.54 0 .18 0 .22-.38.66-.92 1.08-2.26 1.6-3.66 1.6-3.22 0-5.02-2.64-5.02-5.66 0-3 1.8-5.64 5.02-5.64s5.02 2.66 5.02 5.64c0 .3-.28.58-.56.58zm-4.46-5.08c-2.4 0-3.66 1.84-3.84 3.94h7.7c-.18-2.28-1.66-3.94-3.86-3.94zm8.436 3.26c-.64 0-1.16-.5-1.16-1.14s.52-1.14 1.16-1.14c.62 0 1.12.5 1.12 1.14s-.5 1.14-1.12 1.14zm0 6.562c-.64 0-1.16-.5-1.16-1.14s.52-1.14 1.16-1.14c.62 0 1.12.5 1.12 1.14s-.5 1.14-1.12 1.14zm18.183.02c-.18 0-.34-.12-.48-.32l-7.82-11.543v11.282a.56.56 0 0 1-.561.561c-.28 0-.58-.2-.58-.56v-13.122c0-.34.3-.6.6-.6.18 0 .34.12.48.32l7.822 11.542v-11.262c0-.36.3-.56.56-.56.28 0 .58.2.58.56v13.122c-.001.342-.3.58-.6.58zm12.46-4.76H920.4c.18 2.28 1.66 3.94 3.84 3.94 1.08 0 2.36-.48 2.94-1.38.14-.22.3-.28.48-.28.3 0 .62.24.62.54 0 .18 0 .22-.38.66-.92 1.08-2.26 1.6-3.66 1.6-3.22 0-5.02-2.64-5.02-5.66 0-3 1.8-5.64 5.02-5.64s5.02 2.66 5.02 5.64c0 .3-.28.58-.56.58zm-4.46-5.08c-2.4 0-3.66 1.84-3.84 3.94h7.7c-.18-2.28-1.66-3.94-3.86-3.94zm20.56-.06l-3.26 9.4c-.14.38-.32.48-.58.48-.34 0-.44-.12-.56-.48l-2.62-7.802-2.62 7.802c-.14.38-.32.48-.58.48s-.46-.16-.56-.48l-3.24-9.4a.86.86 0 0 1-.04-.221c0-.32.32-.52.58-.52a.52.52 0 0 1 .521.38l2.74 7.922 2.62-7.822c.12-.38.24-.48.58-.48.24 0 .44.08.56.48l2.66 7.822 2.7-7.922c.1-.28.3-.38.52-.38.3 0 .62.2.62.54a.59.59 0 0 1-.04.2zm15.88-3.522l-4.342 7.962v4.88c0 .36-.3.56-.58.56-.26 0-.56-.2-.56-.56v-4.88l-4.32-7.962c-.04-.1-.06-.22-.06-.3 0-.32.3-.54.6-.54a.54.54 0 0 1 .48.28l3.86 7.182 3.9-7.182c.12-.2.3-.28.48-.28.3 0 .62.22.62.54.002.08-.037.2-.077.3z"/><use xlink:href="#M" x="117.796"/><use xlink:href="#N" x="106.017"/><path d="M987.858 1036.336l-3.44 3.44 3.4 5.32a.56.56 0 0 1 .12.319c0 .28-.3.54-.6.54-.18 0-.36-.08-.48-.26l-3.28-5.1-2.06 2.08v2.74a.56.56 0 0 1-.561.561c-.28 0-.58-.2-.58-.56v-13.122c0-.36.3-.56.58-.56.26 0 .56.2.56.56v8.762l5.52-5.52a.56.56 0 0 1 .42-.18c.32 0 .58.26.58.56a.56.56 0 0 1-.181.422zm15.24-3.482h-3.88v12.562c0 .36-.28.56-.58.56-.26 0-.56-.18-.56-.56v-12.562h-3.88a.55.55 0 0 1-.58-.56.55.55 0 0 1 .58-.561h8.9c.36 0 .56.28.56.56s-.2.56-.56.56zm2.738.58c-.64 0-1.14-.5-1.14-1.14s.5-1.14 1.14-1.14 1.14.5 1.14 1.14a1.13 1.13 0 0 1-1.141 1.14zm0 12.543c-.28 0-.58-.18-.58-.56v-9.502c0-.36.28-.56.58-.56.26 0 .56.18.56.56v9.502c-.001.36-.262.56-.56.56zm16.422 0c-.28 0-.56-.2-.56-.56v-6.72c0-1.38-1.16-2.54-2.54-2.54s-2.56 1.16-2.56 2.52v6.74c0 .36-.28.56-.56.56s-.58-.2-.58-.56v-6.72a2.57 2.57 0 0 0-2.521-2.541c-1.4 0-2.56 1.16-2.56 2.52v6.74a.56.56 0 0 1-.561.561c-.28 0-.58-.2-.58-.56v-9.502c0-.36.3-.56.58-.56.26 0 .56.2.56.56v.12c.66-.64 1.56-1.02 2.54-1.02a3.71 3.71 0 0 1 3.121 1.7 3.69 3.69 0 0 1 3.1-1.7c2.08 0 3.7 1.64 3.7 3.66v6.74c.003.36-.297.562-.578.562zm12.26-4.742h-8.302c.18 2.28 1.66 3.94 3.84 3.94 1.08 0 2.36-.48 2.94-1.38.14-.22.3-.28.48-.28.3 0 .62.24.62.54 0 .18 0 .22-.38.66-.92 1.08-2.26 1.6-3.66 1.6-3.22 0-5.02-2.64-5.02-5.66 0-3 1.8-5.64 5.02-5.64s5.02 2.66 5.02 5.64c.001.3-.28.58-.56.58zm-4.46-5.08c-2.4 0-3.66 1.84-3.84 3.94h7.7c-.18-2.28-1.66-3.94-3.86-3.94zm10.74 10.2c-1.2 0-3.22-.42-3.92-1.58-.08-.12-.08-.22-.08-.3 0-.32.28-.6.58-.6.12 0 .32.1.44.28.72.88 2 1.06 2.98 1.06 1.94 0 2.92-.64 2.92-1.94 0-3.02-6.562-1.42-6.562-5.422 0-2.02 2.02-2.8 3.84-2.8 1.04 0 2.64.36 3.44 1.16a.56.56 0 0 1 .18.38.65.65 0 0 1-.62.6.53.53 0 0 1-.38-.16c-.62-.6-1.74-.84-2.62-.84-1.76 0-2.7.68-2.7 1.66 0 2.8 6.562 1.32 6.562 5.422 0 2.28-2 3.08-4.06 3.08z"/></g><g class="T"><path d="M108.074 42.382h-9.96V77.48c0 1.62-1.2 2.52-2.52 2.52-1.26 0-2.58-.9-2.58-2.52V42.382h-9.84c-1.74 0-2.64-1.32-2.64-2.58 0-1.2.9-2.52 2.58-2.52h24.96c1.68 0 2.58 1.32 2.58 2.52.001 1.26-.9 2.58-2.58 2.58zM137.833 80c-1.32 0-2.52-.9-2.52-2.52V60.8c0-4.68-3.9-8.58-8.58-8.58-4.62 0-8.52 3.9-8.52 8.58v16.62c0 1.68-1.26 2.64-2.64 2.64-1.26 0-2.52-.9-2.52-2.58V39.862c0-1.74 1.26-2.58 2.52-2.58 1.38 0 2.64.84 2.64 2.52v10.38c2.22-2.1 5.22-3.06 8.52-3.06 7.44 0 13.68 6.18 13.68 13.68v16.62c0 1.68-1.2 2.58-2.58 2.58z"/><use xlink:href="#O"/><path d="M206.112 80h-12.42c-1.38 0-2.64-1.26-2.64-2.52V39.862c0-1.38 1.26-2.58 2.64-2.58h12.42c12.36 0 16.44 10.2 16.44 21.3 0 11.16-4.08 21.42-16.44 21.42zm0-37.618h-9.9V74.9h9.9c7.74 0 11.28-5.7 11.28-16.32 0-10.44-3.54-16.2-11.28-16.2z"/><use xlink:href="#O" x="81.657"/><path d="M290 80c-3.3 0-4.8-2.34-5.34-3.42-2.4 2.64-5.88 4.44-10.56 4.44-9.78 0-15.06-8.04-15.06-16.98s5.4-16.92 15.06-16.92c4.2 0 7.56 1.5 9.9 3.96v-.24c0-.66.24-2.7 2.52-2.7 1.26 0 2.64.66 2.64 2.52v23.16c0 .78.54 1.08.84 1.08 1.68 0 2.58 1.2 2.58 2.58 0 1.26-.9 2.52-2.58 2.52zm-15.9-27.778c-6 0-9.9 4.68-9.9 11.82 0 7.2 3.9 11.88 9.9 11.88 6.06 0 9.9-4.68 9.9-11.88.001-7.14-3.84-11.82-9.9-11.82zm47.8 27.718c-1.32 0-2.58-.84-2.58-2.52 0 0-3.54 3.6-9.9 3.6-9.66 0-15.06-7.92-15.06-16.98 0-9 5.4-16.92 15.06-16.92 4.2 0 7.56 1.44 9.9 3.9V39.86c0-1.74 1.26-2.58 2.58-2.58s2.58.84 2.58 2.52v37.62c0 1.68-1.26 2.52-2.58 2.52zm-12.48-27.718c-6 0-9.9 4.68-9.9 11.82 0 7.2 3.9 11.88 9.9 11.88 6.06 0 9.9-4.68 9.9-11.88.001-7.14-3.84-11.82-9.9-11.82zm26.83 27.898c-3.24 0-6-2.76-6-6.12V39.86c0-1.74 1.26-2.58 2.58-2.58s2.58.84 2.58 2.52V74c0 .72.54 1.02.84 1.02 1.68 0 2.58 1.2 2.58 2.58 0 1.32-.9 2.52-2.58 2.52z"/><use xlink:href="#P"/><use xlink:href="#O" x="207.535"/><use xlink:href="#Q"/><path d="M422.528 80h-1.02c-5.7 0-7.86-3-7.86-7.92V53.242h-1.8c-1.44 0-2.58-1.14-2.58-2.52 0-1.44 1.14-2.58 2.52-2.58h1.8v-8.34c0-1.68 1.26-2.52 2.58-2.52s2.52.84 2.52 2.52v8.34h3.84c1.68 0 2.52 1.38 2.52 2.52 0 1.44-.96 2.58-2.52 2.58h-3.84v19.38c0 1.68.6 2.28 2.28 2.28h1.5c1.56 0 2.58 1.14 2.58 2.52-.001 1.44-.96 2.58-2.52 2.58zm45.418-37.618h-22.438v12.12h15.72c1.5 0 2.58 1.2 2.58 2.58s-1.02 2.58-2.58 2.58h-15.72V77.48a2.58 2.58 0 0 1-2.521 2.52c-1.44 0-2.64-1.14-2.64-2.52V39.862c0-1.44 1.2-2.58 2.64-2.58h24.96c1.56 0 2.52 1.14 2.52 2.52-.001 1.26-.9 2.58-2.52 2.58z"/><use xlink:href="#R"/><use xlink:href="#S"/><path d="M558.48 80c-1.26 0-2.52-.9-2.52-2.52V58.582c0-3.48-2.88-6.36-6.3-6.36-3.54 0-6.36 2.88-6.36 6.3V77.42c0 1.68-1.2 2.58-2.58 2.58-1.32 0-2.52-.9-2.52-2.52V58.582c0-3.48-2.88-6.36-6.36-6.36s-6.36 2.88-6.36 6.3V77.42c0 1.68-1.26 2.58-2.64 2.58-1.26 0-2.52-.9-2.52-2.52V50.662c0-1.74 1.32-2.58 2.64-2.58.84 0 1.68.36 2.16 1.14a11.56 11.56 0 0 1 6.66-2.1c3.6 0 6.84 1.62 8.94 4.26 2.1-2.64 5.28-4.26 8.88-4.26 6.36 0 11.52 5.1 11.52 11.4V77.42c.001 1.68-1.26 2.58-2.64 2.58zm34.2 1.02c-9.66 0-15.06-7.92-15.06-16.98 0-9 5.4-16.92 15.06-16.92s15.06 7.92 15.06 16.92c0 9.06-5.4 16.98-15.06 16.98zm0-28.8c-6 0-9.9 4.68-9.9 11.82 0 7.2 3.9 11.88 9.9 11.88 6.06 0 9.9-4.68 9.9-11.88.001-7.14-3.84-11.82-9.9-11.82zm29.58 1.022h-2.7V77.42c0 1.68-1.26 2.52-2.64 2.52-1.26 0-2.52-.84-2.52-2.52V53.242h-2.46c-1.62 0-2.52-1.2-2.52-2.52 0-1.38.9-2.58 2.52-2.58h2.46v-4.08c0-3.84 3.18-6.78 6.9-6.78 1.74 0 2.64 1.2 2.64 2.58 0 1.26-.9 2.52-2.64 2.52-1.02 0-1.74.78-1.74 1.62v4.14h2.7c1.74 0 2.64 1.2 2.64 2.58.001 1.32-.9 2.52-2.64 2.52zm41.698-10.86H654V77.48c0 1.62-1.2 2.52-2.52 2.52-1.26 0-2.58-.9-2.58-2.52V42.382h-9.84c-1.74 0-2.64-1.32-2.64-2.58 0-1.2.9-2.52 2.58-2.52h24.96c1.68 0 2.58 1.32 2.58 2.52.001 1.26-.9 2.58-2.58 2.58z"/><use xlink:href="#T"/><path d="M714.17 81.02c-6.42 0-9.84-3.54-9.9-3.6 0 1.68-1.26 2.52-2.64 2.52-1.26 0-2.52-.84-2.52-2.52V39.86c0-1.74 1.26-2.58 2.52-2.58 1.38 0 2.64.84 2.64 2.52v11.22c2.4-2.46 5.7-3.9 9.9-3.9 9.66 0 15.06 7.92 15.06 16.92-.001 9.06-5.4 16.98-15.06 16.98zm0-28.8c-6 0-9.9 4.68-9.9 11.82 0 7.2 3.9 11.88 9.9 11.88s9.9-4.68 9.9-11.88c0-7.14-3.9-11.82-9.9-11.82zm45.96 14.46h-22.2c.84 5.64 4.44 9.24 9.72 9.24 2.7 0 5.4-.96 7.14-3.12.54-.6 1.14-.96 1.86-.96 1.32 0 2.7 1.2 2.7 2.64 0 .72-.18 1.26-1.44 2.52-2.7 2.64-6.42 4.02-10.26 4.02-9.66 0-15.06-7.98-15.06-16.98 0-8.94 5.4-16.92 15.06-16.92 9.78 0 15 7.98 15 16.92-.001 1.32-.96 2.64-2.52 2.64zm-12.48-14.46c-5.64 0-8.94 4.14-9.72 9.3h19.44c-.84-5.76-4.44-9.3-9.72-9.3z"/><use xlink:href="#S" x="263.808"/><path d="M808.548 76.46c-2.64 2.94-6.3 4.56-10.74 4.56-9.66 0-15.06-7.92-15.06-16.98 0-9 5.4-16.92 15.06-16.92 4.44 0 8.1 1.62 10.74 4.56.48.54.72 1.14.72 1.74 0 1.32-1.32 2.58-2.7 2.58-.54 0-1.2-.24-1.86-.84-1.68-1.86-3.9-2.94-6.9-2.94-6 0-9.9 4.68-9.9 11.82 0 7.2 3.9 11.88 9.9 11.88 3 0 5.28-1.14 6.9-2.94.54-.66 1.26-.9 1.86-.9 1.38 0 2.7 1.2 2.7 2.64-.001.54-.24 1.2-.72 1.74z"/><use xlink:href="#T" x="147.178"/><path d="M851.927 80.12c-3.24 0-6-2.76-6-6.12v-34.14c0-1.74 1.26-2.58 2.58-2.58s2.58.84 2.58 2.52V74c0 .72.54 1.02.84 1.02 1.68 0 2.58 1.2 2.58 2.58.001 1.32-.9 2.52-2.58 2.52z"/><use xlink:href="#R" x="388.124"/><path d="M901.066 81.02c-3.3 0-8.82-1.02-11.64-4.5-.36-.54-.54-1.08-.54-1.56 0-1.5 1.44-2.7 2.7-2.7.72 0 1.26.36 1.86 1.02 1.86 2.04 4.92 2.64 7.62 2.64 5.4 0 7.14-1.86 7.14-4.56 0-7.68-18.3-2.94-18.3-15.3 0-6.54 6.12-8.94 11.82-8.94 3.24 0 10.86 1.62 10.86 4.98 0 1.32-1.08 2.7-2.52 2.7-.54 0-1.38-.3-1.98-.78-1.62-1.38-3.96-1.8-6.36-1.8-4.98 0-6.72 1.86-6.72 3.84 0 7.14 18.36 2.52 18.36 15.3.002 7.08-5.938 9.66-12.297 9.66zm18.84-37.738a4.319 4.319 0 1 1 0-8.639 4.319 4.319 0 1 1 0 8.639zm0 36.718c-1.32 0-2.64-.9-2.64-2.52V50.722c0-1.68 1.32-2.58 2.64-2.58 1.26 0 2.52.9 2.52 2.58V77.48c-.001 1.68-1.26 2.52-2.52 2.52z"/><use xlink:href="#Q" x="542.496"/><use xlink:href="#P" x="625.294"/><use xlink:href="#Q" x="592.535"/><path d="M410.886 141.2c-.78 0-1.62-.42-2.16-1.32l-20.16-30.3v29.04c0 1.68-1.26 2.58-2.64 2.58-1.26 0-2.52-.9-2.52-2.52v-37.618c0-1.68 1.32-2.58 2.64-2.58.84 0 1.56.36 2.16 1.26l20.16 30.3v-28.98c0-1.74 1.26-2.58 2.52-2.58 1.38 0 2.64.84 2.64 2.52v37.618c0 1.62-1.32 2.58-2.64 2.58z"/><use xlink:href="#R" x="-49.796" y="61.2"/><path d="M493.025 112.762l-9.3 26.34c-.48 1.32-1.32 2.1-2.64 2.1-1.26 0-1.98-.54-2.52-2.1l-7.02-19.8-7.08 19.8c-.48 1.44-1.32 2.1-2.58 2.1-1.2 0-2.04-.66-2.52-2.1l-9.24-26.34c-.12-.36-.12-.6-.12-.96 0-1.5 1.38-2.46 2.64-2.46.96 0 1.92.48 2.34 1.68l6.96 20.04 7.08-19.62c.48-1.38 1.08-2.1 2.52-2.1 1.32 0 2.04.66 2.52 2.1l7.02 19.62 7.02-20.04c.42-1.2 1.38-1.68 2.28-1.68 1.38 0 2.76 1.02 2.76 2.52-.001.3-.001.54-.12.9z"/></g><g fill="#11ffbd"><path d="M538.204 135.68c-2.94 4.08-7.14 6.54-13.38 6.54-12.9 0-17.46-10.68-17.46-22.38 0-11.76 4.56-22.44 17.46-22.44 6.06 0 10.5 2.4 13.32 6.54.42.54.54 1.02.54 1.5 0 1.44-1.26 2.52-2.64 2.52-.78 0-1.5-.36-2.04-1.08-1.86-2.7-4.62-4.32-9.18-4.32-8.52 0-12.3 6.3-12.3 17.28s3.78 17.28 12.3 17.28c4.56 0 7.32-1.74 9.18-4.38.54-.78 1.26-1.14 2.04-1.14 1.38 0 2.7 1.14 2.7 2.58.001.48-.18.96-.54 1.5zm28.74 5.58c-1.14 0-2.28-.66-2.52-1.98-2.4 1.86-5.34 3-8.64 3-7.44 0-13.68-6.18-13.68-13.68v-16.62c0-1.68 1.26-2.58 2.52-2.58 1.38 0 2.64.9 2.64 2.52v16.68c0 4.68 3.9 8.58 8.52 8.58 4.68 0 8.58-3.9 8.58-8.58v-16.62c0-1.86 1.2-2.64 2.52-2.64 1.38 0 2.58.9 2.58 2.58v26.82c0 1.68-1.2 2.52-2.52 2.52zm22.32-27.838c-4.62 0-8.52 3.9-8.52 8.58v16.62c0 1.68-1.26 2.58-2.64 2.58-1.26 0-2.52-.9-2.52-2.52v-26.76c0-1.68 1.38-2.58 2.52-2.58 1.2 0 2.34.66 2.58 2.04a13.88 13.88 0 0 1 8.58-3.06c1.74 0 2.64 1.2 2.64 2.58.001 1.32-.9 2.52-2.64 2.52zm31.91 27.778c-3.3 0-4.8-2.34-5.34-3.42-2.4 2.64-5.88 4.44-10.56 4.44-9.78 0-15.06-8.04-15.06-16.98s5.4-16.92 15.06-16.92c4.2 0 7.56 1.5 9.9 3.96v-.24c0-.66.24-2.7 2.52-2.7 1.26 0 2.64.66 2.64 2.52v23.16c0 .78.54 1.08.84 1.08 1.68 0 2.58 1.2 2.58 2.58 0 1.26-.9 2.52-2.58 2.52zm-15.9-27.78c-6 0-9.9 4.68-9.9 11.82 0 7.2 3.9 11.88 9.9 11.88 6.06 0 9.9-4.68 9.9-11.88.001-7.14-3.84-11.82-9.9-11.82zM642 142.22c-6.42 0-9.84-3.54-9.9-3.6 0 1.68-1.26 2.52-2.64 2.52-1.26 0-2.52-.84-2.52-2.52v-37.558c0-1.74 1.26-2.58 2.52-2.58 1.38 0 2.64.84 2.64 2.52v11.22c2.4-2.46 5.7-3.9 9.9-3.9 9.66 0 15.06 7.92 15.06 16.92-.001 9.06-5.4 16.98-15.06 16.98zm0-28.8c-6 0-9.9 4.68-9.9 11.82 0 7.2 3.9 11.88 9.9 11.88s9.9-4.68 9.9-11.88c0-7.14-3.9-11.82-9.9-11.82zm25.44 27.9c-3.24 0-6-2.76-6-6.12v-34.138c0-1.74 1.26-2.58 2.58-2.58s2.58.84 2.58 2.52V135.2c0 .72.54 1.02.84 1.02 1.68 0 2.58 1.2 2.58 2.58 0 1.32-.9 2.52-2.58 2.52z"/><use xlink:href="#O" x="527.077" y="61.2"/></g><g opacity=".7" class="T"><path d="M145.35 185.706c-1.862 2.583-4.52 4.14-8.473 4.14-8.17 0-11.057-6.763-11.057-14.172 0-7.446 2.888-14.2 11.057-14.2 3.837 0 6.648 1.52 8.435 4.142.2.2.228.38.228.608 0 .607-.57 1.063-1.178 1.063-.304 0-.607-.114-.836-.418-1.367-1.976-3.42-3.23-6.648-3.23-6.308 0-8.9 4.94-8.9 12.044 0 7.067 2.583 12.007 8.9 12.007 3.23 0 5.32-1.216 6.725-3.23.2-.38.532-.494.836-.494.57 0 1.14.494 1.14 1.102-.001.2-.076.417-.23.645zm19.493 3.494c-.532 0-1.102-.38-1.102-1.063v-1.216c-1.596 1.86-3.913 2.925-6.497 2.925-4.7 0-8.663-3.95-8.663-8.662V170.1c0-.684.57-1.063 1.103-1.063.493 0 1.063.38 1.063 1.063v11.095a6.497 6.497 0 1 0 12.994 0V170.1c0-.684.57-1.063 1.102-1.063.494 0 1.064.38 1.064 1.063v18.048c.001.683-.57 1.063-1.064 1.063z"/><use xlink:href="#U"/><use xlink:href="#V"/><use xlink:href="#U" x="41.42"/><use xlink:href="#W"/><use xlink:href="#X"/><path d="M274.342 180.196h-15.768c.342 4.332 3.153 7.485 7.295 7.485 2.052 0 4.483-.912 5.585-2.622.267-.418.57-.53.912-.53.57 0 1.178.455 1.178 1.025 0 .342 0 .418-.722 1.254-1.748 2.052-4.293 3.04-6.953 3.04-6.117 0-9.536-5.015-9.536-10.752 0-5.7 3.42-10.715 9.536-10.715s9.537 5.054 9.537 10.715c.001.57-.53 1.102-1.064 1.102zm-8.472-9.65c-4.56 0-6.953 3.495-7.295 7.485h14.628c-.342-4.332-3.154-7.485-7.333-7.485zm30.512 19.3c-6.117 0-9.536-5.015-9.536-10.752 0-5.7 3.42-10.715 9.536-10.715s9.537 5.016 9.537 10.715c.001 5.737-3.42 10.752-9.537 10.752zm0-19.3c-4.483 0-7.37 3.6-7.37 8.55s2.888 8.587 7.37 8.587c4.52 0 7.37-3.647 7.37-8.587s-2.85-8.55-7.37-8.55zm20.253-6.27h-1.178c-.912 0-1.672.76-1.672 1.633v3.116h2.85c.723 0 1.064.57 1.064 1.063 0 .532-.38 1.102-1.064 1.102h-2.85v16.946c0 .684-.53 1.063-1.063 1.063s-1.063-.342-1.063-1.063V171.2h-2.622c-.684 0-1.063-.57-1.063-1.102 0-.494.38-1.063 1.063-1.063h2.622V165.9a3.77 3.77 0 0 1 3.761-3.761h1.216c.685 0 1.103.53 1.103 1.102-.001.532-.38 1.026-1.104 1.026zm29.675 15.92h-15.768c.342 4.332 3.153 7.485 7.295 7.485 2.052 0 4.483-.912 5.585-2.622.267-.418.57-.53.912-.53.57 0 1.178.455 1.178 1.025 0 .342 0 .418-.722 1.254-1.748 2.052-4.293 3.04-6.953 3.04-6.117 0-9.536-5.015-9.536-10.752 0-5.7 3.42-10.715 9.536-10.715s9.537 5.054 9.537 10.715c.001.57-.532 1.102-1.064 1.102zm-8.472-9.65c-4.56 0-6.953 3.495-7.295 7.485h14.628c-.342-4.332-3.154-7.485-7.333-7.485zm27.777 18.694a.94.94 0 0 1-.798-.418l-6.726-8.5-6.725 8.5c-.23.304-.494.418-.798.418-.608 0-1.14-.456-1.14-1.063 0-.267.038-.494.228-.76l7.03-8.853-6.155-7.75c-.2-.266-.266-.53-.266-.76 0-.607.57-1.063 1.178-1.063a.94.94 0 0 1 .798.418l5.85 7.4 5.9-7.4c.2-.304.456-.418.76-.418.607 0 1.178.456 1.178 1.063 0 .23-.076.456-.266.685l-6.193 7.826 7.066 8.853c.23.267.305.494.305.76 0 .607-.6 1.063-1.216 1.063z"/><use xlink:href="#Y"/><use xlink:href="#V" x="198.953"/><use xlink:href="#Z"/><use xlink:href="#a"/><path d="M442.376 165.38a2.166 2.166 0 1 1 0-4.332 2.166 2.166 0 0 1 0 4.332zm0 23.822c-.532 0-1.103-.342-1.103-1.063V170.1c0-.684.532-1.063 1.103-1.063.494 0 1.063.342 1.063 1.063v18.048c0 .683-.494 1.063-1.063 1.063zm21.202-18.694l-7.484 17.82c-.23.494-.57.874-1.064.874s-.874-.38-1.102-.874l-7.485-17.78c-.075-.2-.075-.342-.075-.494 0-.607.53-1.025 1.102-1.025.342 0 .76.15.95.646l6.6 15.616 6.573-15.616c.23-.494.608-.684.988-.684.57 0 1.102.418 1.102 1.025-.001.114-.001.304-.115.494z"/><use xlink:href="#V" x="285.175"/><path d="M492.343 189.43c-2.052 0-3.762-1.9-3.762-4.027v-22.188c0-.684.57-1.063 1.103-1.063.494 0 1.063.38 1.063 1.063v22.188c0 2.432 2.697 1.026 2.697 2.736.001.645-.454 1.3-1.1 1.3zm20.177-18.884L502.222 194.9c-.76 1.786-2.317 2.28-4.065 2.28h-1.67c-.685 0-1.064-.57-1.064-1.102 0-.494.38-1.063 1.064-1.063h1.67c.836 0 1.7-.038 2.052-.912l2.166-5.167-7.864-18.4c-.076-.2-.076-.342-.076-.494 0-.607.53-1.025 1.102-1.025.342 0 .76.15.95.646l7.066 16.5 7-16.5c.2-.494.607-.646.988-.646.57 0 1.064.418 1.064 1.025-.001.153-.001.304-.077.495zm28.727 18.654c-.53 0-1.102-.38-1.102-1.063v-1.9c-1.596 2.242-4.065 3.6-7.37 3.6-6.117 0-9.536-5.015-9.536-10.752 0-5.7 3.42-10.715 9.536-10.715 3.306 0 5.775 1.368 7.37 3.572v-8.74c0-.684.57-1.063 1.102-1.063.494 0 1.064.38 1.064 1.063v24.925c0 .683-.57 1.063-1.064 1.063zm-8.473-18.655c-4.483 0-7.37 3.6-7.37 8.55s2.888 8.587 7.37 8.587c4.52 0 7.37-3.647 7.37-8.587s-2.85-8.55-7.37-8.55zm22.838.343c-3.57 0-6.497 2.888-6.497 6.497v10.753c0 .684-.57 1.063-1.063 1.063-.532 0-1.103-.38-1.103-1.063V170.1c0-.684.57-1.063 1.103-1.063.494 0 1.063.38 1.063 1.063v1.558c1.7-1.86 3.95-2.925 6.497-2.925.684 0 1.102.57 1.102 1.063 0 .532-.418 1.102-1.102 1.102zM574.65 189.2c-.53 0-1.102-.38-1.102-1.063v-1.216c-1.596 1.86-3.913 2.925-6.497 2.925-4.7 0-8.663-3.95-8.663-8.662V170.1c0-.684.57-1.063 1.103-1.063.493 0 1.063.38 1.063 1.063v11.095a6.497 6.497 0 1 0 12.994 0V170.1c0-.684.57-1.063 1.102-1.063.494 0 1.064.38 1.064 1.063v18.048c.001.683-.57 1.063-1.064 1.063zm14.364 8.664c-3.23 0-7.8-1.216-7.8-2.584 0-.608.494-1.216 1.103-1.216.418 0 1.3.646 2.014.912.987.342 2.545.722 4.673.722 4.863 0 7.37-2.394 7.37-7.067v-2.66c-1.672 2.014-4.065 3.23-7.37 3.23-6.003 0-9.536-4.256-9.536-10.106 0-5.7 3.42-10.715 9.536-10.715 3.306 0 5.775 1.368 7.37 3.572v-1.824c0-.684.57-1.063 1.102-1.063.494 0 1.064.38 1.064 1.063v18.503c-.001 6.04-3.6 9.233-9.538 9.233zm0-27.318c-4.483 0-7.37 3.6-7.37 8.55 0 4.9 2.698 7.94 7.37 7.94s7.37-3.04 7.37-7.94c0-4.94-2.85-8.55-7.37-8.55zm26.286 6.84h-11.893c-.684 0-1.102-.57-1.102-1.102 0-.494.418-1.064 1.102-1.064H615.3a1.07 1.07 0 0 1 1.102 1.064c0 .532-.38 1.102-1.102 1.102z"/><use xlink:href="#U" x="449.638"/><path d="M648.21 180.196H632.44c.342 4.332 3.153 7.485 7.295 7.485 2.052 0 4.483-.912 5.585-2.622.267-.418.57-.53.912-.53.57 0 1.178.455 1.178 1.025 0 .342 0 .418-.722 1.254-1.748 2.052-4.293 3.04-6.953 3.04-6.117 0-9.536-5.015-9.536-10.752 0-5.7 3.42-10.715 9.536-10.715s9.537 5.054 9.537 10.715c0 .57-.532 1.102-1.064 1.102zm-8.473-9.65c-4.56 0-6.953 3.495-7.295 7.485h14.628c-.342-4.332-3.153-7.485-7.333-7.485z"/><use xlink:href="#b"/><use xlink:href="#c"/><use xlink:href="#a" x="253.145"/><use xlink:href="#X" x="447.929"/><use xlink:href="#W" x="482.28"/><use xlink:href="#Z" x="326.41"/><use xlink:href="#Y" x="380.713"/><use xlink:href="#b" x="116.621"/><use xlink:href="#X" x="540.458"/><use xlink:href="#U" x="627.128"/><use xlink:href="#W" x="585.707"/><use xlink:href="#c" x="161.87"/><path d="M855.263 189.2c-.53 0-1.102-.38-1.102-1.063v-11.095a6.47 6.47 0 0 0-6.497-6.497c-3.57 0-6.497 2.888-6.497 6.497v11.095c0 .684-.57 1.063-1.063 1.063-.532 0-1.103-.38-1.103-1.063V170.1c0-.684.57-1.063 1.103-1.063.494 0 1.063.38 1.063 1.063v1.216c1.7-1.86 3.95-2.926 6.497-2.926 4.7 0 8.663 3.914 8.663 8.663v11.095c.001.683-.57 1.063-1.064 1.063zm20.673 5.055c-.2 0-.38-.076-.608-.2-5.015-3.686-6.8-10.448-6.8-16.376 0-4.938 1.824-13.184 6.84-16.033.2-.076.38-.2.57-.2.607 0 1.025.608 1.025 1.18 0 .835-.15.455-1.33 1.52-3.686 3.306-4.94 8.738-4.94 13.525 0 4.408 1.52 11.816 5.774 14.552.38.267.57.57.57.912a1.13 1.13 0 0 1-1.101 1.101zm21.24-5.055c-.304 0-.684-.114-.873-.494l-7.562-11.702-7.522 11.702c-.23.38-.57.494-.874.494-.57 0-1.178-.494-1.178-1.063 0-.2.114-.418.228-.608l8.093-12.538-7.22-11.208c-.114-.23-.2-.38-.2-.608 0-.607.57-1.102 1.14-1.102.304 0 .607.152.874.532l6.648 10.4 6.688-10.4c.266-.38.57-.532.874-.532.607 0 1.102.494 1.102 1.102a1.2 1.2 0 0 1-.152.608l-7.18 11.208 8.055 12.538c.114.2.2.418.2.608-.001.57-.533 1.063-1.142 1.063zm13.605 0h-8.435c-.57 0-1.103-.532-1.103-1.063v-24.925c0-.57.532-1.063 1.103-1.063h8.435c7.827 0 10.4 6.535 10.4 13.487 0 7.067-2.583 13.564-10.4 13.564zm0-24.924h-7.37v22.758h7.37c6.497 0 8.245-5.623 8.245-11.36 0-6.763-2.356-11.398-8.245-11.398zm32.337 24.964c-.304 0-.607-.152-.798-.456l-8.17-11.284h-6.8v10.64c0 .684-.57 1.063-1.063 1.063-.532 0-1.103-.38-1.103-1.063v-24.925c0-.57.532-1.063 1.103-1.063h10.258c4.294 0 7.713 3.42 7.713 7.637 0 4.18-3.268 7.484-7.408 7.713l7.18 9.954c.2.23.266.456.266.685-.001.568-.57 1.1-1.18 1.1zm-6.535-24.962h-9.232v11.056h9.194a5.53 5.53 0 0 0 5.548-5.547c-.001-3.458-2.926-5.5-5.5-5.5zm13.148 29.786c-.2.114-.418.2-.608.2-.57 0-1.063-.532-1.063-1.103 0-.342.152-.722.494-.912 4.293-2.812 5.737-10.106 5.737-14.552 0-5.015-1.33-11.132-5.7-14.134-.343-.266-.57-.57-.57-.9 0-.57.494-1.18 1.102-1.18.152 0 .38.114.532.2 5.016 2.812 6.8 11.095 6.8 16.033-.001 5.93-1.748 12.655-6.726 16.378z"/></g><defs ><path id="E" d="M110.905 610.61a2.98 2.98 0 0 1 0-5.99 2.98 2.98 0 1 1 0 5.99zm0 25.456c-.915 0-1.83-.624-1.83-1.747v-18.552c0-1.164.915-1.788 1.83-1.788a1.71 1.71 0 0 1 1.747 1.788v18.552c0 1.165-.873 1.747-1.747 1.747z"/><path id="F" d="M118.683 677.67h-.707c-3.95 0-5.45-2.08-5.45-5.5v-13.062h-1.247c-1 0-1.79-.8-1.79-1.747 0-.998.8-1.788 1.747-1.788h1.248V649.8c0-1.164.873-1.747 1.788-1.747s1.747.583 1.747 1.747v5.782h2.662c1.165 0 1.747.956 1.747 1.747 0 .998-.665 1.788-1.747 1.788h-2.662v13.436c0 1.165.416 1.58 1.58 1.58h1.04c1.08 0 1.788.8 1.788 1.746 0 1-.665 1.79-1.747 1.79z"/><path id="G" d="M715.995 910.334h-9.96c.216 2.736 1.992 4.73 4.608 4.73 1.296 0 2.832-.576 3.528-1.656.168-.264.36-.336.576-.336.36 0 .743.288.743.648 0 .216 0 .264-.456.792-1.104 1.296-2.712 1.92-4.392 1.92-3.864 0-6.024-3.168-6.024-6.793 0-3.6 2.16-6.77 6.024-6.77s6.024 3.192 6.024 6.77c.002.36-.334.696-.67.696zm-5.353-6.097c-2.88 0-4.393 2.21-4.608 4.73h9.24c-.216-2.737-1.992-4.73-4.632-4.73z"/><path id="H" d="M729.386 916.022c-.337 0-.696-.24-.696-.672v-1.2c-1.008 1.416-2.568 2.28-4.656 2.28-3.864 0-6.024-3.168-6.024-6.793 0-3.6 2.16-6.77 6.024-6.77 2.088 0 3.648.864 4.656 2.257v-5.52c0-.433.36-.672.696-.672.312 0 .672.24.672.672v15.745c0 .433-.36.673-.672.673zm-5.352-11.785c-2.833 0-4.656 2.28-4.656 5.4s1.823 5.425 4.656 5.425c2.855 0 4.656-2.304 4.656-5.425s-1.8-5.4-4.656-5.4z"/><path id="I" d="M745.034 916.022h-.023c-.793 0-1.92-.432-2.377-1.872-1.008 1.416-2.568 2.28-4.656 2.28-3.912 0-6.024-3.216-6.024-6.793 0-3.624 2.16-6.77 6.024-6.77 2.088 0 3.648.864 4.656 2.257v-1.177c0-.384.312-.672.696-.672.336 0 .672.24.672.672v9.673c0 1.536 1.73.576 1.73 1.73a.66.66 0 0 1-.697.672zm-7.057-11.785c-2.832 0-4.656 2.28-4.656 5.4s1.824 5.425 4.656 5.425c2.856 0 4.656-2.304 4.656-5.425s-1.8-5.4-4.656-5.4z"/><path id="J" d="M774.768 900.974a1.35 1.35 0 1 1 0-2.736 1.35 1.35 0 1 1 0 2.736zm0 15.048c-.336 0-.696-.216-.696-.672v-11.4c0-.432.336-.672.696-.672.312 0 .672.216.672.672v11.4a.64.64 0 0 1-.672.672z"/><path id="K" d="M782.88 900.974a1.35 1.35 0 1 1 0-2.736 1.35 1.35 0 0 1 1.368 1.368c0 .767-.6 1.368-1.368 1.368zm0 15.048c-.336 0-.696-.216-.696-.672v-11.4c0-.432.336-.672.696-.672.312 0 .672.216.672.672v11.4a.64.64 0 0 1-.672.672z"/><path id="L" d="M796.273 916.022c-.336 0-.696-.24-.696-.672v-7.01c0-2.28-1.824-4.104-4.104-4.104-2.256 0-4.104 1.824-4.104 4.104v7.01c0 .432-.36.672-.672.672-.336 0-.696-.24-.696-.672v-11.4c0-.432.36-.672.696-.672.312 0 .672.24.672.672v.77c1.08-1.176 2.496-1.85 4.104-1.85 2.977 0 5.473 2.473 5.473 5.473v7.01a.67.67 0 0 1-.673.671z"/><path id="M" d="M848.584 1046.317c-3.22 0-5.02-2.64-5.02-5.66 0-3 1.8-5.64 5.02-5.64s5.02 2.64 5.02 5.64c-.001 3.02-1.802 5.66-5.02 5.66zm0-10.162c-2.36 0-3.88 1.9-3.88 4.5s1.52 4.52 3.88 4.52c2.38 0 3.88-1.92 3.88-4.52s-1.5-4.5-3.88-4.5z"/><path id="N" d="M872.323 1036.336a3.42 3.42 0 0 0-3.421 3.42v5.66a.56.56 0 0 1-.561.561c-.28 0-.58-.2-.58-.56v-9.502c0-.36.3-.56.58-.56.26 0 .56.2.56.56v.82c.9-.98 2.08-1.54 3.42-1.54.36 0 .58.3.58.56 0 .28-.22.58-.58.58z"/><path id="O" d="M172.153 66.68h-22.2c.84 5.64 4.44 9.24 9.72 9.24 2.7 0 5.4-.96 7.14-3.12.54-.6 1.14-.96 1.86-.96 1.32 0 2.7 1.2 2.7 2.64 0 .72-.18 1.26-1.44 2.52-2.7 2.64-6.42 4.02-10.26 4.02-9.66 0-15.06-7.98-15.06-16.98 0-8.94 5.4-16.92 15.06-16.92 9.78 0 15 7.98 15 16.92 0 1.32-.96 2.64-2.52 2.64zm-12.48-14.46c-5.64 0-8.94 4.14-9.72 9.3h19.44c-.84-5.76-4.44-9.3-9.72-9.3z"/><path id="P" d="M344.65 43.282a4.3 4.3 0 1 1 0-8.639 4.3 4.3 0 1 1 0 8.639zm0 36.718c-1.32 0-2.64-.9-2.64-2.52V50.722c0-1.68 1.32-2.58 2.64-2.58 1.26 0 2.52.9 2.52 2.58V77.48c0 1.68-1.26 2.52-2.52 2.52z"/><path id="Q" d="M396.308 81.02c-3.3 0-8.82-1.02-11.64-4.5-.36-.54-.54-1.08-.54-1.56 0-1.5 1.44-2.7 2.7-2.7.72 0 1.26.36 1.86 1.02 1.86 2.04 4.92 2.64 7.62 2.64 5.4 0 7.14-1.86 7.14-4.56 0-7.68-18.3-2.94-18.3-15.3 0-6.54 6.12-8.94 11.82-8.94 3.24 0 10.86 1.62 10.86 4.98 0 1.32-1.08 2.7-2.52 2.7-.54 0-1.38-.3-1.98-.78-1.62-1.38-3.96-1.8-6.36-1.8-4.98 0-6.72 1.86-6.72 3.84 0 7.14 18.36 2.52 18.36 15.3.002 7.08-5.938 9.66-12.298 9.66z"/><path id="R" d="M483.123 81.02c-9.66 0-15.06-7.92-15.06-16.98 0-9 5.4-16.92 15.06-16.92s15.06 7.92 15.06 16.92c-.001 9.06-5.4 16.98-15.06 16.98zm0-28.8c-6 0-9.9 4.68-9.9 11.82 0 7.2 3.9 11.88 9.9 11.88 6.06 0 9.9-4.68 9.9-11.88 0-7.14-3.84-11.82-9.9-11.82z"/><path id="S" d="M516.6 52.222c-4.62 0-8.52 3.9-8.52 8.58V77.42c0 1.68-1.26 2.58-2.64 2.58-1.26 0-2.52-.9-2.52-2.52V50.722c0-1.68 1.38-2.58 2.52-2.58 1.2 0 2.34.66 2.58 2.04 2.34-1.92 5.52-3.06 8.58-3.06 1.74 0 2.64 1.2 2.64 2.58.001 1.32-.9 2.52-2.64 2.52z"/><path id="T" d="M690.468 80.06c-1.14 0-2.28-.66-2.52-1.98-2.4 1.86-5.34 3-8.64 3-7.44 0-13.68-6.18-13.68-13.68v-16.62c0-1.68 1.26-2.58 2.52-2.58 1.38 0 2.64.9 2.64 2.52V67.4c0 4.68 3.9 8.58 8.52 8.58 4.68 0 8.58-3.9 8.58-8.58v-16.62c0-1.86 1.2-2.64 2.52-2.64 1.38 0 2.58.9 2.58 2.58v26.82c0 1.68-1.2 2.52-2.52 2.52z"/><path id="U" d="M179.2 170.888c-3.57 0-6.497 2.888-6.497 6.497v10.753c0 .684-.57 1.063-1.063 1.063-.532 0-1.103-.38-1.103-1.063V170.1c0-.684.57-1.063 1.103-1.063.494 0 1.063.38 1.063 1.063v1.558c1.7-1.86 3.95-2.925 6.497-2.925.684 0 1.102.57 1.102 1.063-.001.532-.42 1.102-1.102 1.102z"/><path id="V" d="M198.58 180.196h-15.768c.342 4.332 3.153 7.485 7.295 7.485 2.052 0 4.483-.912 5.585-2.622.267-.418.57-.53.912-.53.57 0 1.178.455 1.178 1.025 0 .342 0 .418-.722 1.254-1.748 2.052-4.293 3.04-6.953 3.04-6.117 0-9.536-5.015-9.536-10.752 0-5.7 3.42-10.715 9.536-10.715s9.537 5.054 9.537 10.715c0 .57-.532 1.102-1.064 1.102zm-8.473-9.65c-4.56 0-6.953 3.495-7.295 7.485h14.628c-.342-4.332-3.153-7.485-7.333-7.485z"/><path id="W" d="M242.69 189.2h-.038c-1.254 0-3.04-.684-3.762-2.964-1.596 2.242-4.065 3.61-7.37 3.61-6.193 0-9.536-5.09-9.536-10.752 0-5.737 3.42-10.715 9.536-10.715 3.306 0 5.775 1.368 7.37 3.572v-1.862c0-.607.494-1.063 1.102-1.063.532 0 1.064.38 1.064 1.063V185.4c0 2.432 2.735.912 2.735 2.736a1.04 1.04 0 0 1-1.101 1.064zm-11.17-18.655c-4.483 0-7.37 3.61-7.37 8.55s2.888 8.587 7.37 8.587c4.52 0 7.37-3.647 7.37-8.587s-2.85-8.55-7.37-8.55z"/><path id="X" d="M253.444 189.2h-1.178c-3 0-4.483-1.48-4.483-4.445v-13.564h-1.938c-.684 0-1.063-.57-1.063-1.102 0-.494.38-1.063 1.063-1.063h1.938v-5.813c0-.684.57-1.063 1.103-1.063s1.063.38 1.063 1.063v5.813h3.495c.685 0 1.064.57 1.064 1.063 0 .532-.38 1.102-1.064 1.102h-3.495v13.564c0 1.86.532 2.28 2.317 2.28h1.178c.685 0 1.064.57 1.064 1.103 0 .493-.38 1.063-1.064 1.063z"/><path id="Y" d="M376.634 189.2h-1.178c-3 0-4.483-1.48-4.483-4.445v-13.564h-1.938c-.684 0-1.063-.57-1.063-1.102 0-.494.38-1.063 1.063-1.063h1.938v-5.813c0-.684.57-1.063 1.103-1.063s1.063.38 1.063 1.063v5.813h3.495c.685 0 1.064.57 1.064 1.063 0 .532-.38 1.102-1.064 1.102h-3.495v13.564c0 1.86.532 2.28 2.317 2.28h1.178c.685 0 1.064.57 1.064 1.103.001.493-.38 1.063-1.064 1.063z"/><path id="Z" d="M418.623 189.2c-.53 0-1.102-.38-1.102-1.063v-11.095a6.47 6.47 0 0 0-6.497-6.497c-3.57 0-6.497 2.888-6.497 6.497v11.095c0 .684-.57 1.063-1.063 1.063-.532 0-1.103-.38-1.103-1.063V170.1c0-.684.57-1.063 1.103-1.063.494 0 1.063.38 1.063 1.063v1.216c1.7-1.86 3.95-2.926 6.497-2.926 4.71 0 8.663 3.914 8.663 8.663v11.095c0 .683-.57 1.063-1.064 1.063z"/><path id="a" d="M430.33 189.923c-2.28 0-6.117-.798-7.447-3-.15-.23-.15-.418-.15-.57 0-.607.53-1.14 1.102-1.14.228 0 .607.19.836.532 1.367 1.67 3.8 2.014 5.66 2.014 3.686 0 5.547-1.216 5.547-3.686 0-5.737-12.462-2.698-12.462-10.297 0-3.837 3.837-5.32 7.295-5.32 1.976 0 5.015.685 6.535 2.204.228.228.342.494.342.722 0 .57-.57 1.14-1.178 1.14-.23 0-.494-.076-.722-.304-1.178-1.14-3.306-1.596-4.978-1.596-3.344 0-5.13 1.292-5.13 3.153 0 5.32 12.462 2.508 12.462 10.297 0 4.33-3.8 5.85-7.713 5.85z"/><path id="b" d="M659.383 189.923c-2.28 0-6.117-.798-7.447-3-.15-.23-.15-.418-.15-.57 0-.607.53-1.14 1.102-1.14.228 0 .607.19.836.532 1.367 1.67 3.8 2.014 5.66 2.014 3.686 0 5.547-1.216 5.547-3.686 0-5.737-12.462-2.698-12.462-10.297 0-3.837 3.837-5.32 7.295-5.32 1.976 0 5.016.685 6.535 2.204.228.228.342.494.342.722 0 .57-.57 1.14-1.178 1.14-.23 0-.494-.076-.722-.304-1.18-1.14-3.306-1.596-4.978-1.596-3.344 0-5.13 1.292-5.13 3.153 0 5.32 12.462 2.508 12.462 10.297-.001 4.33-3.8 5.85-7.713 5.85z"/><path id="c" d="M671.43 165.38a2.14 2.14 0 1 1 0-4.332 2.14 2.14 0 0 1 0 4.332zm0 23.822c-.532 0-1.103-.342-1.103-1.063V170.1c0-.684.532-1.063 1.103-1.063.494 0 1.063.342 1.063 1.063v18.048c.001.683-.493 1.063-1.063 1.063z"/></defs></svg>