<svg xmlns="http://www.w3.org/2000/svg" xmlns:xlink="http://www.w3.org/1999/xlink" viewBox="0 0 1080 1080" xmlns:v="https://vecta.io/nano"><style><![CDATA[.J{fill:none}.K{stroke:#fff}.L{stroke-miterlimit:10}.M{stroke-width:2}.N{opacity:.5}.O{stroke-dasharray:1.99248 5.97744}.P{fill:#fff}.Q{opacity:.7}]]></style><defs><linearGradient id="A" x1="11.716" y1="11.716" x2="1068.284" y2="1068.284" gradientUnits="userSpaceOnUse"><stop offset="0" stop-color="#5a2580"/><stop offset=".193" stop-color="#533e89"/><stop offset=".548" stop-color="#496698"/><stop offset=".829" stop-color="#427fa1"/><stop offset="1" stop-color="#4088a4"/></linearGradient><linearGradient id="B" x1="34" y1="599.924" x2="1046" y2="599.924" gradientUnits="userSpaceOnUse"><stop offset="0" stop-color="#fc4a1a"/><stop offset=".248" stop-color="#fa6d22"/><stop offset=".579" stop-color="#f9952b"/><stop offset=".841" stop-color="#f7ae31"/><stop offset="1" stop-color="#f7b733"/></linearGradient><path id="C" d="M104.76 1045.464a1.36 1.36 0 0 1-1.4-1.101 7.763 7.763 0 0 1-4.804 1.668 7.666 7.666 0 0 1-7.604-7.605v-9.24a1.434 1.434 0 0 1 2.868-.033v9.272a4.753 4.753 0 1 0 9.507 0v-9.24a1.33 1.33 0 0 1 1.4-1.468 1.364 1.364 0 0 1 1.435 1.435v14.9a1.328 1.328 0 0 1-1.401 1.4z"/><path id="D" d="M496.37 1046.38c-1.2 0-3.22-.42-3.92-1.58a.482.482 0 0 1-.08-.3.546.546 0 0 1 1.021-.32 3.812 3.812 0 0 0 2.98 1.061c1.94 0 2.92-.64 2.92-1.94 0-3.02-6.562-1.42-6.562-5.422 0-2.02 2.02-2.8 3.84-2.8a5.415 5.415 0 0 1 3.44 1.16.558.558 0 0 1 .18.38.648.648 0 0 1-.62.6.531.531 0 0 1-.38-.16 4.001 4.001 0 0 0-2.62-.84c-1.76 0-2.7.68-2.7 1.66 0 2.8 6.562 1.32 6.562 5.422 0 2.28-2 3.08-4.06 3.08z"/><path id="E" d="M507.09 1046.34c-3.22 0-5.02-2.64-5.02-5.66 0-3 1.8-5.64 5.02-5.64s5.02 2.64 5.02 5.64c0 3.02-1.8 5.66-5.02 5.66zm0-10.162c-2.36 0-3.88 1.9-3.88 4.5s1.52 4.52 3.88 4.52c2.38 0 3.88-1.92 3.88-4.52s-1.5-4.5-3.88-4.5z"/><path id="F" d="M522.87 1046a.562.562 0 0 1-.58-.561v-.64a4.442 4.442 0 0 1-3.421 1.54 4.61 4.61 0 0 1-4.561-4.561v-5.842a.57.57 0 0 1 1.14 0v5.842a3.421 3.421 0 1 0 6.842 0v-5.842a.57.57 0 0 1 1.141 0v9.502a.558.558 0 0 1-.561.561z"/><path id="G" d="M530.83 1036.358a3.418 3.418 0 0 0-3.421 3.42v5.66a.57.57 0 0 1-1.141 0v-9.502a.57.57 0 0 1 1.141 0v.82a4.565 4.565 0 0 1 3.421-1.54.57.57 0 1 1 0 1.141z"/><path id="H" d="M541.01 1044.82a4.645 4.645 0 0 1-3.58 1.521c-3.22 0-5.02-2.64-5.02-5.66 0-3 1.8-5.64 5.02-5.64a4.647 4.647 0 0 1 3.58 1.52.531.531 0 0 1 .16.381.627.627 0 0 1-.58.6.587.587 0 0 1-.42-.2 3.526 3.526 0 0 0-2.74-1.16c-2.36 0-3.88 1.9-3.88 4.5s1.52 4.52 3.88 4.52a3.596 3.596 0 0 0 2.74-1.16.587.587 0 0 1 .42-.2.594.594 0 0 1 .58.58.571.571 0 0 1-.16.399z"/><path id="I" d="M552.59 1041.26h-8.302c.18 2.28 1.66 3.94 3.84 3.94a3.615 3.615 0 0 0 2.94-1.381.525.525 0 0 1 .479-.28.611.611 0 0 1 .62.541c0 .18 0 .22-.38.66a4.72 4.72 0 0 1-3.66 1.601c-3.22 0-5.02-2.64-5.02-5.66 0-3 1.8-5.64 5.02-5.64s5.02 2.66 5.02 5.64a.606.606 0 0 1-.56.58zm-4.46-5.08c-2.4 0-3.66 1.84-3.84 3.94h7.7c-.18-2.28-1.66-3.94-3.86-3.94z"/><path id="J" d="M584.248 1046a.563.563 0 0 1-.58-.561v-5.84a3.42 3.42 0 1 0-6.841 0v5.84a.57.57 0 0 1-1.141 0v-13.122a.57.57 0 0 1 1.141 0v4.26a4.442 4.442 0 0 1 3.421-1.54 4.597 4.597 0 0 1 4.561 4.561v5.84a.558.558 0 0 1-.561.561z"/><path id="K" d="M606.726 1046h-2.28a.57.57 0 1 1 0-1.141h.56v-11.982h-.56a.56.56 0 1 1 0-1.12h2.28a.56.56 0 1 1 0 1.12h-.58v11.982h.58a.57.57 0 0 1 0 1.141z"/><path id="L" d="M618.247 1046a.563.563 0 0 1-.58-.561v-5.84a3.42 3.42 0 1 0-6.841 0v5.84a.57.57 0 0 1-1.141 0v-9.502a.57.57 0 0 1 1.141 0v.64a4.563 4.563 0 0 1 7.981 3.021v5.84a.558.558 0 0 1-.561.561z"/><path id="M" d="M634.627 1046h-.62a2.075 2.075 0 0 1-2.36-2.341v-7.142h-1.02a.57.57 0 0 1 0-1.14h1.02v-3.06a.562.562 0 0 1 .58-.561.546.546 0 0 1 .56.561v3.06h1.84a.57.57 0 0 1 0 1.14h-1.84v7.142c0 .98.28 1.2 1.22 1.2h.62a.57.57 0 0 1 0 1.141z"/><path id="N" d="M637.585 1033.457a1.14 1.14 0 1 1 1.141-1.14 1.127 1.127 0 0 1-1.141 1.14zm0 12.543a.55.55 0 0 1-.58-.561v-9.502a.551.551 0 0 1 .58-.56.545.545 0 0 1 .561.56v9.502a.536.536 0 0 1-.561.561z"/><path id="O" d="M720.786 1046a.545.545 0 0 1-.56-.561v-6.5h-7.762v6.5a.536.536 0 0 1-.561.561.55.55 0 0 1-.58-.561v-13.122a.55.55 0 0 1 .58-.561.536.536 0 0 1 .561.561v5.48h7.762v-5.48a.535.535 0 0 1 .56-.561.55.55 0 0 1 .58.561v13.122a.551.551 0 0 1-.58.561z"/><path id="P" d="M746.606 1046h-.02a2.072 2.072 0 0 1-1.98-1.561 4.536 4.536 0 0 1-3.88 1.9c-3.26 0-5.02-2.68-5.02-5.66 0-3.02 1.8-5.64 5.02-5.64a4.571 4.571 0 0 1 3.88 1.88v-.98a.564.564 0 0 1 .581-.56.546.546 0 0 1 .56.56V1044c0 1.28 1.44.48 1.44 1.44a.55.55 0 0 1-.58.561zm-5.88-9.822c-2.36 0-3.88 1.9-3.88 4.5s1.52 4.52 3.88 4.52c2.38 0 3.88-1.92 3.88-4.52s-1.5-4.5-3.88-4.5z"/><path id="Q" d="M750.984 1046.12a2.096 2.096 0 0 1-1.98-2.12v-11.683a.57.57 0 0 1 1.141 0V1044c0 1.28 1.42.54 1.42 1.44a.645.645 0 0 1-.58.681z"/><path id="R" d="M788.306 1046a.546.546 0 0 1-.561-.561v-10.862l-4.76 8.843a.528.528 0 0 1-.46.359.62.62 0 0 1-.541-.359l-4.74-8.843v10.862a.57.57 0 0 1-1.141 0v-13.122a.58.58 0 0 1 .601-.561.522.522 0 0 1 .479.28l5.302 9.902 5.32-9.902a.544.544 0 0 1 .48-.28.581.581 0 0 1 .601.561v13.122a.563.563 0 0 1-.58.561z"/><path id="S" d="M896.803 1046h-8.882a.606.606 0 0 1-.58-.561v-13.122a.59.59 0 0 1 .58-.561h8.882a.56.56 0 1 1 0 1.12h-8.32v4.92h6.1a.551.551 0 0 1 .58.561.561.561 0 0 1-.56.58h-6.12v5.92h8.32a.567.567 0 0 1 .58.58.55.55 0 0 1-.58.561z"/><path id="T" d="M44.943 994.03c.288 2.073 1.44 2.42 2.246 2.42 1.843 0 2.994-2.534 3.052-8.32a4.516 4.516 0 0 1-3.196 1.583c-2.332 0-4.463-1.67-4.463-6.392 0-4.03 1.728-6.508 4.463-6.508 3.6 0 5.327 2.073 5.327 9.56 0 8.35-1.958 11.806-5.24 11.806-2.678 0-3.686-1.612-4.09-4.03zm5.355-9.8c0-4.203-1.094-5.7-2.937-5.7-1.613 0-2.707 1.2-2.707 4.81 0 3.715 1.267 4.636 2.592 4.636a3.944 3.944 0 0 0 3.052-1.785z"/><path id="U" d="M70.17 998.176c-3.398 0-5.01-3.167-5.01-10.683s1.612-10.683 5.01-10.683 5 3.168 5 10.683-1.612 10.683-5 10.683zm0-19.638c-1.9 0-2.937 2.13-2.937 8.955s1.037 8.955 2.938 8.955 2.937-2.13 2.937-8.955-1.037-8.955-2.937-8.955z"/><path id="V" d="M201.325 997.888v-1.728h2.534v-16.7l-2.592.23v-1.267a7.973 7.973 0 0 0 3.283-1.613h1.382v19.35h2.42v1.728z"/><path id="W" d="M243.916 201.177c-.25-1.8-1.25-2.1-1.95-2.1-1.6 0-2.6 2.2-2.65 7.223a3.919 3.919 0 0 1 2.774-1.375c2.024 0 3.874 1.45 3.874 5.55 0 3.5-1.5 5.648-3.874 5.648-3.124 0-4.624-1.8-4.624-8.298 0-7.25 1.7-10.248 4.55-10.248 2.324 0 3.2 1.4 3.55 3.5zm-4.648 8.498c0 3.65.95 4.95 2.55 4.95 1.4 0 2.35-1.05 2.35-4.174 0-3.224-1.1-4.024-2.25-4.024a3.423 3.423 0 0 0-2.649 1.55z"/><path id="X" d="M183.99 51.6a8.644 8.644 0 0 0-8.52 8.58v16.62a2.501 2.501 0 0 1-2.64 2.58 2.456 2.456 0 0 1-2.52-2.52V50.1a2.541 2.541 0 0 1 2.52-2.58 2.463 2.463 0 0 1 2.58 2.04 13.874 13.874 0 0 1 8.579-3.06 2.552 2.552 0 1 1 0 5.1z"/><path id="Y" d="M232.948 42.65a4.32 4.32 0 1 1 4.32-4.319 4.302 4.302 0 0 1-4.32 4.319zm0 36.72a2.52 2.52 0 0 1-2.64-2.52V50.1a2.533 2.533 0 0 1 2.64-2.58 2.472 2.472 0 0 1 2.521 2.58v26.76a2.421 2.421 0 0 1-2.521 2.52z"/><path id="Z" d="M596.59 51.6a8.644 8.644 0 0 0-8.521 8.58v16.62a2.501 2.501 0 0 1-2.64 2.58 2.456 2.456 0 0 1-2.52-2.52V50.1a2.541 2.541 0 0 1 2.52-2.58 2.463 2.463 0 0 1 2.58 2.04 13.874 13.874 0 0 1 8.58-3.06 2.552 2.552 0 1 1 0 5.1z"/><path id="a" d="M613.57 80.39c-9.66 0-15.06-7.92-15.06-16.98 0-9 5.4-16.92 15.06-16.92s15.06 7.92 15.06 16.92c0 9.06-5.4 16.98-15.06 16.98zm0-28.8c-6 0-9.9 4.68-9.9 11.82 0 7.2 3.9 11.88 9.9 11.88 6.06 0 9.9-4.68 9.9-11.88 0-7.14-3.84-11.82-9.9-11.82z"/><path id="b" d="M857.586 79.37h-1.02c-5.7 0-7.86-3-7.86-7.92V52.6h-1.8a2.55 2.55 0 0 1-.061-5.1h1.8v-8.34a2.436 2.436 0 0 1 2.579-2.52 2.39 2.39 0 0 1 2.521 2.52v8.34h3.84a2.487 2.487 0 0 1 2.52 2.52 2.441 2.441 0 0 1-2.52 2.58h-3.84v19.38c0 1.68.6 2.28 2.28 2.28h1.5a2.475 2.475 0 0 1 2.58 2.52 2.441 2.441 0 0 1-2.52 2.58z"/><path id="c" d="M884.585 42.65a4.32 4.32 0 1 1 4.319-4.319 4.302 4.302 0 0 1-4.319 4.319zm0 36.72a2.52 2.52 0 0 1-2.64-2.52V50.1a2.533 2.533 0 0 1 2.64-2.58 2.472 2.472 0 0 1 2.52 2.58v26.76a2.421 2.421 0 0 1-2.52 2.52z"/><path id="d" d="M130.516 128a1.068 1.068 0 0 1-1.102-1.063v-11.095a6.497 6.497 0 1 0-12.994 0v11.095a1.083 1.083 0 0 1-2.166 0v-24.925a1.083 1.083 0 0 1 2.166 0v8.093a8.44 8.44 0 0 1 6.497-2.926 8.734 8.734 0 0 1 8.663 8.663v11.095a1.059 1.059 0 0 1-1.064 1.063z"/><path id="e" d="M170.378 128.646c-6.117 0-9.536-5.015-9.536-10.752 0-5.7 3.42-10.715 9.536-10.715s9.537 5.016 9.537 10.715c0 5.737-3.42 10.752-9.537 10.752zm0-19.3c-4.483 0-7.37 3.61-7.37 8.55s2.888 8.587 7.37 8.587c4.52 0 7.37-3.647 7.37-8.587s-2.85-8.55-7.37-8.55z"/><path id="f" d="M244.554 104.178a2.166 2.166 0 1 1 2.165-2.166 2.141 2.141 0 0 1-2.165 2.166zm0 23.822a1.045 1.045 0 0 1-1.103-1.063V108.89a1.047 1.047 0 0 1 1.103-1.063 1.034 1.034 0 0 1 1.063 1.063v18.048a1.016 1.016 0 0 1-1.063 1.063z"/><path id="g" d="M254.015 128.228a3.982 3.982 0 0 1-3.762-4.027v-22.188a1.083 1.083 0 0 1 2.166 0V124.2c0 2.432 2.697 1.026 2.697 2.736a1.224 1.224 0 0 1-1.102 1.291z"/><path id="h" d="M289.315 109.687a6.494 6.494 0 0 0-6.497 6.497v10.753a1.083 1.083 0 0 1-2.166 0V108.89a1.083 1.083 0 0 1 2.166 0v1.558a8.676 8.676 0 0 1 6.497-2.925 1.083 1.083 0 1 1 0 2.165z"/><path id="i" d="M329.776 128a1.068 1.068 0 0 1-1.102-1.063v-11.095a6.497 6.497 0 1 0-12.994 0v11.095a1.083 1.083 0 0 1-2.166 0V108.89a1.083 1.083 0 0 1 2.166 0v1.216a8.667 8.667 0 0 1 15.16 5.737v11.095a1.059 1.059 0 0 1-1.064 1.063z"/><path id="j" d="M426.903 118.996h-15.768c.342 4.332 3.153 7.485 7.295 7.485a6.866 6.866 0 0 0 5.585-2.622.997.997 0 0 1 .912-.531 1.161 1.161 0 0 1 1.178 1.025c0 .342 0 .418-.722 1.254a8.969 8.969 0 0 1-6.953 3.039c-6.117 0-9.536-5.015-9.536-10.752 0-5.7 3.42-10.715 9.536-10.715s9.537 5.054 9.537 10.715a1.15 1.15 0 0 1-1.065 1.102zm-8.473-9.65c-4.56 0-6.953 3.495-7.295 7.485h14.628c-.342-4.332-3.153-7.485-7.333-7.485z"/><path id="k" d="M505.485 118.996h-15.768c.342 4.332 3.153 7.485 7.295 7.485a6.866 6.866 0 0 0 5.585-2.622.997.997 0 0 1 .912-.531 1.161 1.161 0 0 1 1.178 1.025c0 .342 0 .418-.722 1.254a8.969 8.969 0 0 1-6.953 3.039c-6.117 0-9.536-5.015-9.536-10.752 0-5.7 3.42-10.715 9.536-10.715s9.537 5.054 9.537 10.715a1.15 1.15 0 0 1-1.064 1.102zm-8.473-9.65c-4.56 0-6.953 3.495-7.295 7.485h14.628c-.342-4.332-3.153-7.485-7.333-7.485z"/><path id="l" d="M528.4 128.646a8.619 8.619 0 0 1-7.371-3.609v9.84a1.083 1.083 0 1 1-2.166 0V108.89a1.083 1.083 0 0 1 2.166 0v1.862a8.686 8.686 0 0 1 7.371-3.572c6.117 0 9.536 5.016 9.536 10.715 0 5.737-3.42 10.752-9.536 10.752zm0-19.3c-4.52 0-7.37 3.61-7.37 8.55s2.85 8.587 7.37 8.587 7.37-3.647 7.37-8.587-2.85-8.55-7.37-8.55z"/><path id="m" d="M602.118 128.646c-8.055 0-8.13-9.65-8.13-15.197 0-5.434.836-13.185 8.093-13.185 7.105 0 8.17 7.295 8.17 13.185 0 5.51-.114 15.197-8.13 15.197zm5.965-15.197c0-5.434-.76-11.02-5.965-11.02-5.7 0-5.965 6.99-5.965 11.02v2.432c0 4.407.836 10.6 5.927 10.6 5.205 0 6.003-6.193 6.003-10.6z"/></defs><rect width="1080" height="1080" rx="40" fill="url(#A)"/><g class="P Q"><path d="M42.374 1045.998a7.892 7.892 0 0 1-5.503-2.002 1.364 1.364 0 0 1-1.468 1.401 1.346 1.346 0 0 1-1.401-1.401v-20.88a1.435 1.435 0 0 1 2.869-.033v6.238a7.4 7.4 0 0 1 5.503-2.169c5.37 0 8.373 4.403 8.373 9.406 0 5.037-3.002 9.44-8.373 9.44zm0-16c-3.335 0-5.503 2.602-5.503 6.57 0 4.003 2.168 6.604 5.503 6.604s5.504-2.602 5.504-6.604c0-3.97-2.168-6.57-5.504-6.57zm25.556 8.037H55.6c.467 3.136 2.468 5.137 5.403 5.137a5.003 5.003 0 0 0 3.969-1.734 1.383 1.383 0 0 1 1.034-.533 1.556 1.556 0 0 1 1.501 1.468c0 .4-.1.7-.8 1.4a8.129 8.129 0 0 1-5.704 2.235c-5.37 0-8.372-4.437-8.372-9.44 0-4.97 3.002-9.406 8.372-9.406 5.437 0 8.34 4.437 8.34 9.406a1.422 1.422 0 0 1-1.401 1.468zm-6.937-8.038c-3.136 0-4.97 2.3-5.403 5.17h10.807c-.467-3.202-2.468-5.17-5.403-5.17zm27.052 15.443a3.247 3.247 0 0 1-2.969-1.901 7.642 7.642 0 0 1-5.87 2.469c-5.437 0-8.372-4.47-8.372-9.44s3.002-9.406 8.372-9.406a7.369 7.369 0 0 1 5.504 2.202v-.134a1.376 1.376 0 0 1 1.4-1.501 1.341 1.341 0 0 1 1.468 1.401v12.875a.54.54 0 0 0 .467.601 1.418 1.418 0 1 1 0 2.835zm-8.84-15.443c-3.336 0-5.504 2.602-5.504 6.57 0 4.003 2.168 6.604 5.504 6.604 3.37 0 5.504-2.602 5.504-6.604 0-3.97-2.135-6.57-5.504-6.57z"/><use xlink:href="#C"/><path d="M115.204 1045.43h-.567c-3.17 0-4.37-1.668-4.37-4.403v-10.474h-1a1.418 1.418 0 1 1-.033-2.835h1v-4.637a1.355 1.355 0 0 1 1.435-1.4 1.328 1.328 0 0 1 1.401 1.4v4.637h2.135a1.383 1.383 0 0 1 1.4 1.401 1.356 1.356 0 0 1-1.4 1.434h-2.135v10.774c0 .934.333 1.268 1.268 1.268h.833a1.376 1.376 0 0 1 1.435 1.4 1.357 1.357 0 0 1-1.4 1.435zm4.604-20.414a2.401 2.401 0 1 1 2.402-2.401 2.392 2.392 0 0 1-2.402 2.401zm0 20.414a1.4 1.4 0 0 1-1.467-1.401v-14.876a1.408 1.408 0 0 1 1.467-1.435 1.374 1.374 0 0 1 1.401 1.435v14.876a1.346 1.346 0 0 1-1.401 1.401zm10.376-14.877h-1.5v13.442a1.364 1.364 0 0 1-1.468 1.401 1.346 1.346 0 0 1-1.401-1.401v-13.442h-1.367a1.418 1.418 0 0 1 0-2.835h1.367v-2.27a3.801 3.801 0 0 1 3.836-3.769 1.418 1.418 0 1 1 0 2.835.934.934 0 0 0-.967.9v2.302h1.5a1.418 1.418 0 1 1 0 2.835z"/><use xlink:href="#C" x="42.068"/><path d="M154.77 1045.497a3.403 3.403 0 0 1-3.336-3.402v-18.98a1.435 1.435 0 0 1 2.869-.033v19.013a.527.527 0 0 0 .467.567 1.418 1.418 0 1 1 0 2.835zm15.37-.067v-1.264c1.886-.237 2.046-.437 2.046-3.157v-6.7c0-2.8-1.248-4.017-3.064-4.017a5.597 5.597 0 0 0-3.47 1.493v9.476c0 2.527.187 2.658 2.06 2.896v1.264h-8.968v-1.264c2.254-.33 2.5-.4 2.5-3v-8.2c0-2.446-.303-2.565-2.185-2.922v-1.184a34.101 34.101 0 0 0 6.653-1.533l-.052 2.95 2.6-1.745a5.659 5.659 0 0 1 3.159-1.086c3.194 0 5.2 2.338 5.2 6.3v7.5c0 2.54.237 2.657 2.277 2.92v1.264zm23.9-3.702c-2.458 3.427-5.488 4.178-7.014 4.178-5.142 0-8.124-3.936-8.124-8.594a10.333 10.333 0 0 1 2.832-7.062 8.602 8.602 0 0 1 6.082-2.814 6.386 6.386 0 0 1 6.37 6.347c-.014.715-.08 1.277-.612 1.4-.767.184-6.17.5-10.318.647.062 4.587 2.717 6.74 5.556 6.74a6.776 6.776 0 0 0 4.543-1.866zm-7.07-12.7c-1.667 0-3.167 1.807-3.516 4.963l5.486-.118c.6-.026.848-.146.848-.792.04-2.022-1.037-4.053-2.818-4.053zm34.284.144c-1.943.343-2.248.624-3.105 2.765-1.33 3.462-3.102 8.53-4.934 13.94h-1.512l-4.65-11.46-4.55 11.46h-1.472l-4.685-14.192c-.687-1.985-.94-2.274-2.855-2.512v-1.25h9.397v1.25c-2.325.345-2.535.672-2.058 2.133l2.52 8.214c1.507-3.68 2.988-7.62 4.327-11.424h1.456c1.4 3.76 2.986 7.702 4.573 11.568.742-2.107 2.062-5.964 2.557-8.108.412-1.674-.008-2.078-2.753-2.383v-1.25h7.742zm9.4 3.748c-.92-2.606-2.155-3.984-4.2-3.984a2.166 2.166 0 0 0-2.225 2.266c0 1.497 1.046 2.264 3.16 3.216 3.278 1.496 5.3 2.787 5.3 5.736 0 3.85-3.6 5.764-6.945 5.764a12.073 12.073 0 0 1-4.92-1.161l-.662-4.892 1.252-.224c.8 2.5 2.33 4.75 4.976 4.75a2.231 2.231 0 0 0 2.438-2.281c0-1.423-.76-2.333-3.092-3.467-2.67-1.295-5.107-2.64-5.107-5.775 0-3.046 2.533-5.42 6.565-5.42a18.751 18.751 0 0 1 4.112.567l.62 4.577z"/></g><g class="P Q"><use xlink:href="#D"/><use xlink:href="#E"/><use xlink:href="#F"/><use xlink:href="#G"/><use xlink:href="#H"/><use xlink:href="#I"/><path d="M556.567 1039.438a1.14 1.14 0 1 1 0-2.28 1.14 1.14 0 0 1 0 2.28zm0 6.562a1.14 1.14 0 1 1 0-2.28 1.14 1.14 0 0 1 0 2.28zm16.963-13.123h-3.88v12.563a.551.551 0 0 1-.58.561.545.545 0 0 1-.56-.561v-12.562h-3.88a.56.56 0 1 1 0-1.12h8.9a.56.56 0 1 1 0 1.12z"/><use xlink:href="#J"/><use xlink:href="#I" x="43.9"/><use xlink:href="#K"/><use xlink:href="#L"/><path d="M624.807 1046.38c-1.2 0-3.22-.42-3.92-1.58a.482.482 0 0 1-.08-.3.546.546 0 0 1 1.02-.32 3.812 3.812 0 0 0 2.98 1.061c1.94 0 2.92-.64 2.92-1.94 0-3.02-6.562-1.42-6.562-5.422 0-2.02 2.02-2.8 3.84-2.8a5.415 5.415 0 0 1 3.44 1.16.558.558 0 0 1 .18.38.648.648 0 0 1-.62.6.531.531 0 0 1-.38-.16 4.001 4.001 0 0 0-2.62-.84c-1.76 0-2.7.68-2.7 1.66 0 2.8 6.562 1.32 6.562 5.422 0 2.28-2 3.08-4.06 3.08z"/><use xlink:href="#M"/><use xlink:href="#N"/><use xlink:href="#M" x="10.02"/><path d="M655.408 1046a.562.562 0 0 1-.58-.561v-.64a4.442 4.442 0 0 1-3.421 1.54 4.61 4.61 0 0 1-4.561-4.561v-5.842a.57.57 0 0 1 1.14 0v5.842a3.421 3.421 0 0 0 6.842 0v-5.842a.57.57 0 0 1 1.141 0v9.502a.558.558 0 0 1-.561.561z"/><use xlink:href="#M" x="27.839"/><use xlink:href="#I" x="121.278"/><path d="M685.366 1032.877h-.62a.885.885 0 0 0-.881.86v1.64h1.5a.544.544 0 0 1 .56.56.562.562 0 0 1-.56.58h-1.5v8.922a.546.546 0 0 1-.56.561.534.534 0 0 1-.561-.561v-8.922h-1.38a.57.57 0 0 1 0-1.14h1.38v-1.64a1.985 1.985 0 0 1 1.98-1.98h.64a.568.568 0 0 1 .58.58.536.536 0 0 1-.58.54z"/><use xlink:href="#E" x="185.336"/><use xlink:href="#G" x="173.556"/><use xlink:href="#O"/><use xlink:href="#I" x="180.636"/><use xlink:href="#P"/><use xlink:href="#Q"/><use xlink:href="#M" x="122.417"/><use xlink:href="#J" x="183.737"/><use xlink:href="#R"/><use xlink:href="#I" x="248.156"/><use xlink:href="#M" x="172.716"/><use xlink:href="#G" x="283.454"/><use xlink:href="#N" x="179.318"/><use xlink:href="#H" x="287.434"/><use xlink:href="#D" x="337.973"/><use xlink:href="#P" x="109.238"/><use xlink:href="#L" x="248.556"/><path d="M879.044 1046a.563.563 0 0 1-.581-.561v-1a4.536 4.536 0 0 1-3.88 1.9c-3.22 0-5.02-2.64-5.02-5.66 0-3 1.8-5.64 5.02-5.64a4.571 4.571 0 0 1 3.88 1.88v-4.6a.57.57 0 0 1 1.141 0v13.122a.558.558 0 0 1-.56.561zm-4.46-9.822c-2.36 0-3.88 1.9-3.88 4.5s1.52 4.52 3.88 4.52c2.38 0 3.88-1.92 3.88-4.52s-1.5-4.5-3.88-4.5z"/><use xlink:href="#S"/><path d="M907.122 1036.158l-3.94 9.382a.657.657 0 0 1-.56.46.681.681 0 0 1-.58-.46l-3.94-9.362a.633.633 0 0 1-.04-.26.56.56 0 0 1 .58-.54.513.513 0 0 1 .5.34l3.48 8.222 3.46-8.222a.57.57 0 0 1 1.1.18.484.484 0 0 1-.06.261z"/><use xlink:href="#P" x="172.957"/><use xlink:href="#Q" x="172.956"/><use xlink:href="#F" x="411.852"/><use xlink:href="#P" x="201.956"/><path d="M954.62 1046H954a2.075 2.075 0 0 1-2.36-2.341v-7.142h-1.02a.57.57 0 0 1 0-1.14h1.02v-3.06a.562.562 0 0 1 .58-.561.546.546 0 0 1 .56.561v3.06h1.84a.57.57 0 0 1 0 1.14h-1.84v7.142c0 .98.28 1.2 1.22 1.2h.62a.57.57 0 0 1 0 1.141z"/><use xlink:href="#N" x="319.995"/><use xlink:href="#E" x="458.45"/><use xlink:href="#L" x="363.253"/><path d="M993.18 1048.66a.735.735 0 0 1-.319-.1c-2.64-1.94-3.58-5.5-3.58-8.622 0-2.6.96-6.94 3.6-8.44a.884.884 0 0 1 .3-.101.596.596 0 0 1 .54.62c0 .44-.08.24-.7.8-1.94 1.74-2.6 4.6-2.6 7.12 0 2.32.8 6.222 3.04 7.662a.562.562 0 0 1-.28 1.06z"/><use xlink:href="#K" x="391.894"/><use xlink:href="#O" x="290.254"/><use xlink:href="#R" x="238.356"/><use xlink:href="#S" x="142.737"/><path d="M1042.46 1048.56a.672.672 0 0 1-.32.1.59.59 0 0 1-.561-.58.541.541 0 0 1 .261-.479c2.26-1.48 3.02-5.32 3.02-7.662 0-2.64-.7-5.86-3-7.44a.643.643 0 0 1-.3-.48.63.63 0 0 1 .58-.62.791.791 0 0 1 .28.101c2.64 1.48 3.58 5.84 3.58 8.44 0 3.12-.92 6.662-3.54 8.622z"/></g><path d="M1046 968.138H34v-727.12l38 9.406 38 18.784 37 9.31h38l37-46.808 150 74.977L409 316l37 28 38 28 37 75.028 38 18.718 37 28.105 38 9.346 74 37.337 38 18.838h37l38 18.76 36.96 28.052 37.04 9.332 38 18.8 37 9.264 38 18.815 38 9.317v296.426z" fill="url(#B)"/><path d="M34.64 241.018l38 9.406 38 18.784 37 9.31h38l37-46.808 150 74.977 37 9.312 37 28 38 28 37 75.028 38 18.718 37 28.105 38 9.346 74 37.337 38 18.838h37l38 18.76 36.96 28.052 37.04 9.332 38 18.8 37 9.264 38 18.815 38 9.317" class="J K L M"/><g class="J K L M N"><path d="M671 968v-1"/><path d="M671 961.023V174.99" class="O"/><path d="M671 172v-1"/></g><g class="J K L M N"><path d="M708 968v-1"/><path d="M708 961.023V174.99" class="O"/><path d="M708 172v-1"/></g><g class="J K L M N"><path d="M746 968v-1"/><path d="M746 961.023V174.99" class="O"/><path d="M746 172v-1"/></g><g class="J K L M N"><path d="M783 968v-1"/><path d="M783 961.023V174.99" class="O"/><path d="M783 172v-1"/></g><g class="J K L M N"><path d="M821 968v-1"/><path d="M821 961.023V174.99" class="O"/><path d="M821 172v-1"/></g><g class="J K L M N"><path d="M858 968v-1"/><path d="M858 961.023V174.99" class="O"/><path d="M858 172v-1"/></g><g class="J K L M N"><path d="M895 968v-1"/><path d="M895 961.023V174.99" class="O"/><path d="M895 172v-1"/></g><g class="J K L M N"><path d="M933 968v-1"/><path d="M933 961.023V174.99" class="O"/><path d="M933 172v-1"/></g><g class="J K L M N"><path d="M970 968v-1"/><path d="M970 961.023V174.99" class="O"/><path d="M970 172v-1"/></g><g class="J K L M N"><path d="M1008 968v-1"/><path d="M1008 961.023V174.99" class="O"/><path d="M1008 172v-1"/></g><g class="J K L M N"><path d="M1045 968v-1"/><path d="M1045 961.023V174.99" class="O"/><path d="M1045 172v-1"/></g><g class="J K L M N"><path d="M72 968v-1"/><path d="M72 961.023V174.99" class="O"/><path d="M72 172v-1"/></g><g class="J K L M N"><path d="M35 968v-1"/><path d="M35 961.023V174.99" class="O"/><path d="M35 172v-1"/></g><g class="J K L M N"><path d="M110 968v-1"/><path d="M110 961.023V174.99" class="O"/><path d="M110 172v-1"/></g><g class="J K L M N"><path d="M147 968v-1"/><path d="M147 961.023V174.99" class="O"/><path d="M147 172v-1"/></g><g class="J K L M N"><path d="M185 968v-1"/><path d="M185 961.023V174.99" class="O"/><path d="M185 172v-1"/></g><g class="J K L M N"><path d="M222 968v-1"/><path d="M222 961.023V174.99" class="O"/><path d="M222 172v-1"/></g><g class="J K L M N"><path d="M259 968v-1"/><path d="M259 961.023V174.99" class="O"/><path d="M259 172v-1"/></g><g class="J K L M N"><path d="M297 968v-1"/><path d="M297 961.023V174.99" class="O"/><path d="M297 172v-1"/></g><g class="J K L M N"><path d="M334 968v-1"/><path d="M334 961.023V174.99" class="O"/><path d="M334 172v-1"/></g><g class="J K L M N"><path d="M372 968v-1"/><path d="M372 961.023V174.99" class="O"/><path d="M372 172v-1"/></g><g class="J K L M N"><path d="M409 968v-1"/><path d="M409 961.023V174.99" class="O"/><path d="M409 172v-1"/></g><g class="J K L M N"><path d="M446 968v-1"/><path d="M446 961.023V174.99" class="O"/><path d="M446 172v-1"/></g><g class="J K L M N"><path d="M484 968v-1"/><path d="M484 961.023V174.99" class="O"/><path d="M484 172v-1"/></g><g class="J K L M N"><path d="M521 968v-1"/><path d="M521 961.023V174.99" class="O"/><path d="M521 172v-1"/></g><g class="J K L M N"><path d="M559 968v-1"/><path d="M559 961.023V174.99" class="O"/><path d="M559 172v-1"/></g><g class="J K L M N"><path d="M596 968v-1"/><path d="M596 961.023V174.99" class="O"/><path d="M596 172v-1"/></g><g class="J K L M N"><path d="M634 968v-1"/><path d="M634 961.023V174.99" class="O"/><path d="M634 172v-1"/></g><g class="P Q"><path d="M34.057 997.888v-1.728h2.534v-16.7L34 979.7v-1.267a7.973 7.973 0 0 0 3.283-1.613h1.382v19.35h2.42v1.728z"/><use xlink:href="#T"/><use xlink:href="#T" x="11.635"/><use xlink:href="#U"/></g><g class="P Q"><use xlink:href="#V"/><use xlink:href="#T" x="167.671"/><use xlink:href="#T" x="179.305"/><path d="M234.962 993.05c.173 1.497.807 3.397 2.65 3.397 1.785 0 3.11-1.843 3.11-5.442 0-3.887-1.324-5.097-2.85-5.097a2.867 2.867 0 0 0-2.62 2.016l-1.612-.287.7-10.54h7.313l-.172 1.728H236l-.403 6.335a4.307 4.307 0 0 1 2.764-.979c2.42 0 4.435 2.246 4.435 6.767 0 4.75-2.304 7.228-5.067 7.228-2.995 0-4.492-2.246-4.665-4.952z"/></g><g class="P Q"><path d="M499.985 997.888v-1.728c1.843-6.162 7.602-9.617 7.602-14.34 0-2.188-1.094-3.283-2.505-3.283-1.642 0-2.85 1.268-3.023 4.377h-1.9c.23-4.722 2.36-6.104 4.866-6.104 2.735 0 4.636 1.843 4.636 5.3 0 5.183-4.664 6.795-7.774 14.05h7.9v1.728z"/><use xlink:href="#U" x="445.884"/><use xlink:href="#U" x="456.943"/><path d="M533.507 981.245c.23-2.447 1.555-4.435 4.232-4.435 2.333 0 4.636 1.613 4.636 5.068 0 2.937-1.21 4.606-2.706 4.895v.058c2.332.777 3.052 2.966 3.052 5.183 0 4.262-2.477 6.162-5.067 6.162-2.765 0-4.636-2.217-4.665-5.24h1.9c.173 2.245 1.152 3.513 2.995 3.513 1.382 0 2.764-1.497 2.764-4.348 0-3.427-1.44-4.405-4.722-4.405v-1.73c3.11 0 4.376-.748 4.376-3.973 0-2.477-.98-3.456-2.418-3.456-1.785 0-2.42 1.498-2.477 2.938z"/></g><g class="P Q"><path d="M1004.474 997.886v-1.728c1.843-6.162 7.602-9.617 7.602-14.34 0-2.188-1.094-3.283-2.505-3.283-1.642 0-2.85 1.268-3.023 4.377h-1.9c.23-4.722 2.36-6.105 4.866-6.105 2.735 0 4.636 1.843 4.636 5.3 0 5.183-4.664 6.795-7.774 14.05h7.9v1.728zm16.07.288c-3.398 0-5-3.167-5-10.683s1.612-10.683 5-10.683 5 3.168 5 10.683-1.612 10.683-5 10.683zm0-19.638c-1.9 0-2.937 2.13-2.937 8.955s1.037 8.955 2.938 8.955 2.937-2.13 2.937-8.955-1.036-8.955-2.937-8.955z"/><use xlink:href="#V" x="826.935" y="-0.002"/><path d="M1036.67 977.097h9.33v1.095l-6.047 19.694h-2.188l6.047-19.062h-7.14z"/></g><path d="M530.704 409.165h29.278v25.915h-29.278l-9.406-13.035 9.406-12.88zM231.48 193.907h28.63v25.958h-28.63l-9.406-13.014 9.406-12.944zM44.402 201.85h17.514l11.087.03v25.947H61.5l-17.087-.032-9.406-13 9.406-12.946z" fill="#f3703e"/><g class="P"><use xlink:href="#W"/><path d="M251.317 216.124c-2.8 0-4.45-2.2-4.45-4.8a6.042 6.042 0 0 1 2.899-5.049 5.466 5.466 0 0 1-2.499-4.649 4.049 4.049 0 0 1 8.098 0 5.466 5.466 0 0 1-2.499 4.649 6.041 6.041 0 0 1 2.898 5.049c0 2.6-1.65 4.8-4.448 4.8zm0-8.898c-1.45 1.075-2.65 2.225-2.65 4.174 0 1.475.8 3.225 2.65 3.225s2.65-1.75 2.65-3.225c0-1.95-1.2-3.1-2.65-4.174zm0-8.148a2.198 2.198 0 0 0-2.25 2.35 4.521 4.521 0 0 0 2.25 3.999 4.52 4.52 0 0 0 2.249-3.999 2.197 2.197 0 0 0-2.249-2.35zm293.045 213.936v12.447h1.875v1.5h-1.875v4.1h-1.8v-4.1h-5.773v-.85l4.95-13.097zm-5.873 12.447h4.073v-10.797h-.05zm10.348 1.4c.15 1.3.7 2.95 2.3 2.95 1.55 0 2.7-1.6 2.7-4.724 0-3.374-1.15-4.424-2.475-4.424a2.488 2.488 0 0 0-2.274 1.75l-1.4-.25.6-9.147h6.35l-.15 1.5h-4.75l-.35 5.5a3.741 3.741 0 0 1 2.4-.85c2.1 0 3.85 1.95 3.85 5.874 0 4.124-2 6.273-4.4 6.273-2.6 0-3.898-1.95-4.05-4.3z"/></g><path d="M1035.594 658.193h-28.612v-26.015h28.612l9.406 13.056-9.406 12.96z" fill="#f3703e"/><g class="P"><path d="M1011.3 654.388v-1.5c1.6-5.35 6.598-8.348 6.598-12.447 0-1.9-.95-2.85-2.174-2.85-1.425 0-2.475 1.1-2.625 3.8h-1.65c.2-4.1 2.05-5.3 4.224-5.3 2.375 0 4.024 1.6 4.024 4.6 0 4.5-4.05 5.9-6.748 12.197h6.848v1.5zm11.047 0v-1.5h2.2v-14.496l-2.25.2v-1.1a6.912 6.912 0 0 0 2.849-1.399h1.2v16.796h2.1v1.5z"/><use xlink:href="#W" x="-186.676" y="7.937"/><path d="M60.6 205.765h8.098v.95l-5.25 17.096h-1.9l5.25-16.546H60.6zm1-164.015H39.152v12.12h15.72a2.561 2.561 0 0 1 2.58 2.58 2.523 2.523 0 0 1-2.58 2.58h-15.72v17.82a2.581 2.581 0 0 1-5.16 0V39.23a2.612 2.612 0 0 1 2.64-2.58H61.6a2.425 2.425 0 0 1 2.521 2.52 2.505 2.505 0 0 1-2.521 2.58zM88 66.05H65.8c.84 5.64 4.44 9.24 9.72 9.24a9.004 9.004 0 0 0 7.14-3.12 2.484 2.484 0 0 1 1.86-.96 2.8 2.8 0 0 1 2.7 2.64c0 .72-.18 1.26-1.44 2.52a14.622 14.622 0 0 1-10.26 4.02c-9.66 0-15.06-7.98-15.06-16.98 0-8.94 5.4-16.92 15.06-16.92 9.78 0 15 7.98 15 16.92a2.558 2.558 0 0 1-2.521 2.64zM75.5 51.6c-5.64 0-8.94 4.14-9.72 9.3h19.44c-.84-5.76-4.44-9.3-9.72-9.3zm59-.67l-9.3 26.34a2.728 2.728 0 0 1-2.641 2.1c-1.26 0-1.98-.54-2.52-2.1L113 57.47l-7.08 19.8a2.598 2.598 0 0 1-5.1 0l-9.24-26.34a2.64 2.64 0 0 1-.12-.96 2.585 2.585 0 0 1 2.64-2.46 2.378 2.378 0 0 1 2.34 1.68l6.96 20.04 7.08-19.62c.48-1.38 1.08-2.1 2.52-2.1 1.32 0 2.04.66 2.52 2.1l7.02 19.62 7.02-20.04a2.359 2.359 0 0 1 2.279-1.68 2.666 2.666 0 0 1 2.76 2.52 2.503 2.503 0 0 1-.119.9zm29.208 15.12h-22.2c.84 5.64 4.44 9.24 9.72 9.24a9.004 9.004 0 0 0 7.14-3.12 2.484 2.484 0 0 1 1.86-.96 2.8 2.8 0 0 1 2.7 2.64c0 .72-.18 1.26-1.44 2.52a14.622 14.622 0 0 1-10.26 4.02c-9.66 0-15.06-7.98-15.06-16.98 0-8.94 5.4-16.92 15.06-16.92 9.78 0 15 7.98 15 16.92a2.558 2.558 0 0 1-2.521 2.64zM151.23 51.6c-5.64 0-8.94 4.14-9.72 9.3h19.44c-.84-5.76-4.44-9.3-9.72-9.3z"/><use xlink:href="#X"/><path d="M224.068 79.37a2.388 2.388 0 0 1-2.16-1.44l-9.84-20.34-6.9 8.64v10.62a2.58 2.58 0 0 1-5.159 0V39.17a2.58 2.58 0 0 1 5.159 0V58l16.38-20.34a2.29 2.29 0 0 1 1.859-1.02 2.719 2.719 0 0 1 2.76 2.58 2.474 2.474 0 0 1-.659 1.62l-9.84 12.3 10.8 22.5a2.373 2.373 0 0 1 .3 1.2 2.651 2.651 0 0 1-2.7 2.52z"/><use xlink:href="#Y"/><path d="M267.986 79.3a2.436 2.436 0 0 1-2.579-2.52 14.519 14.519 0 0 1-9.9 3.6c-9.66 0-15.06-7.92-15.06-16.98 0-9 5.4-16.92 15.06-16.92a13.226 13.226 0 0 1 9.9 3.9V39.23a2.58 2.58 0 0 1 5.159-.06V76.8a2.436 2.436 0 0 1-2.58 2.52zm-12.48-27.72c-6 0-9.9 4.68-9.9 11.82 0 7.2 3.9 11.88 9.9 11.88 6.06 0 9.9-4.68 9.9-11.88 0-7.14-3.84-11.82-9.9-11.82zm31.2 28.8c-3.3 0-8.82-1.02-11.64-4.5a2.655 2.655 0 0 1 2.16-4.26 2.466 2.466 0 0 1 1.86 1.02c1.86 2.04 4.92 2.64 7.62 2.64 5.4 0 7.14-1.86 7.14-4.56 0-7.68-18.3-2.94-18.3-15.3 0-6.54 6.12-8.94 11.82-8.94 3.24 0 10.86 1.62 10.86 4.98a2.694 2.694 0 0 1-2.52 2.7 3.615 3.615 0 0 1-1.98-.78c-1.62-1.38-3.96-1.8-6.36-1.8-4.98 0-6.72 1.86-6.72 3.84 0 7.14 18.36 2.52 18.36 15.3 0 7.08-5.94 9.66-12.3 9.66zm57.96-1.02a5.839 5.839 0 0 1-5.34-3.42 13.748 13.748 0 0 1-10.56 4.44c-9.78 0-15.06-8.04-15.06-16.98s5.4-16.92 15.06-16.92a13.259 13.259 0 0 1 9.899 3.96v-.24a2.476 2.476 0 0 1 2.52-2.7 2.412 2.412 0 0 1 2.641 2.52V73.2a.971.971 0 0 0 .84 1.08 2.55 2.55 0 1 1 0 5.1zm-15.9-27.78c-6 0-9.9 4.68-9.9 11.82 0 7.2 3.9 11.88 9.9 11.88 6.06 0 9.9-4.68 9.9-11.88 0-7.14-3.84-11.82-9.9-11.82z"/><use xlink:href="#X" x="180.115"/><path d="M392.593 66.05h-22.2c.84 5.64 4.44 9.24 9.72 9.24a9.005 9.005 0 0 0 7.14-3.12 2.483 2.483 0 0 1 1.859-.96 2.8 2.8 0 0 1 2.7 2.64c0 .72-.18 1.26-1.44 2.52a14.622 14.622 0 0 1-10.26 4.02c-9.66 0-15.06-7.98-15.06-16.98 0-8.94 5.4-16.92 15.06-16.92 9.78 0 15 7.98 15 16.92a2.558 2.558 0 0 1-2.52 2.64zm-12.48-14.46c-5.64 0-8.94 4.14-9.72 9.3h19.44c-.84-5.76-4.44-9.3-9.72-9.3zm46.44 27.78h-12.42a2.73 2.73 0 0 1-2.64-2.52V39.23a2.693 2.693 0 0 1 2.64-2.58h12.42c12.36 0 16.44 10.2 16.44 21.3 0 11.16-4.08 21.42-16.44 21.42zm0-37.62h-9.9v32.52h9.9c7.74 0 11.28-5.7 11.28-16.32 0-10.44-3.54-16.2-11.28-16.2zm46.498 9.35l-16.2 36.838a6.875 6.875 0 0 1-6.6 4.02h-1.92a2.42 2.42 0 0 1-2.52-2.64 2.387 2.387 0 0 1 2.52-2.52h1.86c.78 0 1.62-.12 1.98-.96l3.96-8.88-11.7-25.86a2.163 2.163 0 0 1-.3-1.14 2.705 2.705 0 0 1 2.76-2.52 2.311 2.311 0 0 1 2.16 1.56l9.78 21.72L468.37 49a2.376 2.376 0 0 1 2.221-1.5 2.659 2.659 0 0 1 2.76 2.46 2.043 2.043 0 0 1-.3 1.14z"/><use xlink:href="#Y" x="246.342"/><path d="M512.17 79.37a2.423 2.423 0 0 1-2.52-2.52V60.17a8.55 8.55 0 1 0-17.1 0V76.8a2.55 2.55 0 0 1-2.641 2.64 2.472 2.472 0 0 1-2.52-2.58V50.03a2.387 2.387 0 0 1 2.52-2.52 2.509 2.509 0 0 1 2.58 1.98 13.703 13.703 0 0 1 22.26 10.68V76.8a2.454 2.454 0 0 1-2.58 2.58zM534 93.05c-3.66 0-12.72-1.32-12.72-4.92a2.794 2.794 0 0 1 2.58-2.7c1.38 0 .18.18 3.36 1.38a18.749 18.749 0 0 0 6.78 1.14c6.66 0 9.9-3.18 9.9-9.48v-2.7a14.038 14.038 0 0 1-9.899 3.6c-9.48 0-15.06-6.72-15.06-15.96 0-9 5.4-16.92 15.06-16.92 4.2 0 7.44 1.26 9.9 3.84v-.24a2.553 2.553 0 0 1 2.58-2.58 2.518 2.518 0 0 1 2.579 2.58v28.38c0 9.54-5.7 14.58-15.06 14.58zm0-41.458c-6 0-9.9 4.68-9.9 11.82 0 6.84 3.6 10.86 9.9 10.86s9.9-4.02 9.9-10.86c0-7.14-3.84-11.82-9.9-11.82zm43.26 1.008h-2.7v24.18a2.453 2.453 0 0 1-2.64 2.52 2.421 2.421 0 0 1-2.52-2.52V52.6h-2.46a2.55 2.55 0 0 1 0-5.1h2.46v-4.08a6.836 6.836 0 0 1 6.899-6.78 2.551 2.551 0 1 1 0 5.1 1.682 1.682 0 0 0-1.74 1.62v4.14h2.7a2.552 2.552 0 1 1 0 5.1z"/><use xlink:href="#Z"/><use xlink:href="#a"/><path d="M670.327 79.37a2.456 2.456 0 0 1-2.52-2.52v-18.9a6.33 6.33 0 0 0-12.66-.06v18.9a2.453 2.453 0 0 1-2.579 2.58 2.424 2.424 0 0 1-2.521-2.52v-18.9a6.36 6.36 0 0 0-12.72-.06v18.9a2.501 2.501 0 0 1-2.64 2.58 2.456 2.456 0 0 1-2.52-2.52V50.03a2.632 2.632 0 0 1 4.8-1.44 11.557 11.557 0 0 1 6.659-2.1 11.36 11.36 0 0 1 8.94 4.26 11.238 11.238 0 0 1 8.879-4.26 11.459 11.459 0 0 1 11.52 11.4v18.9a2.501 2.501 0 0 1-2.64 2.58zm56.22.06a2.472 2.472 0 0 1-2.52-2.58v-27.6l-11.64 21.72a2.627 2.627 0 0 1-2.4 1.62 2.857 2.857 0 0 1-2.399-1.62l-11.58-21.6v27.48a2.501 2.501 0 0 1-2.64 2.58 2.472 2.472 0 0 1-2.52-2.58v-37.5a2.526 2.526 0 0 1 2.76-2.7 2.3 2.3 0 0 1 2.16 1.5l14.22 26.46 14.28-26.46a2.304 2.304 0 0 1 2.341-1.5 2.485 2.485 0 0 1 2.579 2.7v37.5a2.501 2.501 0 0 1-2.64 2.58zm37.26-.06a5.836 5.836 0 0 1-5.34-3.42 13.748 13.748 0 0 1-10.56 4.44c-9.78 0-15.06-8.04-15.06-16.98s5.4-16.92 15.06-16.92a13.259 13.259 0 0 1 9.899 3.96v-.24a2.476 2.476 0 0 1 2.52-2.7 2.412 2.412 0 0 1 2.64 2.52V73.2a.971.971 0 0 0 .841 1.08 2.55 2.55 0 1 1 0 5.1zm-15.9-27.78c-6 0-9.9 4.68-9.9 11.82 0 7.2 3.9 11.88 9.9 11.88 6.06 0 9.9-4.68 9.9-11.88 0-7.14-3.84-11.82-9.9-11.82zm27.66 27.9a6.122 6.122 0 0 1-6-6.12V39.23a2.58 2.58 0 0 1 5.16-.06v34.2a.947.947 0 0 0 .84 1.02 2.55 2.55 0 1 1 0 5.1zm30.78-.12a2.424 2.424 0 0 1-2.521-2.52V60.17a8.55 8.55 0 1 0-17.1 0V76.8a2.55 2.55 0 0 1-2.64 2.64 2.472 2.472 0 0 1-2.52-2.58V50.03a2.387 2.387 0 0 1 2.52-2.52 2.509 2.509 0 0 1 2.58 1.98 13.702 13.702 0 0 1 22.259 10.68V76.8a2.453 2.453 0 0 1-2.579 2.58zm32.46.06a2.445 2.445 0 0 1-2.52-1.98 13.967 13.967 0 0 1-8.64 3 13.79 13.79 0 0 1-13.68-13.68V50.15a2.58 2.58 0 0 1 5.159-.06v16.68a8.55 8.55 0 1 0 17.1 0V50.15a2.393 2.393 0 0 1 2.521-2.64 2.453 2.453 0 0 1 2.579 2.58V76.9a2.389 2.389 0 0 1-2.52 2.52z"/><use xlink:href="#b"/><use xlink:href="#Z" x="280.196"/><use xlink:href="#c"/><use xlink:href="#b" x="45.898"/><use xlink:href="#c" x="27.178"/><use xlink:href="#a" x="320.093"/><path d="M976.98 79.37a2.423 2.423 0 0 1-2.52-2.52V60.17a8.55 8.55 0 1 0-17.1 0v16.62a2.55 2.55 0 0 1-2.64 2.64 2.472 2.472 0 0 1-2.52-2.58V50.03a2.387 2.387 0 0 1 2.52-2.52 2.509 2.509 0 0 1 2.58 1.98 13.702 13.702 0 0 1 22.259 10.68v16.62a2.454 2.454 0 0 1-2.58 2.58z"/><g class="Q"><path d="M43.536 128H35.1a1.151 1.151 0 0 1-1.102-1.063v-24.925a1.122 1.122 0 0 1 1.103-1.063h8.435c7.827 0 10.4 6.535 10.4 13.487 0 7.067-2.583 13.564-10.4 13.564zm0-24.924h-7.37v22.758h7.37c6.497 0 8.245-5.623 8.245-11.36 0-6.763-2.356-11.397-8.245-11.397zm31.538 15.92H59.307c.342 4.332 3.153 7.485 7.295 7.485a6.866 6.866 0 0 0 5.585-2.622.997.997 0 0 1 .912-.531 1.161 1.161 0 0 1 1.178 1.025c0 .342 0 .418-.722 1.254a8.969 8.969 0 0 1-6.953 3.039c-6.117 0-9.536-5.015-9.536-10.752 0-5.7 3.42-10.715 9.536-10.715s9.537 5.054 9.537 10.715a1.15 1.15 0 0 1-1.064 1.102zm-8.473-9.65c-4.56 0-6.953 3.495-7.295 7.485h14.628c-.342-4.332-3.153-7.485-7.333-7.485zM99.736 128h-.038a3.933 3.933 0 0 1-3.762-2.964 8.619 8.619 0 0 1-7.371 3.609c-6.193 0-9.536-5.1-9.536-10.752 0-5.737 3.42-10.715 9.536-10.715a8.686 8.686 0 0 1 7.371 3.572v-1.862a1.071 1.071 0 0 1 1.102-1.063 1.037 1.037 0 0 1 1.064 1.063V124.2c0 2.432 2.735.912 2.735 2.736A1.045 1.045 0 0 1 99.736 128zm-11.17-18.655c-4.483 0-7.37 3.6-7.37 8.55s2.888 8.587 7.37 8.587c4.52 0 7.37-3.647 7.37-8.587s-2.85-8.55-7.37-8.55zM110.5 128h-1.178c-3 0-4.483-1.48-4.483-4.445V110h-1.937a1.083 1.083 0 0 1 0-2.165h1.937v-5.813a1.068 1.068 0 0 1 1.103-1.063 1.037 1.037 0 0 1 1.063 1.063v5.813h3.495a1.083 1.083 0 0 1 0 2.165h-3.495v13.564c0 1.86.532 2.28 2.317 2.28h1.178a1.083 1.083 0 0 1 0 2.166z"/><use xlink:href="#d"/><path d="M142.22 128.722c-2.28 0-6.117-.798-7.447-3a.922.922 0 0 1-.151-.57 1.036 1.036 0 0 1 1.938-.607c1.367 1.67 3.8 2.014 5.66 2.014 3.686 0 5.547-1.216 5.547-3.686 0-5.737-12.462-2.698-12.462-10.297 0-3.837 3.837-5.32 7.295-5.32 1.976 0 5.015.685 6.535 2.204a1.064 1.064 0 0 1 .342.722 1.232 1.232 0 0 1-1.178 1.14 1.006 1.006 0 0 1-.722-.304 7.598 7.598 0 0 0-4.978-1.596c-3.344 0-5.13 1.292-5.13 3.153 0 5.32 12.462 2.508 12.462 10.297 0 4.33-3.8 5.85-7.713 5.85z"/><use xlink:href="#e"/><path d="M190.632 103.077h-1.178a1.679 1.679 0 0 0-1.672 1.633v3.116h2.85a1.035 1.035 0 0 1 1.064 1.063 1.068 1.068 0 0 1-1.064 1.102h-2.85v16.946a1.037 1.037 0 0 1-1.063 1.063 1.014 1.014 0 0 1-1.063-1.063V110h-2.622a1.083 1.083 0 0 1 0-2.165h2.622V104.7a3.769 3.769 0 0 1 3.761-3.761h1.216a1.078 1.078 0 0 1 1.103 1.102 1.019 1.019 0 0 1-1.103 1.026zm27.092 22.683a8.825 8.825 0 0 1-6.801 2.887c-6.117 0-9.536-5.015-9.536-10.752 0-5.7 3.42-10.715 9.536-10.715a8.826 8.826 0 0 1 6.801 2.888 1.006 1.006 0 0 1 .305.722 1.191 1.191 0 0 1-1.103 1.141 1.123 1.123 0 0 1-.798-.38 6.696 6.696 0 0 0-5.205-2.204c-4.483 0-7.37 3.6-7.37 8.55s2.888 8.587 7.37 8.587a6.826 6.826 0 0 0 5.205-2.204 1.079 1.079 0 0 1 1.9.722 1.089 1.089 0 0 1-.305.761z"/><use xlink:href="#d" x="107.574"/><use xlink:href="#f"/><use xlink:href="#g"/><path d="M274.95 128a1.067 1.067 0 0 1-1.102-1.063v-1.9a8.619 8.619 0 0 1-7.371 3.609c-6.117 0-9.536-5.015-9.536-10.752 0-5.7 3.42-10.715 9.536-10.715a8.686 8.686 0 0 1 7.371 3.572v-8.74a1.083 1.083 0 0 1 2.166 0v24.925A1.059 1.059 0 0 1 274.95 128zm-8.473-18.655c-4.483 0-7.37 3.61-7.37 8.55s2.888 8.587 7.37 8.587c4.52 0 7.37-3.647 7.37-8.587s-2.85-8.55-7.37-8.55z"/><use xlink:href="#h"/><path d="M308.686 118.996H292.92c.342 4.332 3.153 7.485 7.295 7.485a6.866 6.866 0 0 0 5.585-2.622.997.997 0 0 1 .912-.531 1.161 1.161 0 0 1 1.178 1.025c0 .342 0 .418-.722 1.254a8.969 8.969 0 0 1-6.953 3.039c-6.117 0-9.536-5.015-9.536-10.752 0-5.7 3.42-10.715 9.536-10.715s9.537 5.054 9.537 10.715a1.15 1.15 0 0 1-1.064 1.102zm-8.473-9.65c-4.56 0-6.953 3.495-7.295 7.485h14.628c-.342-4.332-3.153-7.485-7.333-7.485z"/><use xlink:href="#i"/><path d="M359.606 128a1.067 1.067 0 0 1-1.102-1.063v-1.216a8.44 8.44 0 0 1-6.497 2.925 8.758 8.758 0 0 1-8.663-8.662V108.89a1.083 1.083 0 0 1 2.166 0v11.095a6.497 6.497 0 0 0 12.994 0V108.89a1.083 1.083 0 0 1 2.166 0v18.048a1.059 1.059 0 0 1-1.064 1.063z"/><use xlink:href="#i" x="51.794"/><path d="M404.065 128a1.067 1.067 0 0 1-1.102-1.063v-1.9a8.619 8.619 0 0 1-7.371 3.609c-6.117 0-9.536-5.015-9.536-10.752 0-5.7 3.42-10.715 9.536-10.715a8.686 8.686 0 0 1 7.371 3.572v-8.74a1.083 1.083 0 0 1 2.166 0v24.925a1.059 1.059 0 0 1-1.064 1.063zm-8.473-18.655c-4.483 0-7.37 3.61-7.37 8.55s2.888 8.587 7.37 8.587c4.52 0 7.37-3.647 7.37-8.587s-2.85-8.55-7.37-8.55z"/><use xlink:href="#j"/><use xlink:href="#h" x="151.079"/><path d="M459.014 103.077h-1.178a1.679 1.679 0 0 0-1.672 1.633v3.116h2.85a1.035 1.035 0 0 1 1.064 1.063 1.068 1.068 0 0 1-1.064 1.102h-2.85v16.946a1.037 1.037 0 0 1-1.063 1.063 1.014 1.014 0 0 1-1.064-1.063V109.99h-2.622a1.083 1.083 0 0 1 0-2.165h2.622V104.7a3.769 3.769 0 0 1 3.761-3.761h1.216a1.078 1.078 0 0 1 1.103 1.102 1.019 1.019 0 0 1-1.102 1.026z"/><use xlink:href="#f" x="219.552"/><path d="M485.31 109.307l-7.484 17.82a1.249 1.249 0 0 1-1.064.874 1.294 1.294 0 0 1-1.102-.874l-7.484-17.78a1.206 1.206 0 0 1-.076-.494 1.062 1.062 0 0 1 1.102-1.025.976.976 0 0 1 .95.646l6.6 15.616 6.573-15.616a1.084 1.084 0 0 1 2.09.342.907.907 0 0 1-.114.494z"/><use xlink:href="#k"/><use xlink:href="#l"/><use xlink:href="#k" x="53.351"/><use xlink:href="#h" x="283.012"/><path d="M588.894 128a1.038 1.038 0 0 1-1.063-1.063v-22.72l-4.142 4.027a.936.936 0 0 1-.722.342 1.203 1.203 0 0 1-1.14-1.178 1.258 1.258 0 0 1 .342-.722l6.003-5.813a1.437 1.437 0 0 1 .722-.304c.798 0 1.103.57 1.103 1.33v25.04a1.028 1.028 0 0 1-1.103 1.063z"/><use xlink:href="#m"/><use xlink:href="#m" x="19.609"/><path d="M635.37 131.382a.995.995 0 0 1-.57.151 1.062 1.062 0 0 1-1.025-1.102c0-1.063 1.634-1.216 1.9-2.432a2.187 2.187 0 0 1 .152-4.369c1.86 0 2.28 1.9 2.28 3.077a5.425 5.425 0 0 1-2.735 4.674z"/><use xlink:href="#m" x="48.108"/><use xlink:href="#m" x="67.715"/><use xlink:href="#m" x="87.322"/><use xlink:href="#l" x="191.25"/><use xlink:href="#k" x="244.601"/><use xlink:href="#e" x="593.199"/><use xlink:href="#l" x="258.014"/><use xlink:href="#g" x="549.462"/><use xlink:href="#j" x="397.509"/></g></g></svg>