<?xml version="1.0" encoding="UTF-8"?>
<svg xmlns="http://www.w3.org/2000/svg" xmlns:xlink="http://www.w3.org/1999/xlink" width="682.2pt" height="178.3pt" viewBox="0 0 682.2 178.3" version="1.1">
<defs>
<clipPath id="clip1">
  <path d="M 629 64 L 682.199219 64 L 682.199219 112 L 629 112 Z M 629 64 "/>
</clipPath>
</defs>
<g id="surface1">
<path style=" stroke:none;fill-rule:evenodd;fill:rgb(0%,54.881287%,74.414063%);fill-opacity:1;" d="M 55.953125 142.75 C 29.667969 142.75 8.378906 125.78125 0.320313 103.351563 C 5.308594 132.15625 29.183594 153.972656 57.933594 153.972656 C 90.277344 153.972656 116.5 126.316406 116.5 92.160156 C 116.5 91.769531 116.484375 91.359375 116.464844 90.960938 C 113.320313 119.582031 86.878906 142.75 55.953125 142.75 Z M 55.953125 142.75 "/>
<path style=" stroke:none;fill-rule:evenodd;fill:rgb(93.359375%,44.309998%,1.567078%);fill-opacity:1;" d="M 172.527344 98.4375 C 172.527344 55.136719 132.238281 21.144531 82.535156 21.144531 C 68.125 21.144531 54.519531 25.636719 42.425781 30.902344 C 50.445313 28.859375 58.882813 27.757813 67.628906 27.757813 C 117.34375 27.757813 157.628906 62.246094 157.628906 105.550781 C 157.628906 132.25 142.292969 155.800781 118.910156 169.96875 C 116.984375 171.011719 105.421875 176.976563 92.527344 177.675781 C 92.527344 177.675781 102.445313 178.277344 119.730469 171.824219 C 119.785156 171.8125 119.820313 171.789063 119.871094 171.773438 C 119.964844 171.746094 120.078125 171.695313 120.175781 171.660156 L 120.175781 171.648438 C 151.078125 158.96875 172.527344 130.03125 172.527344 98.4375 Z M 172.527344 98.4375 "/>
<path style=" stroke:none;fill-rule:evenodd;fill:rgb(58.396912%,4.315186%,22.363281%);fill-opacity:1;" d="M 104.644531 52.023438 C 120.390625 71.074219 124.496094 98.144531 114.855469 122.046875 C 101.792969 154.425781 67.980469 167.339844 35.832031 154.703125 C 25.714844 150.167969 18.632813 143.109375 18.632813 143.109375 C 22.707031 149.097656 31.710938 157.855469 40.621094 161.953125 C 73.726563 177.230469 112.613281 160.578125 125.953125 127.453125 C 136.933594 100.234375 126.523438 70.789063 104.644531 52.023438 Z M 104.644531 52.023438 "/>
<path style=" stroke:none;fill-rule:evenodd;fill:rgb(0%,0%,0%);fill-opacity:1;" d="M 175.03125 110.058594 C 175.03125 110.058594 177.429688 103.015625 177.558594 90.8125 C 177.5625 90.265625 177.585938 89.710938 177.585938 89.160156 C 177.585938 39.910156 137.65625 -0.015625 88.40625 -0.015625 C 43.339844 -0.015625 6.121094 33.390625 0.0898438 76.78125 C 10.097656 41.785156 45.316406 15.921875 87.234375 15.921875 C 130.53125 15.921875 166.664063 43.507813 175.28125 80.28125 C 176.300781 85.070313 177.953125 99.339844 175.03125 110.058594 Z M 175.03125 110.058594 "/>
<path style=" stroke:none;fill-rule:evenodd;fill:rgb(91.40625%,29.80957%,58.006287%);fill-opacity:1;" d="M 90.152344 34.8125 C 84.019531 33.4375 77.90625 32.777344 71.894531 32.777344 C 73.132813 32.988281 74.382813 33.234375 75.609375 33.53125 C 117.199219 42.867188 143.800781 81.386719 135.078125 119.550781 C 128.957031 146.222656 107.253906 165.527344 80.5 171.5625 C 71.332031 173.414063 61.742188 173.265625 51.410156 169.609375 C 51.410156 169.609375 59.875 173.777344 71.875 174.703125 L 71.894531 174.691406 C 72.152344 174.703125 72.386719 174.75 72.628906 174.757813 C 73.261719 174.785156 73.867188 174.835938 74.472656 174.835938 C 114.855469 174.835938 142.003906 154.113281 149.621094 120.851563 C 158.347656 82.699219 131.75 44.167969 90.152344 34.8125 Z M 90.152344 34.8125 "/>
<path style=" stroke:none;fill-rule:evenodd;fill:rgb(10.594177%,9.812927%,9.423828%);fill-opacity:1;" d="M 539.792969 91.949219 C 542.578125 86.699219 542.007813 78.714844 542.007813 78.714844 C 542.007813 65.628906 531.335938 65.449219 531.335938 65.449219 L 503.894531 65.449219 C 498.054688 65.449219 498.171875 72.90625 498.171875 72.90625 L 498.171875 111.792969 L 509.632813 111.792969 L 509.632813 78.164063 C 509.574219 74.75 512.890625 74.535156 512.890625 74.535156 L 525.117188 74.535156 C 530.648438 74.535156 530.101563 80.882813 530.101563 80.882813 C 530.101563 88.722656 525.171875 88.199219 525.171875 88.199219 L 518.386719 88.199219 C 512.890625 88.199219 513.539063 92.722656 513.539063 92.722656 C 513.539063 94.609375 516.304688 97.363281 516.304688 97.363281 L 528.335938 111.792969 L 542.796875 111.792969 L 528.335938 96.589844 C 537.375 96.589844 539.792969 91.949219 539.792969 91.949219 Z M 539.792969 91.949219 "/>
<path style=" stroke:none;fill-rule:evenodd;fill:rgb(10.594177%,9.812927%,9.423828%);fill-opacity:1;" d="M 234.128906 64.773438 C 226.507813 64.773438 224.863281 70.335938 224.863281 70.335938 L 207.597656 111.792969 L 220.191406 111.792969 L 224.277344 101.230469 L 243.824219 101.230469 L 248 111.792969 L 260.46875 111.792969 L 243.042969 70.433594 C 239.96875 63.800781 234.128906 64.773438 234.128906 64.773438 Z M 240.167969 92.304688 L 227.925781 92.304688 C 227.925781 92.304688 226.894531 92.3125 227.265625 91.390625 L 232.890625 77.605469 C 232.890625 77.605469 233.300781 76.179688 234.039063 76.179688 C 234.789063 76.179688 235.179688 77.605469 235.179688 77.605469 L 240.828125 91.390625 C 241.203125 92.3125 240.167969 92.304688 240.167969 92.304688 Z M 240.167969 92.304688 "/>
<path style=" stroke:none;fill-rule:evenodd;fill:rgb(10.594177%,9.812927%,9.423828%);fill-opacity:1;" d="M 352.78125 64.773438 C 345.15625 64.773438 343.546875 70.335938 343.546875 70.335938 L 326.289063 111.792969 L 338.863281 111.792969 L 342.953125 101.230469 L 362.488281 101.230469 L 366.667969 111.792969 L 379.167969 111.792969 L 361.722656 70.433594 C 358.640625 63.800781 352.78125 64.773438 352.78125 64.773438 Z M 358.84375 92.304688 L 346.582031 92.304688 C 346.582031 92.304688 345.570313 92.3125 345.949219 91.390625 L 351.566406 77.605469 C 351.566406 77.605469 351.972656 76.179688 352.703125 76.179688 C 353.441406 76.179688 353.875 77.605469 353.875 77.605469 L 359.488281 91.390625 C 359.871094 92.3125 358.84375 92.304688 358.84375 92.304688 Z M 358.84375 92.304688 "/>
<path style=" stroke:none;fill-rule:evenodd;fill:rgb(10.594177%,9.812927%,9.423828%);fill-opacity:1;" d="M 454.085938 64.773438 C 446.472656 64.773438 444.851563 70.335938 444.851563 70.335938 L 427.574219 111.792969 L 440.175781 111.792969 L 444.265625 101.230469 L 463.816406 101.230469 L 468.011719 111.792969 L 480.472656 111.792969 L 463.035156 70.433594 C 459.960938 63.800781 454.085938 64.773438 454.085938 64.773438 Z M 460.136719 92.304688 L 447.902344 92.304688 C 447.902344 92.304688 446.878906 92.3125 447.253906 91.390625 L 452.863281 77.605469 C 452.863281 77.605469 453.292969 76.179688 454.019531 76.179688 L 454.023438 76.179688 C 454.753906 76.179688 455.164063 77.605469 455.164063 77.605469 L 460.796875 91.390625 C 461.167969 92.3125 460.136719 92.304688 460.136719 92.304688 Z M 460.136719 92.304688 "/>
<path style=" stroke:none;fill-rule:evenodd;fill:rgb(10.594177%,9.812927%,9.423828%);fill-opacity:1;" d="M 315.046875 64.707031 C 306.777344 64.707031 304.898438 71.53125 304.898438 71.53125 L 294.425781 99.394531 C 293.632813 101.496094 293.089844 99.601563 293.089844 99.601563 L 282.746094 72.269531 C 279.984375 63.980469 272.121094 64.722656 272.121094 64.722656 C 263.085938 64.722656 263.359375 72.113281 263.359375 72.113281 L 263.359375 111.792969 L 274.800781 111.792969 C 274.800781 111.792969 274.933594 81.363281 274.933594 79.175781 C 274.933594 76.964844 275.914063 79.175781 275.914063 79.175781 L 287.121094 108.960938 C 288.917969 113.121094 294.207031 112.484375 294.207031 112.484375 C 297.289063 112.484375 299.269531 110.902344 300.046875 109.007813 C 300.445313 108.105469 310.300781 82.257813 311.433594 79.226563 C 312.3125 76.859375 312.488281 79.242188 312.488281 79.242188 L 312.398438 111.792969 L 323.90625 111.792969 L 323.90625 71.375 C 323.90625 64.40625 315.046875 64.707031 315.046875 64.707031 Z M 315.046875 64.707031 "/>
<path style=" stroke:none;fill-rule:evenodd;fill:rgb(10.594177%,9.812927%,9.423828%);fill-opacity:1;" d="M 423.25 91.949219 C 426.085938 86.699219 425.496094 78.714844 425.496094 78.714844 C 425.496094 65.628906 414.804688 65.449219 414.804688 65.449219 L 387.394531 65.449219 C 381.546875 65.449219 381.660156 72.90625 381.660156 72.90625 L 381.660156 111.792969 L 393.101563 111.792969 L 393.101563 78.164063 C 393.066406 74.75 396.359375 74.535156 396.359375 74.535156 L 408.613281 74.535156 C 414.148438 74.535156 413.566406 80.882813 413.566406 80.882813 C 413.566406 88.722656 408.667969 88.199219 408.667969 88.199219 L 401.871094 88.199219 C 396.359375 88.199219 397.027344 92.722656 397.027344 92.722656 C 397.027344 94.609375 399.773438 97.363281 399.773438 97.363281 L 411.820313 111.792969 L 426.285156 111.792969 L 411.820313 96.589844 C 420.878906 96.589844 423.25 91.949219 423.25 91.949219 Z M 423.25 91.949219 "/>
<path style=" stroke:none;fill-rule:evenodd;fill:rgb(10.594177%,9.812927%,9.423828%);fill-opacity:1;" d="M 570.605469 64.773438 C 562.988281 64.773438 561.359375 70.335938 561.359375 70.335938 L 544.070313 111.792969 L 556.6875 111.792969 L 560.777344 101.230469 L 580.3125 101.230469 L 584.496094 111.792969 L 597.011719 111.792969 L 579.5625 70.433594 C 576.445313 63.800781 570.605469 64.773438 570.605469 64.773438 Z M 576.664063 92.304688 L 564.414063 92.304688 C 564.414063 92.304688 563.394531 92.3125 563.773438 91.390625 L 569.402344 77.605469 C 569.402344 77.605469 569.8125 76.179688 570.539063 76.179688 C 571.285156 76.179688 571.675781 77.605469 571.675781 77.605469 L 577.324219 91.390625 C 577.703125 92.3125 576.664063 92.304688 576.664063 92.304688 Z M 576.664063 92.304688 "/>
<g clip-path="url(#clip1)" clip-rule="nonzero">
<path style=" stroke:none;fill-rule:evenodd;fill:rgb(10.594177%,9.812927%,9.423828%);fill-opacity:1;" d="M 664.753906 70.433594 C 661.664063 63.800781 655.832031 64.773438 655.832031 64.773438 C 648.203125 64.773438 646.570313 70.335938 646.570313 70.335938 L 629.289063 111.792969 L 641.925781 111.792969 L 646 101.230469 L 665.546875 101.230469 L 669.726563 111.792969 L 682.199219 111.792969 Z M 661.878906 92.304688 L 649.644531 92.304688 C 649.644531 92.304688 648.621094 92.3125 648.980469 91.390625 L 654.597656 77.605469 C 654.597656 77.605469 655.035156 76.179688 655.761719 76.179688 L 655.769531 76.179688 C 656.496094 76.179688 656.902344 77.605469 656.902344 77.605469 L 662.523438 91.390625 C 662.910156 92.3125 661.878906 92.304688 661.878906 92.304688 Z M 661.878906 92.304688 "/>
</g>
<path style=" stroke:none;fill-rule:evenodd;fill:rgb(10.594177%,9.812927%,9.423828%);fill-opacity:1;" d="M 628.335938 65.449219 L 616.855469 65.449219 L 616.855469 91.683594 C 616.855469 96.8125 614.929688 99.140625 614.929688 99.140625 C 611.882813 102.9375 604.328125 102.515625 604.328125 102.515625 L 599.070313 102.535156 L 599.070313 111.734375 L 610.371094 111.792969 C 619.785156 111.792969 624.144531 107.28125 624.144531 107.28125 C 628.507813 102.910156 628.335938 96.550781 628.335938 96.550781 Z M 628.335938 65.449219 "/>
<path style=" stroke:none;fill-rule:evenodd;fill:rgb(10.594177%,9.812927%,9.423828%);fill-opacity:1;" d="M 385.800781 146.375 C 385.480469 147.359375 384.953125 148.242188 384.210938 149.03125 C 383.378906 149.929688 382.410156 150.617188 381.308594 151.089844 C 380.203125 151.5625 379.03125 151.800781 377.792969 151.800781 C 376.625 151.800781 375.507813 151.585938 374.449219 151.160156 C 373.390625 150.730469 372.457031 150.109375 371.648438 149.300781 C 371.082031 148.738281 370.652344 148.15625 370.347656 147.5625 C 370.042969 146.964844 369.824219 146.292969 369.6875 145.550781 C 369.554688 144.808594 369.46875 144.019531 369.433594 143.1875 C 369.402344 142.355469 369.386719 141.148438 369.386719 139.574219 C 369.386719 137.996094 369.402344 136.789063 369.433594 135.941406 C 369.46875 135.101563 369.554688 134.3125 369.6875 133.578125 C 369.824219 132.847656 370.042969 132.183594 370.347656 131.585938 C 370.652344 130.992188 371.082031 130.40625 371.648438 129.84375 C 373.3125 128.179688 375.363281 127.347656 377.792969 127.347656 C 380.042969 127.347656 381.921875 128.003906 383.417969 129.324219 C 384.914063 130.640625 385.84375 132.378906 386.203125 134.539063 L 383.636719 134.539063 C 383.300781 133.011719 382.621094 131.808594 381.59375 130.945313 C 380.570313 130.078125 379.300781 129.644531 377.792969 129.644531 C 377.007813 129.644531 376.253906 129.796875 375.53125 130.097656 C 374.8125 130.40625 374.183594 130.824219 373.640625 131.367188 C 373.257813 131.75 372.953125 132.160156 372.726563 132.601563 C 372.5 133.039063 372.335938 133.546875 372.21875 134.121094 C 372.109375 134.691406 372.035156 135.398438 372 136.230469 C 371.96875 137.066406 371.949219 138.175781 371.949219 139.574219 C 371.949219 140.972656 371.96875 142.082031 372 142.898438 C 372.035156 143.722656 372.109375 144.433594 372.21875 145.027344 C 372.335938 145.625 372.5 146.136719 372.726563 146.5625 C 372.953125 146.992188 373.257813 147.410156 373.640625 147.816406 C 374.15625 148.355469 374.785156 148.769531 375.515625 149.066406 C 376.246094 149.359375 377.007813 149.503906 377.792969 149.503906 C 378.695313 149.503906 379.542969 149.320313 380.347656 148.960938 C 381.144531 148.601563 381.8125 148.097656 382.351563 147.441406 C 382.824219 146.859375 383.167969 146.222656 383.382813 145.535156 C 383.597656 144.847656 383.703125 144.03125 383.703125 143.085938 L 383.703125 141.261719 L 377.792969 141.261719 L 377.792969 139 L 386.273438 139 L 386.273438 142.816406 C 386.273438 144.214844 386.113281 145.402344 385.800781 146.375 Z M 385.800781 146.375 "/>
<path style=" stroke:none;fill-rule:evenodd;fill:rgb(10.594177%,9.812927%,9.423828%);fill-opacity:1;" d="M 404.085938 147.105469 C 403.804688 148.1875 403.269531 149.121094 402.480469 149.910156 C 401.21875 151.167969 399.632813 151.800781 397.71875 151.800781 C 395.804688 151.800781 394.21875 151.167969 392.957031 149.910156 C 392.167969 149.121094 391.632813 148.1875 391.351563 147.105469 C 391.070313 146.023438 390.929688 144.753906 390.929688 143.289063 C 390.929688 141.824219 391.070313 140.554688 391.351563 139.472656 C 391.632813 138.390625 392.167969 137.457031 392.957031 136.667969 C 394.21875 135.410156 395.804688 134.78125 397.71875 134.78125 C 399.632813 134.78125 401.21875 135.410156 402.480469 136.667969 C 403.269531 137.457031 403.804688 138.390625 404.085938 139.472656 C 404.363281 140.554688 404.507813 141.824219 404.507813 143.289063 C 404.507813 144.753906 404.363281 146.023438 404.085938 147.105469 Z M 401.824219 140.25 C 401.652344 139.394531 401.300781 138.699219 400.757813 138.15625 C 399.949219 137.34375 398.933594 136.9375 397.71875 136.9375 C 396.523438 136.9375 395.523438 137.34375 394.714844 138.15625 C 394.171875 138.699219 393.8125 139.394531 393.632813 140.25 C 393.453125 141.105469 393.359375 142.121094 393.359375 143.289063 C 393.359375 144.460938 393.453125 145.472656 393.632813 146.328125 C 393.8125 147.183594 394.171875 147.882813 394.714844 148.421875 C 395.523438 149.234375 396.523438 149.640625 397.71875 149.640625 C 398.933594 149.640625 399.949219 149.234375 400.757813 148.421875 C 401.300781 147.882813 401.652344 147.183594 401.824219 146.328125 C 401.992188 145.472656 402.074219 144.460938 402.074219 143.289063 C 402.074219 142.121094 401.992188 141.105469 401.824219 140.25 Z M 401.824219 140.25 "/>
<path style=" stroke:none;fill-rule:evenodd;fill:rgb(10.594177%,9.812927%,9.423828%);fill-opacity:1;" d="M 414.371094 151.597656 C 412.996094 151.597656 411.945313 151.179688 411.210938 150.347656 C 410.480469 149.515625 410.117188 148.445313 410.117188 147.140625 L 410.117188 136.9375 L 408.019531 136.9375 L 408.019531 135.082031 L 410.117188 135.082031 L 410.117188 129.882813 L 412.546875 129.882813 L 412.546875 135.082031 L 416.09375 135.082031 L 416.09375 136.9375 L 412.546875 136.9375 L 412.546875 147.074219 C 412.546875 147.863281 412.734375 148.460938 413.101563 148.878906 C 413.472656 149.292969 414.046875 149.503906 414.808594 149.503906 L 416.09375 149.503906 L 416.09375 151.597656 Z M 414.371094 151.597656 "/>
<path style=" stroke:none;fill-rule:evenodd;fill:rgb(10.594177%,9.812927%,9.423828%);fill-opacity:1;" d="M 425.582031 151.597656 C 424.210938 151.597656 423.15625 151.179688 422.425781 150.347656 C 421.695313 149.515625 421.328125 148.445313 421.328125 147.140625 L 421.328125 136.9375 L 419.234375 136.9375 L 419.234375 135.082031 L 421.328125 135.082031 L 421.328125 129.882813 L 423.757813 129.882813 L 423.757813 135.082031 L 427.304688 135.082031 L 427.304688 136.9375 L 423.757813 136.9375 L 423.757813 147.074219 C 423.757813 147.863281 423.945313 148.460938 424.316406 148.878906 C 424.6875 149.292969 425.257813 149.503906 426.023438 149.503906 L 427.304688 149.503906 L 427.304688 151.597656 Z M 425.582031 151.597656 "/>
<path style=" stroke:none;fill-rule:evenodd;fill:rgb(10.594177%,9.812927%,9.423828%);fill-opacity:1;" d="M 441.285156 151.597656 L 441.285156 150.011719 C 440.609375 150.683594 439.921875 151.152344 439.226563 151.410156 C 438.527344 151.667969 437.617188 151.800781 436.488281 151.800781 C 435.34375 151.800781 434.398438 151.683594 433.671875 151.445313 C 432.941406 151.207031 432.3125 150.820313 431.792969 150.28125 C 431.390625 149.875 431.082031 149.378906 430.867188 148.796875 C 430.652344 148.207031 430.546875 147.578125 430.546875 146.902344 C 430.546875 145.414063 431.046875 144.246094 432.050781 143.390625 C 433.050781 142.535156 434.464844 142.105469 436.285156 142.105469 L 441.285156 142.105469 L 441.285156 140.519531 C 441.285156 139.28125 440.953125 138.363281 440.289063 137.765625 C 439.625 137.171875 438.539063 136.871094 437.03125 136.871094 C 435.972656 136.871094 435.136719 137.015625 434.515625 137.296875 C 433.894531 137.578125 433.339844 138.066406 432.84375 138.765625 L 431.1875 137.242188 C 431.910156 136.320313 432.71875 135.679688 433.621094 135.316406 C 434.519531 134.957031 435.667969 134.78125 437.0625 134.78125 C 441.496094 134.78125 443.71875 136.625 443.71875 140.316406 L 443.71875 151.597656 Z M 441.285156 143.929688 L 436.625 143.929688 C 434.148438 143.929688 432.914063 144.910156 432.914063 146.871094 C 432.914063 148.757813 434.183594 149.707031 436.726563 149.707031 C 437.578125 149.707031 438.296875 149.632813 438.871094 149.488281 C 439.445313 149.339844 439.96875 149.039063 440.441406 148.59375 C 441.003906 148.050781 441.285156 147.097656 441.285156 145.722656 Z M 441.285156 143.929688 "/>
<path style=" stroke:none;fill-rule:evenodd;fill:rgb(10.594177%,9.812927%,9.423828%);fill-opacity:1;" d="M 470.800781 147.394531 C 470.507813 148.597656 469.980469 149.582031 469.214844 150.347656 C 468.765625 150.800781 468.1875 151.152344 467.476563 151.410156 C 466.765625 151.667969 465.996094 151.800781 465.164063 151.800781 C 464.171875 151.800781 463.300781 151.640625 462.546875 151.324219 C 461.789063 151.011719 461.097656 150.4375 460.46875 149.605469 L 460.46875 151.597656 L 458.039063 151.597656 L 458.039063 127.550781 L 460.46875 127.550781 L 460.46875 136.90625 C 461.097656 136.097656 461.789063 135.539063 462.546875 135.234375 C 463.300781 134.929688 464.171875 134.78125 465.164063 134.78125 C 465.996094 134.78125 466.765625 134.90625 467.476563 135.167969 C 468.1875 135.425781 468.765625 135.78125 469.214844 136.230469 C 469.980469 136.996094 470.507813 137.980469 470.800781 139.183594 C 471.097656 140.390625 471.242188 141.757813 471.242188 143.289063 C 471.242188 144.820313 471.097656 146.1875 470.800781 147.394531 Z M 468.660156 140.808594 C 468.554688 140.074219 468.359375 139.417969 468.070313 138.832031 C 467.773438 138.246094 467.347656 137.785156 466.785156 137.445313 C 466.222656 137.109375 465.511719 136.9375 464.65625 136.9375 C 463.800781 136.9375 463.09375 137.109375 462.53125 137.445313 C 461.964844 137.785156 461.539063 138.246094 461.246094 138.832031 C 460.953125 139.417969 460.75 140.082031 460.636719 140.824219 C 460.523438 141.566406 460.46875 142.390625 460.46875 143.289063 C 460.46875 144.191406 460.523438 145.011719 460.636719 145.753906 C 460.75 146.496094 460.953125 147.164063 461.246094 147.746094 C 461.539063 148.332031 461.964844 148.796875 462.53125 149.132813 C 463.09375 149.46875 463.800781 149.640625 464.65625 149.640625 C 465.511719 149.640625 466.222656 149.46875 466.785156 149.132813 C 467.347656 148.796875 467.773438 148.332031 468.070313 147.746094 C 468.359375 147.164063 468.554688 146.503906 468.660156 145.769531 C 468.761719 145.039063 468.808594 144.214844 468.808594 143.289063 C 468.808594 142.363281 468.761719 141.539063 468.660156 140.808594 Z M 468.660156 140.808594 "/>
<path style=" stroke:none;fill-rule:evenodd;fill:rgb(10.594177%,9.812927%,9.423828%);fill-opacity:1;" d="M 477.964844 143.929688 C 477.964844 145.753906 478.382813 147.167969 479.230469 148.167969 C 480.074219 149.171875 481.28125 149.671875 482.859375 149.671875 C 483.804688 149.671875 484.601563 149.527344 485.238281 149.234375 C 485.882813 148.941406 486.539063 148.457031 487.21875 147.78125 L 488.871094 149.234375 C 487.96875 150.132813 487.074219 150.789063 486.1875 151.191406 C 485.296875 151.597656 484.167969 151.800781 482.792969 151.800781 C 480.515625 151.800781 478.738281 151.097656 477.457031 149.6875 C 476.175781 148.28125 475.53125 146.148438 475.53125 143.289063 C 475.53125 140.609375 476.136719 138.523438 477.355469 137.027344 C 478.570313 135.527344 480.234375 134.78125 482.351563 134.78125 C 484.492188 134.78125 486.164063 135.5 487.367188 136.9375 C 488.574219 138.378906 489.175781 140.339844 489.175781 142.816406 L 489.175781 143.929688 Z M 486.59375 140.535156 C 486.535156 140.1875 486.417969 139.785156 486.238281 139.335938 C 485.921875 138.570313 485.414063 137.964844 484.714844 137.511719 C 484.019531 137.066406 483.230469 136.839844 482.351563 136.839844 C 481.476563 136.839844 480.6875 137.066406 479.988281 137.511719 C 479.289063 137.964844 478.785156 138.570313 478.46875 139.335938 C 478.289063 139.785156 478.167969 140.1875 478.113281 140.535156 C 478.058594 140.886719 478.007813 141.410156 477.964844 142.105469 L 486.742188 142.105469 C 486.695313 141.410156 486.648438 140.886719 486.59375 140.535156 Z M 486.59375 140.535156 "/>
<path style=" stroke:none;fill-rule:evenodd;fill:rgb(10.594177%,9.812927%,9.423828%);fill-opacity:1;" d="M 512.175781 151.597656 L 512.175781 150.011719 C 511.5 150.683594 510.808594 151.152344 510.113281 151.410156 C 509.417969 151.667969 508.503906 151.800781 507.378906 151.800781 C 506.230469 151.800781 505.289063 151.683594 504.558594 151.445313 C 503.828125 151.207031 503.199219 150.820313 502.683594 150.28125 C 502.277344 149.875 501.96875 149.378906 501.757813 148.796875 C 501.542969 148.207031 501.433594 147.578125 501.433594 146.902344 C 501.433594 145.414063 501.933594 144.246094 502.9375 143.390625 C 503.9375 142.535156 505.351563 142.105469 507.171875 142.105469 L 512.175781 142.105469 L 512.175781 140.519531 C 512.175781 139.28125 511.839844 138.363281 511.179688 137.765625 C 510.511719 137.171875 509.425781 136.871094 507.921875 136.871094 C 506.863281 136.871094 506.023438 137.015625 505.40625 137.296875 C 504.78125 137.578125 504.226563 138.066406 503.734375 138.765625 L 502.078125 137.242188 C 502.796875 136.320313 503.605469 135.679688 504.507813 135.316406 C 505.40625 134.957031 506.554688 134.78125 507.953125 134.78125 C 512.386719 134.78125 514.605469 136.625 514.605469 140.316406 L 514.605469 151.597656 Z M 512.175781 143.929688 L 507.515625 143.929688 C 505.035156 143.929688 503.800781 144.910156 503.800781 146.871094 C 503.800781 148.757813 505.070313 149.707031 507.613281 149.707031 C 508.46875 149.707031 509.1875 149.632813 509.757813 149.488281 C 510.332031 149.339844 510.859375 149.039063 511.332031 148.59375 C 511.894531 148.050781 512.175781 147.097656 512.175781 145.722656 Z M 512.175781 143.929688 "/>
<path style=" stroke:none;fill-rule:evenodd;fill:rgb(10.594177%,9.812927%,9.423828%);fill-opacity:1;" d="M 541.691406 147.394531 C 541.398438 148.597656 540.871094 149.582031 540.105469 150.347656 C 539.65625 150.800781 539.074219 151.152344 538.367188 151.410156 C 537.65625 151.667969 536.886719 151.800781 536.050781 151.800781 C 535.0625 151.800781 534.1875 151.640625 533.433594 151.324219 C 532.679688 151.011719 531.988281 150.4375 531.355469 149.605469 L 531.355469 151.597656 L 528.925781 151.597656 L 528.925781 127.550781 L 531.355469 127.550781 L 531.355469 136.90625 C 531.988281 136.097656 532.679688 135.539063 533.433594 135.234375 C 534.1875 134.929688 535.0625 134.78125 536.050781 134.78125 C 536.886719 134.78125 537.65625 134.90625 538.367188 135.167969 C 539.074219 135.425781 539.65625 135.78125 540.105469 136.230469 C 540.871094 136.996094 541.398438 137.980469 541.691406 139.183594 C 541.984375 140.390625 542.132813 141.757813 542.132813 143.289063 C 542.132813 144.820313 541.984375 146.1875 541.691406 147.394531 Z M 539.546875 140.808594 C 539.445313 140.074219 539.25 139.417969 538.957031 138.832031 C 538.664063 138.246094 538.234375 137.785156 537.671875 137.445313 C 537.113281 137.109375 536.402344 136.9375 535.546875 136.9375 C 534.691406 136.9375 533.980469 137.109375 533.417969 137.445313 C 532.855469 137.785156 532.425781 138.246094 532.136719 138.832031 C 531.839844 139.417969 531.640625 140.082031 531.527344 140.824219 C 531.414063 141.566406 531.355469 142.390625 531.355469 143.289063 C 531.355469 144.191406 531.414063 145.011719 531.527344 145.753906 C 531.640625 146.496094 531.839844 147.164063 532.136719 147.746094 C 532.425781 148.332031 532.855469 148.796875 533.417969 149.132813 C 533.980469 149.46875 534.691406 149.640625 535.546875 149.640625 C 536.402344 149.640625 537.113281 149.46875 537.671875 149.132813 C 538.234375 148.796875 538.664063 148.332031 538.957031 147.746094 C 539.25 147.164063 539.445313 146.503906 539.546875 145.769531 C 539.648438 145.039063 539.699219 144.214844 539.699219 143.289063 C 539.699219 142.363281 539.648438 141.539063 539.546875 140.808594 Z M 539.546875 140.808594 "/>
<path style=" stroke:none;fill-rule:evenodd;fill:rgb(10.594177%,9.812927%,9.423828%);fill-opacity:1;" d="M 548.851563 143.929688 C 548.851563 145.753906 549.273438 147.167969 550.117188 148.167969 C 550.960938 149.171875 552.171875 149.671875 553.746094 149.671875 C 554.695313 149.671875 555.488281 149.527344 556.128906 149.234375 C 556.773438 148.941406 557.429688 148.457031 558.105469 147.78125 L 559.757813 149.234375 C 558.859375 150.132813 557.960938 150.789063 557.074219 151.191406 C 556.183594 151.597656 555.054688 151.800781 553.679688 151.800781 C 551.40625 151.800781 549.628906 151.097656 548.34375 149.6875 C 547.0625 148.28125 546.417969 146.148438 546.417969 143.289063 C 546.417969 140.609375 547.027344 138.523438 548.242188 137.027344 C 549.460938 135.527344 551.125 134.78125 553.242188 134.78125 C 555.382813 134.78125 557.050781 135.5 558.253906 136.9375 C 559.460938 138.378906 560.0625 140.339844 560.0625 142.816406 L 560.0625 143.929688 Z M 557.480469 140.535156 C 557.421875 140.1875 557.308594 139.785156 557.125 139.335938 C 556.8125 138.570313 556.304688 137.964844 555.605469 137.511719 C 554.90625 137.066406 554.121094 136.839844 553.242188 136.839844 C 552.363281 136.839844 551.574219 137.066406 550.875 137.511719 C 550.179688 137.964844 549.671875 138.570313 549.359375 139.335938 C 549.175781 139.785156 549.058594 140.1875 549.003906 140.535156 C 548.949219 140.886719 548.894531 141.410156 548.851563 142.105469 L 557.632813 142.105469 C 557.585938 141.410156 557.535156 140.886719 557.480469 140.535156 Z M 557.480469 140.535156 "/>
<path style=" stroke:none;fill-rule:evenodd;fill:rgb(10.594177%,9.812927%,9.423828%);fill-opacity:1;" d="M 569.894531 151.597656 C 568.519531 151.597656 567.46875 151.179688 566.734375 150.347656 C 566.003906 149.515625 565.640625 148.445313 565.640625 147.140625 L 565.640625 136.9375 L 563.542969 136.9375 L 563.542969 135.082031 L 565.640625 135.082031 L 565.640625 129.882813 L 568.070313 129.882813 L 568.070313 135.082031 L 571.617188 135.082031 L 571.617188 136.9375 L 568.070313 136.9375 L 568.070313 147.074219 C 568.070313 147.863281 568.253906 148.460938 568.625 148.878906 C 568.996094 149.292969 569.566406 149.503906 570.335938 149.503906 L 571.617188 149.503906 L 571.617188 151.597656 Z M 569.894531 151.597656 "/>
<path style=" stroke:none;fill-rule:evenodd;fill:rgb(10.594177%,9.812927%,9.423828%);fill-opacity:1;" d="M 581.105469 151.597656 C 579.730469 151.597656 578.675781 151.179688 577.945313 150.347656 C 577.214844 149.515625 576.847656 148.445313 576.847656 147.140625 L 576.847656 136.9375 L 574.753906 136.9375 L 574.753906 135.082031 L 576.847656 135.082031 L 576.847656 129.882813 L 579.277344 129.882813 L 579.277344 135.082031 L 582.824219 135.082031 L 582.824219 136.9375 L 579.277344 136.9375 L 579.277344 147.074219 C 579.277344 147.863281 579.464844 148.460938 579.835938 148.878906 C 580.207031 149.292969 580.777344 149.503906 581.542969 149.503906 L 582.824219 149.503906 L 582.824219 151.597656 Z M 581.105469 151.597656 "/>
<path style=" stroke:none;fill-rule:evenodd;fill:rgb(10.594177%,9.812927%,9.423828%);fill-opacity:1;" d="M 588.90625 143.929688 C 588.90625 145.753906 589.328125 147.167969 590.171875 148.167969 C 591.015625 149.171875 592.226563 149.671875 593.800781 149.671875 C 594.75 149.671875 595.542969 149.527344 596.183594 149.234375 C 596.824219 148.941406 597.484375 148.457031 598.160156 147.78125 L 599.816406 149.234375 C 598.914063 150.132813 598.019531 150.789063 597.128906 151.191406 C 596.238281 151.597656 595.109375 151.800781 593.734375 151.800781 C 591.460938 151.800781 589.679688 151.097656 588.398438 149.6875 C 587.117188 148.28125 586.472656 146.148438 586.472656 143.289063 C 586.472656 140.609375 587.082031 138.523438 588.296875 137.027344 C 589.511719 135.527344 591.175781 134.78125 593.296875 134.78125 C 595.4375 134.78125 597.105469 135.5 598.308594 136.9375 C 599.515625 138.378906 600.117188 140.339844 600.117188 142.816406 L 600.117188 143.929688 Z M 597.535156 140.535156 C 597.476563 140.1875 597.359375 139.785156 597.179688 139.335938 C 596.863281 138.570313 596.355469 137.964844 595.660156 137.511719 C 594.960938 137.066406 594.175781 136.839844 593.296875 136.839844 C 592.417969 136.839844 591.632813 137.066406 590.929688 137.511719 C 590.230469 137.964844 589.726563 138.570313 589.414063 139.335938 C 589.230469 139.785156 589.113281 140.1875 589.054688 140.535156 C 589.003906 140.886719 588.949219 141.410156 588.90625 142.105469 L 597.6875 142.105469 C 597.640625 141.410156 597.589844 140.886719 597.535156 140.535156 Z M 597.535156 140.535156 "/>
<path style=" stroke:none;fill-rule:evenodd;fill:rgb(10.594177%,9.812927%,9.423828%);fill-opacity:1;" d="M 614.570313 138.15625 C 614.121094 137.707031 613.6875 137.390625 613.269531 137.210938 C 612.855469 137.027344 612.332031 136.9375 611.699219 136.9375 C 610.507813 136.9375 609.546875 137.363281 608.816406 138.203125 C 608.078125 139.050781 607.714844 140.113281 607.714844 141.398438 L 607.714844 151.597656 L 605.285156 151.597656 L 605.285156 134.980469 L 607.714844 134.980469 L 607.714844 137.007813 C 608.164063 136.308594 608.816406 135.761719 609.660156 135.371094 C 610.5 134.976563 611.410156 134.78125 612.378906 134.78125 C 613.210938 134.78125 613.941406 134.898438 614.570313 135.132813 C 615.203125 135.371094 615.796875 135.769531 616.363281 136.332031 Z M 614.570313 138.15625 "/>
<path style=" stroke:none;fill-rule:evenodd;fill:rgb(10.594177%,9.812927%,9.423828%);fill-opacity:1;" d="M 643.71875 151.597656 L 641.457031 151.597656 L 637.101563 138.699219 L 632.777344 151.597656 L 630.511719 151.597656 L 625.246094 134.980469 L 627.878906 134.980469 L 631.699219 148.320313 L 636.050781 134.980469 L 638.144531 134.980469 L 642.535156 148.320313 L 646.320313 134.980469 L 648.953125 134.980469 Z M 643.71875 151.597656 "/>
<path style=" stroke:none;fill-rule:evenodd;fill:rgb(10.594177%,9.812927%,9.423828%);fill-opacity:1;" d="M 661.789063 151.597656 L 661.789063 150.011719 C 661.109375 150.683594 660.421875 151.152344 659.726563 151.410156 C 659.03125 151.667969 658.117188 151.800781 656.988281 151.800781 C 655.84375 151.800781 654.902344 151.683594 654.171875 151.445313 C 653.441406 151.207031 652.8125 150.820313 652.296875 150.28125 C 651.890625 149.875 651.582031 149.378906 651.367188 148.796875 C 651.15625 148.207031 651.046875 147.578125 651.046875 146.902344 C 651.046875 145.414063 651.546875 144.246094 652.550781 143.390625 C 653.550781 142.535156 654.964844 142.105469 656.785156 142.105469 L 661.789063 142.105469 L 661.789063 140.519531 C 661.789063 139.28125 661.453125 138.363281 660.789063 137.765625 C 660.125 137.171875 659.039063 136.871094 657.535156 136.871094 C 656.472656 136.871094 655.636719 137.015625 655.015625 137.296875 C 654.394531 137.578125 653.839844 138.066406 653.34375 138.765625 L 651.691406 137.242188 C 652.410156 136.320313 653.21875 135.679688 654.121094 135.316406 C 655.019531 134.957031 656.167969 134.78125 657.5625 134.78125 C 662 134.78125 664.21875 136.625 664.21875 140.316406 L 664.21875 151.597656 Z M 661.789063 143.929688 L 657.125 143.929688 C 654.648438 143.929688 653.414063 144.910156 653.414063 146.871094 C 653.414063 148.757813 654.683594 149.707031 657.226563 149.707031 C 658.082031 149.707031 658.796875 149.632813 659.371094 149.488281 C 659.945313 149.339844 660.46875 149.039063 660.941406 148.59375 C 661.507813 148.050781 661.789063 147.097656 661.789063 145.722656 Z M 661.789063 143.929688 "/>
<path style=" stroke:none;fill-rule:evenodd;fill:rgb(10.594177%,9.812927%,9.423828%);fill-opacity:1;" d="M 674.25 155.617188 C 673.929688 156.496094 673.539063 157.148438 673.066406 157.574219 C 672.660156 157.980469 672.175781 158.273438 671.613281 158.453125 C 671.050781 158.632813 670.453125 158.722656 669.824219 158.722656 L 668.777344 158.722656 L 668.777344 156.5625 L 669.519531 156.5625 C 670.332031 156.5625 670.921875 156.417969 671.292969 156.121094 C 671.664063 155.828125 671.984375 155.289063 672.253906 154.503906 L 673.4375 151.257813 L 667.460938 134.980469 L 670.09375 134.980469 L 674.652344 148.320313 L 679.179688 134.980469 L 681.816406 134.980469 Z M 674.25 155.617188 "/>
</g>
</svg>
