<?xml version="1.0" encoding="UTF-8"?>
<svg id="Layer_1" data-name="Layer 1" xmlns="http://www.w3.org/2000/svg" viewBox="0 0 110 110">
  <defs>
    <style>
      .cls-1 {
        fill: none;
        stroke: #000;
        stroke-linecap: round;
        stroke-linejoin: round;
        stroke-width: 3px;
      }
    </style>
  </defs>
  <path class="cls-1" d="m65.89,15.75V5h-23.17v10.75h-10.27c-1.8,0-3.26,1.46-3.26,3.26v82.73c0,1.8,1.46,3.26,3.26,3.26h43.71c1.8,0,3.26-1.46,3.26-3.26V19.01c0-1.8-1.46-3.26-3.26-3.26h-10.27Z"/>
  <path d="m63.67,57.27h-4.85c-.66,0-1.2-.54-1.2-1.2v-12.93c0-1.23-1.63-1.66-2.23-.59l-11.47,20.17c-.45.8.12,1.79,1.04,1.79h4.85c.66,0,1.2.54,1.2,1.2v12.93c0,1.23,1.63,1.66,2.23.59l11.47-20.17c.45-.8-.12-1.79-1.04-1.79Z"/>
</svg>