<svg xmlns="http://www.w3.org/2000/svg" xmlns:xlink="http://www.w3.org/1999/xlink" viewBox="0 0 1780.94 796.24">
  <defs>
    <style>
      .cls-1 {
        fill: white;
      }

      .cls-2 {
        fill: white;
      }
    </style>
  </defs>
  <g id="Text">
    <path class="cls-2" d="m671.82,359.74c-39.53,0-59-19.27-59-58.13v-122.47c0-38.87,19.47-58.13,59-58.13h148.85c39.53,0,59,19.27,59,58.13v122.47c0,38.87-19.47,58.13-59,58.13h-148.85Zm16.47-197.92c-17.07,0-25.46,8.49-25.46,26.13v104.84c0,17.31,8.39,26.13,25.46,26.13h115.91c17.07,0,25.46-8.49,25.46-26.13v-104.84c0-17.64-8.39-26.13-25.46-26.13h-115.91Zm304.29-29.39l108.42,181.59,108.42-181.59c4.19-7.84,11.38-11.43,20.96-11.43h21.56c17.97,0,27.25,9.15,27.25,28.09v210.66h-44.62v-178.98l-101.53,167.55c-4.19,7.51-10.78,11.43-18.87,11.43h-26.06c-8.39,0-14.68-3.92-19.17-11.43l-101.23-167.22v178.65h-44.63v-210.66c0-18.94,8.98-28.09,26.96-28.09h21.56c9.88,0,17.07,3.59,20.96,11.43Zm614.57-11.43v210.66c0,18.94-8.99,28.09-26.96,28.09h-24.86c-9.88,0-17.97-3.59-23.66-11.43l-163.53-184.53v195.96h-44.62v-210.66c0-18.94,8.98-28.09,26.96-28.09h24.86c9.88,0,17.97,3.59,23.66,11.43l163.83,185.18V121h44.33Zm95.24,238.74h-50.02V121h50.02v238.74Z"/>
    <path class="cls-1" d="m669.25,577.3c0,15.68,7.25,23.19,21.48,23.19h164.88v40.82h-183.3c-32.92,0-49.66-17.31-49.66-51.6v-135.54c0-34.29,16.74-51.6,49.66-51.6h183.3v40.83h-164.88c-14.23,0-21.48,7.84-21.48,23.19v110.72Zm273.42,64.01c-36.83,0-54.96-19.27-54.96-58.13v-122.47c0-38.87,18.13-58.13,54.96-58.13h138.66c36.83,0,54.96,19.27,54.96,58.13v122.47c0,38.87-18.13,58.13-54.96,58.13h-138.66Zm15.34-197.92c-15.9,0-23.71,8.49-23.71,26.13v104.84c0,17.31,7.81,26.13,23.71,26.13h107.97c15.9,0,23.71-8.49,23.71-26.13v-104.84c0-17.64-7.81-26.13-23.71-26.13h-107.97Zm219.29-40.83h192.5c36.83,0,54.96,19.27,54.96,58.13v32.01c0,37.23-16.74,56.5-50.22,58.13l60.26,88.18v2.29h-51.61l-61.1-90.47h-98.21v90.47h-46.59v-238.74Zm201.43,66.3c0-17.64-7.81-26.45-23.71-26.45h-131.13v73.48h131.13c15.9,0,23.71-8.82,23.71-26.45v-20.58Zm130.01,34.6h189.82v40.62h-189.82v-3c0,32.81,26.6,59.4,59.4,59.4h130.03v40.82h-134.15c-56.27,0-101.88-45.61-101.88-101.88v-31.99c0-57.92,46.96-104.88,104.88-104.88h131.15v40.83h-126.37c-34.83,0-63.07,27.24-63.07,62.07v-2Z"/>
    <image width="1702" height="441" transform="translate(1708.18 -214.5) scale(.57)" xlink:href="C:\Users\Eninrac\Desktop\logo_dark.png"/>
  </g>
  <g id="icon">
    <g>
      <path class="cls-2" d="m470.78,372.76v126.63c0,21.48-17.57,39.05-39.05,39.05h-222.66c-21.48,0-39.05-17.57-39.05-39.05v-229.9c0-21.48,17.57-39.05,39.05-39.05h104.22c13.15,0,23.81-10.6,23.82-23.74.02-16.6.04-38.68.08-55.31.03-13.18-10.64-23.83-23.82-23.83h-155.84c-49.84,0-90.24,40.4-90.24,90.24v333.27c0,49.84,40.4,90.24,90.24,90.24h325.75c49.84,0,90.24-40.4,90.24-90.24v-178.32c0-13.15-10.66-23.82-23.82-23.82h-55.1c-13.15,0-23.82,10.66-23.82,23.82Z"/>
      <path class="cls-1" d="m562.62,138.23v114.43c0,5.89-4.77,10.66-10.66,10.66h-113.38l-28.4,41.89v114.09c0,5.89-4.77,10.66-10.66,10.66h-124.02c-5.89,0-10.66-4.77-10.66-10.66v-107.33c0-5.89,4.77-10.66,10.66-10.66h109.47l32.31-47.71v-115.36c0-5.89,4.77-10.66,10.66-10.66h124.02c5.89,0,10.66,4.77,10.66,10.66Z"/>
    </g>
  </g>
</svg>