<?xml version="1.0" encoding="UTF-8"?>
<svg id="icon" xmlns="http://www.w3.org/2000/svg" viewBox="0 0 669.18 683.29">
  <defs>
    <style>
      .cls-1 {
        fill: #153ced;
      }

      .cls-2 {
        fill: #0f3f6e;
      }
    </style>
  </defs>
  <path class="cls-2" d="m483.37,346.23v126.63c0,21.48-17.57,39.05-39.05,39.05h-222.66c-21.48,0-39.05-17.57-39.05-39.05v-229.9c0-21.48,17.57-39.05,39.05-39.05h104.22c13.15,0,23.81-10.6,23.82-23.74.02-16.6.04-38.68.08-55.31.03-13.18-10.64-23.83-23.82-23.83h-155.84c-49.84,0-90.24,40.4-90.24,90.24v333.27c0,49.84,40.4,90.24,90.24,90.24h325.75c49.84,0,90.24-40.4,90.24-90.24v-178.32c0-13.15-10.66-23.82-23.82-23.82h-55.1c-13.15,0-23.82,10.66-23.82,23.82Z"/>
  <path class="cls-1" d="m575.21,111.7v114.43c0,5.89-4.77,10.66-10.66,10.66h-113.38l-28.4,41.89v114.09c0,5.89-4.77,10.66-10.66,10.66h-124.02c-5.89,0-10.66-4.77-10.66-10.66v-107.33c0-5.89,4.77-10.66,10.66-10.66h109.47l32.31-47.71v-115.36c0-5.89,4.77-10.66,10.66-10.66h124.02c5.89,0,10.66,4.77,10.66,10.66Z"/>
</svg>