<?xml version="1.0" encoding="UTF-8"?>
<svg id="Layer_2" data-name="Layer 2" xmlns="http://www.w3.org/2000/svg" xmlns:xlink="http://www.w3.org/1999/xlink" viewBox="0 0 72.89 363.85">
  <defs>
    <style>
      .cls-1 {
        fill: url(#linear-gradient);
      }

      .cls-1, .cls-2, .cls-3 {
        stroke-width: 0px;
      }

      .cls-2 {
        fill: #0db8ff;
      }

      .cls-3 {
        fill: #122c5e;
      }
    </style>
    <linearGradient id="linear-gradient" x1="-136.47" y1="494.03" x2="-136.47" y2="806.83" gradientTransform="translate(172.92 832.35) scale(1 -1)" gradientUnits="userSpaceOnUse">
      <stop offset="0" stop-color="#0db8ff"/>
      <stop offset=".5" stop-color="#2139e5"/>
      <stop offset="1" stop-color="#122c5e"/>
    </linearGradient>
  </defs>
  <g id="Layer_3" data-name="Layer 3">
    <rect class="cls-1" x="32.93" y="25.53" width="7.03" height="312.8"/>
  </g>
  <g>
    <path class="cls-2" d="m11.06,360.62c-.47,0-.84-.13-1.1-.4s-.39-.64-.39-1.11v-13.23c0-.49.13-.86.38-1.11s.61-.38,1.09-.38.84.13,1.09.38c.25.25.38.62.38,1.11v12.25h6.65c.41,0,.73.11.95.32.22.21.33.52.33.92s-.11.71-.33.93c-.22.22-.54.33-.95.33h-8.1Z"/>
    <path class="cls-2" d="m29.71,360.85c-1.56,0-2.92-.34-4.09-1.03-1.17-.69-2.08-1.66-2.72-2.9-.64-1.24-.96-2.71-.96-4.39,0-1.27.18-2.41.55-3.43.37-1.02.89-1.89,1.57-2.61.68-.73,1.5-1.28,2.45-1.67.96-.39,2.02-.58,3.2-.58,1.58,0,2.94.34,4.11,1.02s2.06,1.64,2.71,2.88c.64,1.24.96,2.7.96,4.38,0,1.27-.18,2.42-.55,3.44-.37,1.02-.89,1.9-1.57,2.64-.68.74-1.5,1.3-2.45,1.69-.96.39-2.02.58-3.2.58Zm0-2.52c.99,0,1.84-.23,2.53-.69.7-.46,1.23-1.13,1.61-2,.38-.87.56-1.91.56-3.12,0-1.83-.41-3.26-1.23-4.26-.82-1.01-1.98-1.51-3.48-1.51-.98,0-1.82.23-2.52.68-.7.45-1.24,1.11-1.62,1.97-.37.86-.56,1.91-.56,3.13,0,1.82.41,3.24,1.24,4.27.83,1.02,1.98,1.54,3.46,1.54Z"/>
    <path class="cls-2" d="m46.15,360.81c-.41,0-.75-.1-1-.3-.25-.2-.46-.51-.61-.94l-4.79-13.55c-.17-.49-.13-.9.1-1.24s.64-.5,1.2-.5c.41,0,.73.1.96.29.23.19.41.49.55.91l4.13,12.25h-.92l4.31-12.22c.15-.41.34-.72.57-.92.23-.2.53-.3.89-.3s.66.1.87.3c.21.2.4.51.55.94l4.17,12.2h-.8l4.2-12.25c.14-.4.32-.7.55-.9.23-.2.54-.3.94-.3.49,0,.85.17,1.08.5.23.34.26.75.09,1.24l-4.84,13.58c-.15.41-.35.72-.6.92-.24.2-.57.3-.99.3s-.74-.1-.99-.3c-.25-.2-.44-.51-.6-.94l-3.99-11.38h.53l-4.04,11.4c-.15.41-.35.72-.58.92-.24.2-.56.3-.98.3Z"/>
  </g>
  <g>
    <path class="cls-3" d="m9.26,20.23c-.49,0-.87-.14-1.13-.42-.26-.28-.4-.66-.4-1.16V4.62c0-.51.13-.9.4-1.17.26-.27.64-.4,1.13-.4s.87.14,1.13.4c.26.27.39.66.39,1.17v5.62h8.65v-5.62c0-.51.13-.9.39-1.17.26-.27.64-.4,1.13-.4s.87.14,1.13.4c.26.27.39.66.39,1.17v14.03c0,.49-.13.88-.39,1.16-.26.28-.64.42-1.13.42s-.87-.14-1.13-.42-.39-.66-.39-1.16v-5.86h-8.65v5.86c0,.49-.13.88-.38,1.16s-.64.42-1.14.42Z"/>
    <path class="cls-3" d="m27.68,20.23c-.49,0-.87-.14-1.13-.42s-.39-.66-.39-1.16V4.62c0-.51.13-.9.39-1.17.26-.27.64-.4,1.13-.4s.87.14,1.13.4c.26.27.39.66.39,1.17v14.03c0,.49-.13.88-.38,1.16-.26.28-.64.42-1.14.42Z"/>
    <path class="cls-3" d="m40.95,20.27c-1.86,0-3.43-.35-4.71-1.05-1.28-.7-2.25-1.69-2.92-2.98-.67-1.29-1-2.81-1-4.57,0-1.33.19-2.53.58-3.6.39-1.06.95-1.97,1.69-2.73.74-.75,1.64-1.33,2.7-1.74,1.06-.4,2.27-.61,3.62-.61.89,0,1.78.11,2.68.32.9.22,1.74.58,2.54,1.08.27.17.45.39.54.64s.1.51.04.77c-.07.26-.18.49-.36.68-.17.19-.39.31-.65.36-.26.05-.55-.02-.87-.19-.6-.35-1.22-.6-1.84-.76-.62-.16-1.31-.24-2.07-.24-1.18,0-2.17.23-2.98.7s-1.42,1.15-1.82,2.04c-.41.89-.61,1.98-.61,3.27,0,1.95.47,3.44,1.41,4.46s2.33,1.52,4.17,1.52c.63,0,1.28-.06,1.93-.19.65-.13,1.29-.3,1.91-.52l-.6,1.36v-5.07h-2.62c-.4,0-.7-.1-.92-.31s-.32-.48-.32-.83c0-.37.11-.64.32-.83.21-.19.52-.29.92-.29h3.93c.4,0,.7.11.92.32.21.22.32.52.32.92v5.79c0,.35-.07.64-.2.88s-.35.41-.66.52c-.7.25-1.5.47-2.41.63s-1.8.25-2.67.25Z"/>
    <path class="cls-3" d="m51.93,20.23c-.49,0-.87-.14-1.13-.42s-.39-.66-.39-1.16V4.62c0-.51.13-.9.39-1.17.26-.27.64-.4,1.13-.4s.87.14,1.13.4c.26.27.39.66.39,1.17v5.62h8.65v-5.62c0-.51.13-.9.39-1.17.26-.27.64-.4,1.13-.4s.87.14,1.13.4c.26.27.39.66.39,1.17v14.03c0,.49-.13.88-.39,1.16-.26.28-.64.42-1.13.42s-.87-.14-1.13-.42c-.26-.28-.39-.66-.39-1.16v-5.86h-8.65v5.86c0,.49-.13.88-.38,1.16-.25.28-.64.42-1.14.42Z"/>
  </g>
</svg>