<?xml version="1.0" encoding="UTF-8"?>
<svg id="Layer_2" data-name="Layer 2" xmlns="http://www.w3.org/2000/svg" xmlns:xlink="http://www.w3.org/1999/xlink" viewBox="0 0 34.96 363.85">
  <defs>
    <style>
      .cls-1 {
        fill: url(#linear-gradient);
      }

      .cls-1, .cls-2, .cls-3 {
        stroke-width: 0px;
      }

      .cls-2 {
        fill: #0db8ff;
      }

      .cls-3 {
        fill: #122c5e;
      }
    </style>
    <linearGradient id="linear-gradient" x1="-156.41" y1="485.02" x2="-156.41" y2="816.13" gradientTransform="translate(172.92 832.35) scale(1 -1)" gradientUnits="userSpaceOnUse">
      <stop offset="0" stop-color="#0db8ff"/>
      <stop offset=".5" stop-color="#2139e5"/>
      <stop offset="1" stop-color="#122c5e"/>
    </linearGradient>
  </defs>
  <g id="Layer_3" data-name="Layer 3">
    <rect class="cls-1" x="15.26" y="16.22" width="2.5" height="331.11"/>
  </g>
  <g>
    <path class="cls-2" d="m4.2,360.73c-.25,0-.44-.07-.58-.21s-.2-.33-.2-.58v-6.92c0-.26.07-.45.2-.58s.32-.2.57-.2.44.07.57.2c.13.13.2.33.2.58v6.41h3.48c.22,0,.38.06.5.17.12.11.17.27.17.48s-.06.37-.17.49c-.12.12-.28.17-.5.17h-4.24Z"/>
    <path class="cls-2" d="m13.96,360.85c-.82,0-1.53-.18-2.14-.54-.61-.36-1.09-.87-1.42-1.52-.34-.65-.5-1.42-.5-2.3,0-.66.1-1.26.29-1.79.19-.53.47-.99.82-1.37.36-.38.78-.67,1.28-.88.5-.2,1.06-.31,1.67-.31.82,0,1.54.18,2.15.53s1.08.86,1.42,1.51c.34.65.5,1.41.5,2.29,0,.66-.1,1.26-.29,1.8-.19.54-.47,1-.82,1.38-.36.38-.78.68-1.28.88-.5.2-1.06.31-1.67.31Zm0-1.32c.52,0,.96-.12,1.33-.36.36-.24.64-.59.84-1.04.2-.46.29-1,.29-1.63,0-.96-.21-1.7-.64-2.23-.43-.53-1.03-.79-1.82-.79-.51,0-.95.12-1.32.35-.37.24-.65.58-.85,1.03-.2.45-.29,1-.29,1.64,0,.95.22,1.7.65,2.23.43.54,1.04.8,1.81.8Z"/>
    <path class="cls-2" d="m22.56,360.83c-.22,0-.39-.05-.52-.16-.13-.1-.24-.27-.32-.49l-2.51-7.09c-.09-.26-.07-.47.05-.65s.33-.26.63-.26c.22,0,.38.05.5.15.12.1.22.26.29.47l2.16,6.41h-.48l2.26-6.4c.08-.22.18-.38.3-.48.12-.1.28-.16.47-.16s.34.05.46.16c.11.1.21.27.29.49l2.18,6.38h-.42l2.2-6.41c.07-.21.17-.36.29-.47.12-.1.28-.16.49-.16.26,0,.44.09.56.26.12.18.14.39.05.65l-2.53,7.1c-.08.22-.18.38-.31.48-.13.1-.3.16-.52.16s-.39-.05-.52-.16c-.13-.1-.23-.27-.31-.49l-2.09-5.95h.28l-2.11,5.96c-.08.22-.18.38-.31.48-.12.1-.29.16-.51.16Z"/>
  </g>
  <g>
    <path class="cls-3" d="m3.79,11.68c-.25,0-.44-.07-.57-.21-.13-.14-.2-.33-.2-.58V3.82c0-.26.07-.45.2-.59.13-.13.32-.2.57-.2s.44.07.57.2c.13.14.2.33.2.59v2.83h4.36v-2.83c0-.26.07-.45.2-.59.13-.13.32-.2.57-.2s.44.07.57.2c.13.14.2.33.2.59v7.07c0,.25-.07.44-.2.58-.13.14-.32.21-.57.21s-.44-.07-.57-.21-.2-.33-.2-.58v-2.95h-4.36v2.95c0,.25-.06.44-.19.58s-.32.21-.58.21Z"/>
    <path class="cls-3" d="m13.07,11.68c-.25,0-.44-.07-.57-.21s-.2-.33-.2-.58V3.82c0-.26.07-.45.2-.59.13-.13.32-.2.57-.2s.44.07.57.2c.13.14.2.33.2.59v7.07c0,.25-.06.44-.19.58-.13.14-.32.21-.58.21Z"/>
    <path class="cls-3" d="m19.75,11.7c-.94,0-1.73-.18-2.37-.53-.64-.35-1.13-.85-1.47-1.5-.34-.65-.5-1.42-.5-2.3,0-.67.1-1.28.29-1.81.2-.54.48-.99.85-1.37.37-.38.83-.67,1.36-.88.54-.2,1.14-.31,1.82-.31.45,0,.9.05,1.35.16.45.11.88.29,1.28.55.14.09.23.2.27.32s.05.26.02.39c-.03.13-.09.25-.18.34-.09.1-.2.16-.33.18-.13.02-.28,0-.44-.1-.3-.18-.61-.3-.92-.38-.31-.08-.66-.12-1.04-.12-.59,0-1.09.12-1.5.35s-.71.58-.92,1.03c-.21.45-.31,1-.31,1.64,0,.98.24,1.73.71,2.24s1.17.77,2.1.77c.32,0,.64-.03.97-.1.33-.06.65-.15.96-.26l-.3.68v-2.56h-1.32c-.2,0-.35-.05-.46-.16s-.16-.24-.16-.42c0-.18.05-.32.16-.42.11-.1.26-.14.46-.14h1.98c.2,0,.35.05.46.16.11.11.16.26.16.46v2.92c0,.18-.04.32-.1.44s-.18.21-.33.26c-.35.13-.76.23-1.21.32s-.9.13-1.34.13Z"/>
    <path class="cls-3" d="m25.28,11.68c-.25,0-.44-.07-.57-.21s-.2-.33-.2-.58V3.82c0-.26.07-.45.2-.59.13-.13.32-.2.57-.2s.44.07.57.2c.13.14.2.33.2.59v2.83h4.36v-2.83c0-.26.07-.45.2-.59.13-.13.32-.2.57-.2s.44.07.57.2c.13.14.2.33.2.59v7.07c0,.25-.07.44-.2.58-.13.14-.32.21-.57.21s-.44-.07-.57-.21c-.13-.14-.2-.33-.2-.58v-2.95h-4.36v2.95c0,.25-.06.44-.19.58-.13.14-.32.21-.58.21Z"/>
  </g>
</svg>